<?xml version="1.0" encoding="UTF-8" standalone="no"?><svg xmlns="http://www.w3.org/2000/svg" xmlns:xlink="http://www.w3.org/1999/xlink" contentScriptType="application/ecmascript" contentStyleType="text/css" height="940px" preserveAspectRatio="none" style="width:1983px;height:940px;" version="1.1" viewBox="0 0 1983 940" width="1983px" zoomAndPan="magnify"><defs><filter height="300%" id="f1m9cbnjux3xqs" width="300%" x="-1" y="-1"><feGaussianBlur result="blurOut" stdDeviation="2.0"/><feColorMatrix in="blurOut" result="blurOut2" type="matrix" values="0 0 0 0 0 0 0 0 0 0 0 0 0 0 0 0 0 0 .4 0"/><feOffset dx="4.0" dy="4.0" in="blurOut2" result="blurOut3"/><feBlend in="SourceGraphic" in2="blurOut3" mode="normal"/></filter></defs><g><!--MD5=[10ea673caf457862023e152271927b45]
cluster controller--><polygon fill="#FFFFFF" filter="url(#f1m9cbnjux3xqs)" points="186,24,269,24,276,46.2969,540,46.2969,540,161,186,161,186,24" style="stroke: #000000; stroke-width: 1.5;"/><line style="stroke: #000000; stroke-width: 1.5;" x1="186" x2="276" y1="46.2969" y2="46.2969"/><text fill="#000000" font-family="sans-serif" font-size="14" font-weight="bold" lengthAdjust="spacingAndGlyphs" textLength="77" x="190" y="38.9951">controller</text><!--MD5=[77140a42179fe8241cde5d77dd05aadc]
cluster config--><polygon fill="#FFFFFF" filter="url(#f1m9cbnjux3xqs)" points="1017,36.5,1072,36.5,1079,58.7969,1437,58.7969,1437,148.5,1017,148.5,1017,36.5" style="stroke: #000000; stroke-width: 1.5;"/><line style="stroke: #000000; stroke-width: 1.5;" x1="1017" x2="1079" y1="58.7969" y2="58.7969"/><text fill="#000000" font-family="sans-serif" font-size="14" font-weight="bold" lengthAdjust="spacingAndGlyphs" textLength="49" x="1021" y="51.4951">config</text><!--MD5=[7579d5565d2521d5936cec86ed3dadee]
cluster service--><polygon fill="#FFFFFF" filter="url(#f1m9cbnjux3xqs)" points="505,210,569,210,576,232.2969,1033,232.2969,1033,514,505,514,505,210" style="stroke: #000000; stroke-width: 1.5;"/><line style="stroke: #000000; stroke-width: 1.5;" x1="505" x2="576" y1="232.2969" y2="232.2969"/><text fill="#000000" font-family="sans-serif" font-size="14" font-weight="bold" lengthAdjust="spacingAndGlyphs" textLength="58" x="509" y="224.9951">service</text><!--MD5=[e6eced616a98d47334dd1aaaa829ffd5]
cluster dto--><polygon fill="#FFFFFF" filter="url(#f1m9cbnjux3xqs)" points="22,563,54,563,61,585.2969,762,585.2969,762,928,22,928,22,563" style="stroke: #000000; stroke-width: 1.5;"/><line style="stroke: #000000; stroke-width: 1.5;" x1="22" x2="61" y1="585.2969" y2="585.2969"/><text fill="#000000" font-family="sans-serif" font-size="14" font-weight="bold" lengthAdjust="spacingAndGlyphs" textLength="26" x="26" y="577.9951">dto</text><!--MD5=[11f03a07a4422c8eb8f650dbf201ac41]
cluster exception--><polygon fill="#FFFFFF" filter="url(#f1m9cbnjux3xqs)" points="1130,588.5,1214,588.5,1221,610.7969,1961,610.7969,1961,700.5,1130,700.5,1130,588.5" style="stroke: #000000; stroke-width: 1.5;"/><line style="stroke: #000000; stroke-width: 1.5;" x1="1130" x2="1221" y1="610.7969" y2="610.7969"/><text fill="#000000" font-family="sans-serif" font-size="14" font-weight="bold" lengthAdjust="spacingAndGlyphs" textLength="78" x="1134" y="603.4951">exception</text><!--MD5=[5b7d7b6f636429b28b22fd98dc46cd1b]
cluster exception.handler--><polygon fill="#FFFFFF" filter="url(#f1m9cbnjux3xqs)" points="1057,287,1206,287,1213,309.2969,1627,309.2969,1627,437,1057,437,1057,287" style="stroke: #000000; stroke-width: 1.5;"/><line style="stroke: #000000; stroke-width: 1.5;" x1="1057" x2="1213" y1="309.2969" y2="309.2969"/><text fill="#000000" font-family="sans-serif" font-size="14" font-weight="bold" lengthAdjust="spacingAndGlyphs" textLength="143" x="1061" y="301.9951">exception.handler</text><!--MD5=[07d2bcfdd1f5b6267d4746aeadaa7923]
class TextAnalysisController--><rect fill="#FEFECE" filter="url(#f1m9cbnjux3xqs)" height="86.4141" id="TextAnalysisController" style="stroke: #A80036; stroke-width: 1.5;" width="322" x="202" y="59"/><ellipse cx="278.75" cy="75" fill="#ADD1B2" rx="11" ry="11" style="stroke: #A80036; stroke-width: 1.0;"/><path d="M281.7188,80.6406 Q281.1406,80.9375 280.5,81.0781 Q279.8594,81.2344 279.1563,81.2344 Q276.6563,81.2344 275.3281,79.5938 Q274.0156,77.9375 274.0156,74.8125 Q274.0156,71.6875 275.3281,70.0313 Q276.6563,68.375 279.1563,68.375 Q279.8594,68.375 280.5,68.5313 Q281.1563,68.6875 281.7188,68.9844 L281.7188,71.7031 Q281.0938,71.125 280.5,70.8594 Q279.9063,70.5781 279.2813,70.5781 Q277.9375,70.5781 277.25,71.6563 Q276.5625,72.7188 276.5625,74.8125 Q276.5625,76.9063 277.25,77.9844 Q277.9375,79.0469 279.2813,79.0469 Q279.9063,79.0469 280.5,78.7813 Q281.0938,78.5 281.7188,77.9219 L281.7188,80.6406 Z "/><text fill="#000000" font-family="sans-serif" font-size="12" font-weight="bold" lengthAdjust="spacingAndGlyphs" textLength="160" x="299.25" y="79.1543">TextAnalysisController</text><line style="stroke: #A80036; stroke-width: 1.5;" x1="203" x2="523" y1="91" y2="91"/><text fill="#000000" font-family="sans-serif" font-size="11" lengthAdjust="spacingAndGlyphs" textLength="166" x="208" y="105.2104">-service: TextAnalysisService</text><line style="stroke: #A80036; stroke-width: 1.5;" x1="203" x2="523" y1="111.8047" y2="111.8047"/><text fill="#000000" font-family="sans-serif" font-size="11" lengthAdjust="spacingAndGlyphs" textLength="310" x="208" y="126.0151">+analyze(request: AnalyzeRequest): AnalysisResponse</text><text fill="#000000" font-family="sans-serif" font-size="11" lengthAdjust="spacingAndGlyphs" textLength="309" x="208" y="138.8198">+classify(request: AnalyzeRequest): ClassifyResponse</text><!--MD5=[27cefec769004c2fd58705b9c7a23b52]
class LlmClientConfig--><rect fill="#FEFECE" filter="url(#f1m9cbnjux3xqs)" height="60.8047" id="LlmClientConfig" style="stroke: #A80036; stroke-width: 1.5;" width="387" x="1033.5" y="71.5"/><ellipse cx="1167.75" cy="87.5" fill="#ADD1B2" rx="11" ry="11" style="stroke: #A80036; stroke-width: 1.0;"/><path d="M1170.7188,93.1406 Q1170.1406,93.4375 1169.5,93.5781 Q1168.8594,93.7344 1168.1563,93.7344 Q1165.6563,93.7344 1164.3281,92.0938 Q1163.0156,90.4375 1163.0156,87.3125 Q1163.0156,84.1875 1164.3281,82.5313 Q1165.6563,80.875 1168.1563,80.875 Q1168.8594,80.875 1169.5,81.0313 Q1170.1563,81.1875 1170.7188,81.4844 L1170.7188,84.2031 Q1170.0938,83.625 1169.5,83.3594 Q1168.9063,83.0781 1168.2813,83.0781 Q1166.9375,83.0781 1166.25,84.1563 Q1165.5625,85.2188 1165.5625,87.3125 Q1165.5625,89.4063 1166.25,90.4844 Q1166.9375,91.5469 1168.2813,91.5469 Q1168.9063,91.5469 1169.5,91.2813 Q1170.0938,91 1170.7188,90.4219 L1170.7188,93.1406 Z "/><text fill="#000000" font-family="sans-serif" font-size="12" font-weight="bold" lengthAdjust="spacingAndGlyphs" textLength="110" x="1188.25" y="91.6543">LlmClientConfig</text><line style="stroke: #A80036; stroke-width: 1.5;" x1="1034.5" x2="1419.5" y1="103.5" y2="103.5"/><line style="stroke: #A80036; stroke-width: 1.5;" x1="1034.5" x2="1419.5" y1="111.5" y2="111.5"/><text fill="#000000" font-family="sans-serif" font-size="11" lengthAdjust="spacingAndGlyphs" textLength="375" x="1039.5" y="125.7104">+restClientBuilder(connectMs: int, readMs: int): RestClient.Builder</text><!--MD5=[0be206d0152edf725601f1f50a97a3b2]
class TextAnalysisService--><rect fill="#FEFECE" filter="url(#f1m9cbnjux3xqs)" height="252.875" id="TextAnalysisService" style="stroke: #A80036; stroke-width: 1.5;" width="496" x="521" y="245"/><ellipse cx="694.75" cy="261" fill="#ADD1B2" rx="11" ry="11" style="stroke: #A80036; stroke-width: 1.0;"/><path d="M697.7188,266.6406 Q697.1406,266.9375 696.5,267.0781 Q695.8594,267.2344 695.1563,267.2344 Q692.6563,267.2344 691.3281,265.5938 Q690.0156,263.9375 690.0156,260.8125 Q690.0156,257.6875 691.3281,256.0313 Q692.6563,254.375 695.1563,254.375 Q695.8594,254.375 696.5,254.5313 Q697.1563,254.6875 697.7188,254.9844 L697.7188,257.7031 Q697.0938,257.125 696.5,256.8594 Q695.9063,256.5781 695.2813,256.5781 Q693.9375,256.5781 693.25,257.6563 Q692.5625,258.7188 692.5625,260.8125 Q692.5625,262.9063 693.25,263.9844 Q693.9375,265.0469 695.2813,265.0469 Q695.9063,265.0469 696.5,264.7813 Q697.0938,264.5 697.7188,263.9219 L697.7188,266.6406 Z "/><text fill="#000000" font-family="sans-serif" font-size="12" font-weight="bold" lengthAdjust="spacingAndGlyphs" textLength="140" x="715.25" y="265.1543">TextAnalysisService</text><line style="stroke: #A80036; stroke-width: 1.5;" x1="522" x2="1016" y1="277" y2="277"/><text fill="#000000" font-family="sans-serif" font-size="11" lengthAdjust="spacingAndGlyphs" textLength="126" x="527" y="291.2104">-chatClient: ChatClient</text><text fill="#000000" font-family="sans-serif" font-size="11" lengthAdjust="spacingAndGlyphs" textLength="166" x="527" y="304.0151">-objectMapper: ObjectMapper</text><text fill="#000000" font-family="sans-serif" font-size="11" lengthAdjust="spacingAndGlyphs" textLength="129" x="527" y="316.8198">-systemPrompt: String</text><text fill="#000000" font-family="sans-serif" font-size="11" lengthAdjust="spacingAndGlyphs" textLength="130" x="527" y="329.6245">-classifyPrompt: String</text><text fill="#000000" font-family="sans-serif" font-size="11" lengthAdjust="spacingAndGlyphs" textLength="122" x="527" y="342.4292">-fallbackModel: String</text><text fill="#000000" font-family="sans-serif" font-size="11" lengthAdjust="spacingAndGlyphs" textLength="101" x="527" y="355.2339">-maxAttempts: int</text><text fill="#000000" font-family="sans-serif" font-size="11" lengthAdjust="spacingAndGlyphs" textLength="111" x="527" y="368.0386">-baseDelayMs: long</text><text fill="#000000" font-family="sans-serif" font-size="11" lengthAdjust="spacingAndGlyphs" textLength="102" x="527" y="380.8433">-random: Random</text><line style="stroke: #A80036; stroke-width: 1.5;" x1="522" x2="1016" y1="387.4375" y2="387.4375"/><text fill="#000000" font-family="sans-serif" font-size="11" lengthAdjust="spacingAndGlyphs" textLength="310" x="527" y="401.6479">+analyze(request: AnalyzeRequest): AnalysisResponse</text><text fill="#000000" font-family="sans-serif" font-size="11" lengthAdjust="spacingAndGlyphs" textLength="309" x="527" y="414.4526">+classify(request: AnalyzeRequest): ClassifyResponse</text><text fill="#000000" font-family="sans-serif" font-size="11" lengthAdjust="spacingAndGlyphs" textLength="483" x="527" y="427.2573">-attemptAnalyze(request: AnalyzeRequest, modelOverride: String): AnalysisResponse</text><text fill="#000000" font-family="sans-serif" font-size="11" lengthAdjust="spacingAndGlyphs" textLength="484" x="527" y="440.062">-attemptClassify(request: AnalyzeRequest, modelOverride: String): ClassifyResponse</text><text fill="#000000" font-family="sans-serif" font-size="11" lengthAdjust="spacingAndGlyphs" textLength="275" x="527" y="452.8667">-parseResponse(raw: String): AnalysisResponse</text><text fill="#000000" font-family="sans-serif" font-size="11" lengthAdjust="spacingAndGlyphs" textLength="283" x="527" y="465.6714">-classifyResponse(raw: String): ClassifyResponse</text><text fill="#000000" font-family="sans-serif" font-size="11" lengthAdjust="spacingAndGlyphs" textLength="368" x="527" y="478.4761">-sleepBeforeRetry(attempt: int, e: HttpClientErrorException): void</text><text fill="#000000" font-family="sans-serif" font-size="11" lengthAdjust="spacingAndGlyphs" textLength="452" x="527" y="491.2808">-logUsage(response: ChatResponse, latencyMs: long, isFallback: boolean): void</text><!--MD5=[70c56c1f9ac4dc4ae10652bd270759c3]
class AnalyzeRequest--><rect fill="#FEFECE" filter="url(#f1m9cbnjux3xqs)" height="60.8047" id="AnalyzeRequest" style="stroke: #A80036; stroke-width: 1.5;" width="147" x="426.5" y="623.5"/><ellipse cx="441.5" cy="639.5" fill="#ADD1B2" rx="11" ry="11" style="stroke: #A80036; stroke-width: 1.0;"/><path d="M444.4688,645.1406 Q443.8906,645.4375 443.25,645.5781 Q442.6094,645.7344 441.9063,645.7344 Q439.4063,645.7344 438.0781,644.0938 Q436.7656,642.4375 436.7656,639.3125 Q436.7656,636.1875 438.0781,634.5313 Q439.4063,632.875 441.9063,632.875 Q442.6094,632.875 443.25,633.0313 Q443.9063,633.1875 444.4688,633.4844 L444.4688,636.2031 Q443.8438,635.625 443.25,635.3594 Q442.6563,635.0781 442.0313,635.0781 Q440.6875,635.0781 440,636.1563 Q439.3125,637.2188 439.3125,639.3125 Q439.3125,641.4063 440,642.4844 Q440.6875,643.5469 442.0313,643.5469 Q442.6563,643.5469 443.25,643.2813 Q443.8438,643 444.4688,642.4219 L444.4688,645.1406 Z "/><text fill="#000000" font-family="sans-serif" font-size="12" font-weight="bold" lengthAdjust="spacingAndGlyphs" textLength="115" x="455.5" y="643.6543">AnalyzeRequest</text><line style="stroke: #A80036; stroke-width: 1.5;" x1="427.5" x2="572.5" y1="655.5" y2="655.5"/><text fill="#000000" font-family="sans-serif" font-size="11" lengthAdjust="spacingAndGlyphs" textLength="67" x="432.5" y="669.7104">-text: String</text><line style="stroke: #A80036; stroke-width: 1.5;" x1="427.5" x2="572.5" y1="676.3047" y2="676.3047"/><!--MD5=[5868ba203e3e21a7282960d5a1b712b7]
class AnalysisResponse--><rect fill="#FEFECE" filter="url(#f1m9cbnjux3xqs)" height="112.0234" id="AnalysisResponse" style="stroke: #A80036; stroke-width: 1.5;" width="161" x="230.5" y="598"/><ellipse cx="245.5" cy="614" fill="#ADD1B2" rx="11" ry="11" style="stroke: #A80036; stroke-width: 1.0;"/><path d="M248.4688,619.6406 Q247.8906,619.9375 247.25,620.0781 Q246.6094,620.2344 245.9063,620.2344 Q243.4063,620.2344 242.0781,618.5938 Q240.7656,616.9375 240.7656,613.8125 Q240.7656,610.6875 242.0781,609.0313 Q243.4063,607.375 245.9063,607.375 Q246.6094,607.375 247.25,607.5313 Q247.9063,607.6875 248.4688,607.9844 L248.4688,610.7031 Q247.8438,610.125 247.25,609.8594 Q246.6563,609.5781 246.0313,609.5781 Q244.6875,609.5781 244,610.6563 Q243.3125,611.7188 243.3125,613.8125 Q243.3125,615.9063 244,616.9844 Q244.6875,618.0469 246.0313,618.0469 Q246.6563,618.0469 247.25,617.7813 Q247.8438,617.5 248.4688,616.9219 L248.4688,619.6406 Z "/><text fill="#000000" font-family="sans-serif" font-size="12" font-weight="bold" lengthAdjust="spacingAndGlyphs" textLength="129" x="259.5" y="618.1543">AnalysisResponse</text><line style="stroke: #A80036; stroke-width: 1.5;" x1="231.5" x2="390.5" y1="630" y2="630"/><text fill="#000000" font-family="sans-serif" font-size="11" lengthAdjust="spacingAndGlyphs" textLength="100" x="236.5" y="644.2104">-summary: String</text><text fill="#000000" font-family="sans-serif" font-size="11" lengthAdjust="spacingAndGlyphs" textLength="127" x="236.5" y="657.0151">-sentiment: Sentiment</text><text fill="#000000" font-family="sans-serif" font-size="11" lengthAdjust="spacingAndGlyphs" textLength="111" x="236.5" y="669.8198">-confidence: double</text><text fill="#000000" font-family="sans-serif" font-size="11" lengthAdjust="spacingAndGlyphs" textLength="140" x="236.5" y="682.6245">-keyTopics: List&lt;String&gt;</text><text fill="#000000" font-family="sans-serif" font-size="11" lengthAdjust="spacingAndGlyphs" textLength="137" x="236.5" y="695.4292">-wordCountEstimate: int</text><line style="stroke: #A80036; stroke-width: 1.5;" x1="231.5" x2="390.5" y1="702.0234" y2="702.0234"/><!--MD5=[123750d28b653c6a0f001854481179bc]
class Sentiment--><rect fill="#FEFECE" filter="url(#f1m9cbnjux3xqs)" height="86.4141" id="Sentiment" style="stroke: #A80036; stroke-width: 1.5;" width="105" x="258.5" y="806.5"/><ellipse cx="273.5" cy="822.5" fill="#EB937F" rx="11" ry="11" style="stroke: #A80036; stroke-width: 1.0;"/><path d="M277.6094,828.5 L269.8906,828.5 L269.8906,816.1094 L277.6094,816.1094 L277.6094,818.2656 L272.3438,818.2656 L272.3438,820.9375 L277.1094,820.9375 L277.1094,823.0938 L272.3438,823.0938 L272.3438,826.3438 L277.6094,826.3438 L277.6094,828.5 Z "/><text fill="#000000" font-family="sans-serif" font-size="12" font-weight="bold" lengthAdjust="spacingAndGlyphs" textLength="73" x="287.5" y="826.6543">Sentiment</text><line style="stroke: #A80036; stroke-width: 1.5;" x1="259.5" x2="362.5" y1="838.5" y2="838.5"/><text fill="#000000" font-family="sans-serif" font-size="11" lengthAdjust="spacingAndGlyphs" textLength="44" x="264.5" y="852.7104">positive</text><text fill="#000000" font-family="sans-serif" font-size="11" lengthAdjust="spacingAndGlyphs" textLength="48" x="264.5" y="865.5151">negative</text><text fill="#000000" font-family="sans-serif" font-size="11" lengthAdjust="spacingAndGlyphs" textLength="40" x="264.5" y="878.3198">neutral</text><line style="stroke: #A80036; stroke-width: 1.5;" x1="259.5" x2="362.5" y1="884.9141" y2="884.9141"/><!--MD5=[276c5612e8e7531d993b7cca45363ed2]
class ClassifyResponse--><rect fill="#FEFECE" filter="url(#f1m9cbnjux3xqs)" height="86.4141" id="ClassifyResponse" style="stroke: #A80036; stroke-width: 1.5;" width="157" x="38.5" y="611"/><ellipse cx="53.5" cy="627" fill="#ADD1B2" rx="11" ry="11" style="stroke: #A80036; stroke-width: 1.0;"/><path d="M56.4688,632.6406 Q55.8906,632.9375 55.25,633.0781 Q54.6094,633.2344 53.9063,633.2344 Q51.4063,633.2344 50.0781,631.5938 Q48.7656,629.9375 48.7656,626.8125 Q48.7656,623.6875 50.0781,622.0313 Q51.4063,620.375 53.9063,620.375 Q54.6094,620.375 55.25,620.5313 Q55.9063,620.6875 56.4688,620.9844 L56.4688,623.7031 Q55.8438,623.125 55.25,622.8594 Q54.6563,622.5781 54.0313,622.5781 Q52.6875,622.5781 52,623.6563 Q51.3125,624.7188 51.3125,626.8125 Q51.3125,628.9063 52,629.9844 Q52.6875,631.0469 54.0313,631.0469 Q54.6563,631.0469 55.25,630.7813 Q55.8438,630.5 56.4688,629.9219 L56.4688,632.6406 Z "/><text fill="#000000" font-family="sans-serif" font-size="12" font-weight="bold" lengthAdjust="spacingAndGlyphs" textLength="125" x="67.5" y="631.1543">ClassifyResponse</text><line style="stroke: #A80036; stroke-width: 1.5;" x1="39.5" x2="194.5" y1="643" y2="643"/><text fill="#000000" font-family="sans-serif" font-size="11" lengthAdjust="spacingAndGlyphs" textLength="103" x="44.5" y="657.2104">-reasoning: String</text><text fill="#000000" font-family="sans-serif" font-size="11" lengthAdjust="spacingAndGlyphs" textLength="112" x="44.5" y="670.0151">-category: Category</text><text fill="#000000" font-family="sans-serif" font-size="11" lengthAdjust="spacingAndGlyphs" textLength="111" x="44.5" y="682.8198">-confidence: double</text><line style="stroke: #A80036; stroke-width: 1.5;" x1="39.5" x2="194.5" y1="689.4141" y2="689.4141"/><!--MD5=[a96594a83e2ecdc78cbf17c2ddf01934]
class Category--><rect fill="#FEFECE" filter="url(#f1m9cbnjux3xqs)" height="124.8281" id="Category" style="stroke: #A80036; stroke-width: 1.5;" width="97" x="68.5" y="787"/><ellipse cx="83.5" cy="803" fill="#EB937F" rx="11" ry="11" style="stroke: #A80036; stroke-width: 1.0;"/><path d="M87.6094,809 L79.8906,809 L79.8906,796.6094 L87.6094,796.6094 L87.6094,798.7656 L82.3438,798.7656 L82.3438,801.4375 L87.1094,801.4375 L87.1094,803.5938 L82.3438,803.5938 L82.3438,806.8438 L87.6094,806.8438 L87.6094,809 Z "/><text fill="#000000" font-family="sans-serif" font-size="12" font-weight="bold" lengthAdjust="spacingAndGlyphs" textLength="65" x="97.5" y="807.1543">Category</text><line style="stroke: #A80036; stroke-width: 1.5;" x1="69.5" x2="164.5" y1="819" y2="819"/><text fill="#000000" font-family="sans-serif" font-size="11" lengthAdjust="spacingAndGlyphs" textLength="61" x="74.5" y="833.2104">technology</text><text fill="#000000" font-family="sans-serif" font-size="11" lengthAdjust="spacingAndGlyphs" textLength="40" x="74.5" y="846.0151">politics</text><text fill="#000000" font-family="sans-serif" font-size="11" lengthAdjust="spacingAndGlyphs" textLength="37" x="74.5" y="858.8198">sports</text><text fill="#000000" font-family="sans-serif" font-size="11" lengthAdjust="spacingAndGlyphs" textLength="52" x="74.5" y="871.6245">business</text><text fill="#000000" font-family="sans-serif" font-size="11" lengthAdjust="spacingAndGlyphs" textLength="35" x="74.5" y="884.4292">health</text><text fill="#000000" font-family="sans-serif" font-size="11" lengthAdjust="spacingAndGlyphs" textLength="30" x="74.5" y="897.2339">other</text><line style="stroke: #A80036; stroke-width: 1.5;" x1="69.5" x2="164.5" y1="903.8281" y2="903.8281"/><!--MD5=[d70279aee16cb60954d73d22597b95b5]
class ErrorResponse--><rect fill="#FEFECE" filter="url(#f1m9cbnjux3xqs)" height="73.6094" id="ErrorResponse" style="stroke: #A80036; stroke-width: 1.5;" width="137" x="608.5" y="617"/><ellipse cx="623.5" cy="633" fill="#ADD1B2" rx="11" ry="11" style="stroke: #A80036; stroke-width: 1.0;"/><path d="M626.4688,638.6406 Q625.8906,638.9375 625.25,639.0781 Q624.6094,639.2344 623.9063,639.2344 Q621.4063,639.2344 620.0781,637.5938 Q618.7656,635.9375 618.7656,632.8125 Q618.7656,629.6875 620.0781,628.0313 Q621.4063,626.375 623.9063,626.375 Q624.6094,626.375 625.25,626.5313 Q625.9063,626.6875 626.4688,626.9844 L626.4688,629.7031 Q625.8438,629.125 625.25,628.8594 Q624.6563,628.5781 624.0313,628.5781 Q622.6875,628.5781 622,629.6563 Q621.3125,630.7188 621.3125,632.8125 Q621.3125,634.9063 622,635.9844 Q622.6875,637.0469 624.0313,637.0469 Q624.6563,637.0469 625.25,636.7813 Q625.8438,636.5 626.4688,635.9219 L626.4688,638.6406 Z "/><text fill="#000000" font-family="sans-serif" font-size="12" font-weight="bold" lengthAdjust="spacingAndGlyphs" textLength="105" x="637.5" y="637.1543">ErrorResponse</text><line style="stroke: #A80036; stroke-width: 1.5;" x1="609.5" x2="744.5" y1="649" y2="649"/><text fill="#000000" font-family="sans-serif" font-size="11" lengthAdjust="spacingAndGlyphs" textLength="75" x="614.5" y="663.2104">-error: String</text><text fill="#000000" font-family="sans-serif" font-size="11" lengthAdjust="spacingAndGlyphs" textLength="97" x="614.5" y="676.0151">-code: ErrorCode</text><line style="stroke: #A80036; stroke-width: 1.5;" x1="609.5" x2="744.5" y1="682.6094" y2="682.6094"/><!--MD5=[e9923e1a33f8410e6361298b2227207f]
class ErrorCode--><rect fill="#FEFECE" filter="url(#f1m9cbnjux3xqs)" height="86.4141" id="ErrorCode" style="stroke: #A80036; stroke-width: 1.5;" width="113" x="626.5" y="806.5"/><ellipse cx="646" cy="822.5" fill="#EB937F" rx="11" ry="11" style="stroke: #A80036; stroke-width: 1.0;"/><path d="M650.1094,828.5 L642.3906,828.5 L642.3906,816.1094 L650.1094,816.1094 L650.1094,818.2656 L644.8438,818.2656 L644.8438,820.9375 L649.6094,820.9375 L649.6094,823.0938 L644.8438,823.0938 L644.8438,826.3438 L650.1094,826.3438 L650.1094,828.5 Z "/><text fill="#000000" font-family="sans-serif" font-size="12" font-weight="bold" lengthAdjust="spacingAndGlyphs" textLength="71" x="661" y="826.6543">ErrorCode</text><line style="stroke: #A80036; stroke-width: 1.5;" x1="627.5" x2="738.5" y1="838.5" y2="838.5"/><text fill="#000000" font-family="sans-serif" font-size="11" lengthAdjust="spacingAndGlyphs" textLength="81" x="632.5" y="852.7104">INVALID_INPUT</text><text fill="#000000" font-family="sans-serif" font-size="11" lengthAdjust="spacingAndGlyphs" textLength="101" x="632.5" y="865.5151">LLM_UNAVAILABLE</text><text fill="#000000" font-family="sans-serif" font-size="11" lengthAdjust="spacingAndGlyphs" textLength="79" x="632.5" y="878.3198">PARSE_ERROR</text><line style="stroke: #A80036; stroke-width: 1.5;" x1="627.5" x2="738.5" y1="884.9141" y2="884.9141"/><!--MD5=[5cbcdbbc9d99dd605f2fdaaae8079a0a]
class LlmUnavailableException--><rect fill="#FEFECE" filter="url(#f1m9cbnjux3xqs)" height="60.8047" id="LlmUnavailableException" style="stroke: #A80036; stroke-width: 1.5;" width="372" x="1573" y="623.5"/><ellipse cx="1667.25" cy="639.5" fill="#ADD1B2" rx="11" ry="11" style="stroke: #A80036; stroke-width: 1.0;"/><path d="M1670.2188,645.1406 Q1669.6406,645.4375 1669,645.5781 Q1668.3594,645.7344 1667.6563,645.7344 Q1665.1563,645.7344 1663.8281,644.0938 Q1662.5156,642.4375 1662.5156,639.3125 Q1662.5156,636.1875 1663.8281,634.5313 Q1665.1563,632.875 1667.6563,632.875 Q1668.3594,632.875 1669,633.0313 Q1669.6563,633.1875 1670.2188,633.4844 L1670.2188,636.2031 Q1669.5938,635.625 1669,635.3594 Q1668.4063,635.0781 1667.7813,635.0781 Q1666.4375,635.0781 1665.75,636.1563 Q1665.0625,637.2188 1665.0625,639.3125 Q1665.0625,641.4063 1665.75,642.4844 Q1666.4375,643.5469 1667.7813,643.5469 Q1668.4063,643.5469 1669,643.2813 Q1669.5938,643 1670.2188,642.4219 L1670.2188,645.1406 Z "/><text fill="#000000" font-family="sans-serif" font-size="12" font-weight="bold" lengthAdjust="spacingAndGlyphs" textLength="175" x="1687.75" y="643.6543">LlmUnavailableException</text><line style="stroke: #A80036; stroke-width: 1.5;" x1="1574" x2="1944" y1="655.5" y2="655.5"/><line style="stroke: #A80036; stroke-width: 1.5;" x1="1574" x2="1944" y1="663.5" y2="663.5"/><text fill="#000000" font-family="sans-serif" font-size="11" lengthAdjust="spacingAndGlyphs" textLength="360" x="1579" y="677.7104">+LlmUnavailableException(message: String, cause: Throwable)</text><!--MD5=[52221cc32b96c3919957b075938e0d1c]
class ParseException--><rect fill="#FEFECE" filter="url(#f1m9cbnjux3xqs)" height="60.8047" id="ParseException" style="stroke: #A80036; stroke-width: 1.5;" width="391" x="1146.5" y="623.5"/><ellipse cx="1283.25" cy="639.5" fill="#ADD1B2" rx="11" ry="11" style="stroke: #A80036; stroke-width: 1.0;"/><path d="M1286.2188,645.1406 Q1285.6406,645.4375 1285,645.5781 Q1284.3594,645.7344 1283.6563,645.7344 Q1281.1563,645.7344 1279.8281,644.0938 Q1278.5156,642.4375 1278.5156,639.3125 Q1278.5156,636.1875 1279.8281,634.5313 Q1281.1563,632.875 1283.6563,632.875 Q1284.3594,632.875 1285,633.0313 Q1285.6563,633.1875 1286.2188,633.4844 L1286.2188,636.2031 Q1285.5938,635.625 1285,635.3594 Q1284.4063,635.0781 1283.7813,635.0781 Q1282.4375,635.0781 1281.75,636.1563 Q1281.0625,637.2188 1281.0625,639.3125 Q1281.0625,641.4063 1281.75,642.4844 Q1282.4375,643.5469 1283.7813,643.5469 Q1284.4063,643.5469 1285,643.2813 Q1285.5938,643 1286.2188,642.4219 L1286.2188,645.1406 Z "/><text fill="#000000" font-family="sans-serif" font-size="12" font-weight="bold" lengthAdjust="spacingAndGlyphs" textLength="109" x="1303.75" y="643.6543">ParseException</text><line style="stroke: #A80036; stroke-width: 1.5;" x1="1147.5" x2="1536.5" y1="655.5" y2="655.5"/><line style="stroke: #A80036; stroke-width: 1.5;" x1="1147.5" x2="1536.5" y1="663.5" y2="663.5"/><text fill="#000000" font-family="sans-serif" font-size="11" lengthAdjust="spacingAndGlyphs" textLength="379" x="1152.5" y="677.7104">+ParseException(message: String, raw: String, cause: Throwable)</text><!--MD5=[0bf6cc7671acd830f68456d528990499]
class GlobalExceptionHandler--><rect fill="#FEFECE" filter="url(#f1m9cbnjux3xqs)" height="99.2188" id="GlobalExceptionHandler" style="stroke: #A80036; stroke-width: 1.5;" width="537" x="1073.5" y="322"/><ellipse cx="1253.25" cy="338" fill="#ADD1B2" rx="11" ry="11" style="stroke: #A80036; stroke-width: 1.0;"/><path d="M1256.2188,343.6406 Q1255.6406,343.9375 1255,344.0781 Q1254.3594,344.2344 1253.6563,344.2344 Q1251.1563,344.2344 1249.8281,342.5938 Q1248.5156,340.9375 1248.5156,337.8125 Q1248.5156,334.6875 1249.8281,333.0313 Q1251.1563,331.375 1253.6563,331.375 Q1254.3594,331.375 1255,331.5313 Q1255.6563,331.6875 1256.2188,331.9844 L1256.2188,334.7031 Q1255.5938,334.125 1255,333.8594 Q1254.4063,333.5781 1253.7813,333.5781 Q1252.4375,333.5781 1251.75,334.6563 Q1251.0625,335.7188 1251.0625,337.8125 Q1251.0625,339.9063 1251.75,340.9844 Q1252.4375,342.0469 1253.7813,342.0469 Q1254.4063,342.0469 1255,341.7813 Q1255.5938,341.5 1256.2188,340.9219 L1256.2188,343.6406 Z "/><text fill="#000000" font-family="sans-serif" font-size="12" font-weight="bold" lengthAdjust="spacingAndGlyphs" textLength="169" x="1273.75" y="342.1543">GlobalExceptionHandler</text><line style="stroke: #A80036; stroke-width: 1.5;" x1="1074.5" x2="1609.5" y1="354" y2="354"/><line style="stroke: #A80036; stroke-width: 1.5;" x1="1074.5" x2="1609.5" y1="362" y2="362"/><text fill="#000000" font-family="sans-serif" font-size="11" lengthAdjust="spacingAndGlyphs" textLength="525" x="1079.5" y="376.2104">+handleValidation(ex: MethodArgumentNotValidException): ResponseEntity&lt;ErrorResponse&gt;</text><text fill="#000000" font-family="sans-serif" font-size="11" lengthAdjust="spacingAndGlyphs" textLength="498" x="1079.5" y="389.0151">+handleLlmUnavailable(ex: LlmUnavailableException): ResponseEntity&lt;ErrorResponse&gt;</text><text fill="#000000" font-family="sans-serif" font-size="11" lengthAdjust="spacingAndGlyphs" textLength="423" x="1079.5" y="401.8198">+handleParseError(ex: ParseException): ResponseEntity&lt;ErrorResponse&gt;</text><text fill="#000000" font-family="sans-serif" font-size="11" lengthAdjust="spacingAndGlyphs" textLength="372" x="1079.5" y="414.6245">+handleGeneric(ex: Exception): ResponseEntity&lt;ErrorResponse&gt;</text><!--MD5=[5392e97adaaab1f1ca976cc794ef5ccc]
class ChatClient--><rect fill="#FEFECE" filter="url(#f1m9cbnjux3xqs)" height="66.7422" id="ChatClient" style="stroke: #A80036; stroke-width: 1.5;" width="228" x="781" y="620.5"/><ellipse cx="853.75" cy="639.4688" fill="#ADD1B2" rx="11" ry="11" style="stroke: #A80036; stroke-width: 1.0;"/><path d="M856.7188,645.1094 Q856.1406,645.4063 855.5,645.5469 Q854.8594,645.7031 854.1563,645.7031 Q851.6563,645.7031 850.3281,644.0625 Q849.0156,642.4063 849.0156,639.2813 Q849.0156,636.1563 850.3281,634.5 Q851.6563,632.8438 854.1563,632.8438 Q854.8594,632.8438 855.5,633 Q856.1563,633.1563 856.7188,633.4531 L856.7188,636.1719 Q856.0938,635.5938 855.5,635.3281 Q854.9063,635.0469 854.2813,635.0469 Q852.9375,635.0469 852.25,636.125 Q851.5625,637.1875 851.5625,639.2813 Q851.5625,641.375 852.25,642.4531 Q852.9375,643.5156 854.2813,643.5156 Q854.9063,643.5156 855.5,643.25 Q856.0938,642.9688 856.7188,642.3906 L856.7188,645.1094 Z "/><text fill="#000000" font-family="sans-serif" font-size="12" font-style="italic" lengthAdjust="spacingAndGlyphs" textLength="66" x="878.25" y="636.6387">«external»</text><text fill="#000000" font-family="sans-serif" font-size="12" font-weight="bold" lengthAdjust="spacingAndGlyphs" textLength="74" x="874.25" y="650.6074">ChatClient</text><line style="stroke: #A80036; stroke-width: 1.5;" x1="782" x2="1008" y1="658.4375" y2="658.4375"/><line style="stroke: #A80036; stroke-width: 1.5;" x1="782" x2="1008" y1="666.4375" y2="666.4375"/><text fill="#000000" font-family="sans-serif" font-size="11" lengthAdjust="spacingAndGlyphs" textLength="216" x="787" y="680.6479">+call(prompt: Prompt): ChatResponse</text><!--MD5=[5c6c7d52e42032554528404b62c1d271]
class RuntimeException--><rect fill="#FEFECE" filter="url(#f1m9cbnjux3xqs)" height="48" id="RuntimeException" style="stroke: #A80036; stroke-width: 1.5;" width="158" x="1472" y="825.5"/><ellipse cx="1487" cy="841.5" fill="#ADD1B2" rx="11" ry="11" style="stroke: #A80036; stroke-width: 1.0;"/><path d="M1489.9688,847.1406 Q1489.3906,847.4375 1488.75,847.5781 Q1488.1094,847.7344 1487.4063,847.7344 Q1484.9063,847.7344 1483.5781,846.0938 Q1482.2656,844.4375 1482.2656,841.3125 Q1482.2656,838.1875 1483.5781,836.5313 Q1484.9063,834.875 1487.4063,834.875 Q1488.1094,834.875 1488.75,835.0313 Q1489.4063,835.1875 1489.9688,835.4844 L1489.9688,838.2031 Q1489.3438,837.625 1488.75,837.3594 Q1488.1563,837.0781 1487.5313,837.0781 Q1486.1875,837.0781 1485.5,838.1563 Q1484.8125,839.2188 1484.8125,841.3125 Q1484.8125,843.4063 1485.5,844.4844 Q1486.1875,845.5469 1487.5313,845.5469 Q1488.1563,845.5469 1488.75,845.2813 Q1489.3438,845 1489.9688,844.4219 L1489.9688,847.1406 Z "/><text fill="#000000" font-family="sans-serif" font-size="12" font-weight="bold" lengthAdjust="spacingAndGlyphs" textLength="126" x="1501" y="845.6543">RuntimeException</text><line style="stroke: #A80036; stroke-width: 1.5;" x1="1473" x2="1629" y1="857.5" y2="857.5"/><line style="stroke: #A80036; stroke-width: 1.5;" x1="1473" x2="1629" y1="865.5" y2="865.5"/><!--MD5=[ca1d5d877907d9c8daa7d4c900f822cd]
link TextAnalysisController to TextAnalysisService--><path d="M489.5,145.05 C489.5,230.64 489.5,414 489.5,414 C489.5,414 515.75,414 515.75,414 " fill="none" id="TextAnalysisController-&gt;TextAnalysisService" style="stroke: #A80036; stroke-width: 1.0;"/><polygon fill="#A80036" points="520.75,414,511.75,410,515.75,414,511.75,418,520.75,414" style="stroke: #A80036; stroke-width: 1.0;"/><text fill="#000000" font-family="sans-serif" font-size="13" lengthAdjust="spacingAndGlyphs" textLength="30" x="631" y="190.0669">uses</text><!--MD5=[de755979e0835af4040eea6680d95e41]
link TextAnalysisService to ChatClient--><path d="M895,498.29 C895,498.29 895,615.46 895,615.46 " fill="none" id="TextAnalysisService-&gt;ChatClient" style="stroke: #A80036; stroke-width: 1.0;"/><polygon fill="#A80036" points="895,620.46,899,611.46,895,615.46,891,611.46,895,620.46" style="stroke: #A80036; stroke-width: 1.0;"/><text fill="#000000" font-family="sans-serif" font-size="13" lengthAdjust="spacingAndGlyphs" textLength="30" x="840" y="543.0669">uses</text><!--MD5=[7ae27f8c7621c233bd69bc5e794f8a12]
link TextAnalysisController to AnalyzeRequest--><path d="M458,145.31 C458,145.31 458,618.31 458,618.31 " fill="none" id="TextAnalysisController-&gt;AnalyzeRequest" style="stroke: #A80036; stroke-width: 1.0; stroke-dasharray: 7.0,7.0;"/><polygon fill="#A80036" points="458,623.31,462,614.31,458,618.31,454,614.31,458,623.31" style="stroke: #A80036; stroke-width: 1.0;"/><text fill="#000000" font-family="sans-serif" font-size="13" lengthAdjust="spacingAndGlyphs" textLength="50" x="435" y="376.0669">accepts</text><!--MD5=[c53aca6a522b75e76c47adcac053a723]
link TextAnalysisController to AnalysisResponse--><path d="M311,145.31 C311,145.31 311,592.58 311,592.58 " fill="none" id="TextAnalysisController-&gt;AnalysisResponse" style="stroke: #A80036; stroke-width: 1.0; stroke-dasharray: 7.0,7.0;"/><polygon fill="#A80036" points="311,597.58,315,588.58,311,592.58,307,588.58,311,597.58" style="stroke: #A80036; stroke-width: 1.0;"/><text fill="#000000" font-family="sans-serif" font-size="13" lengthAdjust="spacingAndGlyphs" textLength="46" x="293" y="376.0669">returns</text><!--MD5=[ad32168180a21f790fea3103b9123071]
link TextAnalysisController to ClassifyResponse--><path d="M216.25,145.31 C216.25,275.44 216.25,654 216.25,654 C216.25,654 200.69,654 200.69,654 " fill="none" id="TextAnalysisController-&gt;ClassifyResponse" style="stroke: #A80036; stroke-width: 1.0; stroke-dasharray: 7.0,7.0;"/><polygon fill="#A80036" points="195.69,654,204.69,658,200.69,654,204.69,650,195.69,654" style="stroke: #A80036; stroke-width: 1.0;"/><text fill="#000000" font-family="sans-serif" font-size="13" lengthAdjust="spacingAndGlyphs" textLength="46" x="146" y="376.0669">returns</text><!--MD5=[270934d3d87b53c52c8b791b5af52180]
link TextAnalysisService to AnalyzeRequest--><path d="M556,498.29 C556,498.29 556,618.39 556,618.39 " fill="none" id="TextAnalysisService-&gt;AnalyzeRequest" style="stroke: #A80036; stroke-width: 1.0; stroke-dasharray: 7.0,7.0;"/><polygon fill="#A80036" points="556,623.39,560,614.39,556,618.39,552,614.39,556,623.39" style="stroke: #A80036; stroke-width: 1.0;"/><text fill="#000000" font-family="sans-serif" font-size="13" lengthAdjust="spacingAndGlyphs" textLength="36" x="720" y="543.0669">reads</text><!--MD5=[ff4f054a32ac09bbd81f3d903df2316a]
link TextAnalysisService to AnalysisResponse--><path d="M538.5,498.06 C538.5,554.29 538.5,608 538.5,608 C538.5,608 396.53,608 396.53,608 " fill="none" id="TextAnalysisService-&gt;AnalysisResponse" style="stroke: #A80036; stroke-width: 1.0; stroke-dasharray: 7.0,7.0;"/><polygon fill="#A80036" points="391.53,608,400.53,612,396.53,608,400.53,604,391.53,608" style="stroke: #A80036; stroke-width: 1.0;"/><text fill="#000000" font-family="sans-serif" font-size="13" lengthAdjust="spacingAndGlyphs" textLength="59" x="535" y="543.0669">produces</text><!--MD5=[775f2984da1c27454c61d10aaad8d397]
link TextAnalysisService to ClassifyResponse--><path d="M520.65,330 C336.39,330 117,330 117,330 C117,330 117,605.98 117,605.98 " fill="none" id="TextAnalysisService-&gt;ClassifyResponse" style="stroke: #A80036; stroke-width: 1.0; stroke-dasharray: 7.0,7.0;"/><polygon fill="#A80036" points="117,610.98,121,601.98,117,605.98,113,601.98,117,610.98" style="stroke: #A80036; stroke-width: 1.0;"/><text fill="#000000" font-family="sans-serif" font-size="13" lengthAdjust="spacingAndGlyphs" textLength="59" x="351" y="543.0669">produces</text><!--MD5=[9b05ce65cd567ce25da1ffe4e606efe5]
link AnalysisResponse to Sentiment--><path d="M311,710.02 C311,710.02 311,801.21 311,801.21 " fill="none" id="AnalysisResponse-&gt;Sentiment" style="stroke: #A80036; stroke-width: 1.0;"/><polygon fill="#A80036" points="311,806.21,315,797.21,311,801.21,307,797.21,311,806.21" style="stroke: #A80036; stroke-width: 1.0;"/><text fill="#000000" font-family="sans-serif" font-size="13" lengthAdjust="spacingAndGlyphs" textLength="30" x="312" y="753.0669">uses</text><!--MD5=[a97e1626401b2b221c8875ffd03ef42f]
link ClassifyResponse to Category--><path d="M117,697.39 C117,697.39 117,781.95 117,781.95 " fill="none" id="ClassifyResponse-&gt;Category" style="stroke: #A80036; stroke-width: 1.0;"/><polygon fill="#A80036" points="117,786.95,121,777.95,117,781.95,113,777.95,117,786.95" style="stroke: #A80036; stroke-width: 1.0;"/><text fill="#000000" font-family="sans-serif" font-size="13" lengthAdjust="spacingAndGlyphs" textLength="30" x="118" y="753.0669">uses</text><!--MD5=[ea35923e8ca1c8141ec31639204c4231]
link TextAnalysisService to LlmUnavailableException--><path d="M1017.02,460 C1257.27,460 1585.5,460 1585.5,460 C1585.5,460 1585.5,618.26 1585.5,618.26 " fill="none" id="TextAnalysisService-&gt;LlmUnavailableException" style="stroke: #A80036; stroke-width: 1.0; stroke-dasharray: 7.0,7.0;"/><polygon fill="#A80036" points="1585.5,623.26,1589.5,614.26,1585.5,618.26,1581.5,614.26,1585.5,623.26" style="stroke: #A80036; stroke-width: 1.0;"/><text fill="#000000" font-family="sans-serif" font-size="13" lengthAdjust="spacingAndGlyphs" textLength="42" x="1199" y="543.0669">throws</text><!--MD5=[1a8012168eddcebc25b1856567c124b1]
link TextAnalysisService to ParseException--><path d="M1013,498.29 C1013,573.39 1013,654 1013,654 C1013,654 1141.34,654 1141.34,654 " fill="none" id="TextAnalysisService-&gt;ParseException" style="stroke: #A80036; stroke-width: 1.0; stroke-dasharray: 7.0,7.0;"/><polygon fill="#A80036" points="1146.34,654,1137.34,650,1141.34,654,1137.34,658,1146.34,654" style="stroke: #A80036; stroke-width: 1.0;"/><text fill="#000000" font-family="sans-serif" font-size="13" lengthAdjust="spacingAndGlyphs" textLength="42" x="1013" y="543.0669">throws</text><!--MD5=[9e1ed9971e8d7ffa4c6c6b0d9bba0ebd]
link GlobalExceptionHandler to LlmUnavailableException--><path d="M1598,421.03 C1598,421.03 1598,618.3 1598,618.3 " fill="none" id="GlobalExceptionHandler-&gt;LlmUnavailableException" style="stroke: #A80036; stroke-width: 1.0; stroke-dasharray: 7.0,7.0;"/><polygon fill="#A80036" points="1598,623.3,1602,614.3,1598,618.3,1594,614.3,1598,623.3" style="stroke: #A80036; stroke-width: 1.0;"/><text fill="#000000" font-family="sans-serif" font-size="13" lengthAdjust="spacingAndGlyphs" textLength="50" x="1597" y="543.0669">handles</text><!--MD5=[51eead38ad3f0149235fc290e046e670]
link GlobalExceptionHandler to ParseException--><path d="M1342,421.03 C1342,421.03 1342,618.3 1342,618.3 " fill="none" id="GlobalExceptionHandler-&gt;ParseException" style="stroke: #A80036; stroke-width: 1.0; stroke-dasharray: 7.0,7.0;"/><polygon fill="#A80036" points="1342,623.3,1346,614.3,1342,618.3,1338,614.3,1342,623.3" style="stroke: #A80036; stroke-width: 1.0;"/><text fill="#000000" font-family="sans-serif" font-size="13" lengthAdjust="spacingAndGlyphs" textLength="50" x="1343" y="543.0669">handles</text><!--MD5=[d7dd3d784598f73100c39d2df611899e]
link GlobalExceptionHandler to ErrorResponse--><path d="M1097.83,421.13 C1097.83,473.34 1097.83,548 1097.83,548 C1097.83,548 677,548 677,548 C677,548 677,611.93 677,611.93 " fill="none" id="GlobalExceptionHandler-&gt;ErrorResponse" style="stroke: #A80036; stroke-width: 1.0; stroke-dasharray: 7.0,7.0;"/><polygon fill="#A80036" points="677,616.93,681,607.93,677,611.93,673,607.93,677,616.93" style="stroke: #A80036; stroke-width: 1.0;"/><text fill="#000000" font-family="sans-serif" font-size="13" lengthAdjust="spacingAndGlyphs" textLength="59" x="912" y="543.0669">produces</text><!--MD5=[0e46dead6b18754903429f3c5972c8ce]
link GlobalExceptionHandler to ErrorCode--><path d="M1122.17,421.2 C1122.17,537.19 1122.17,816 1122.17,816 C1122.17,816 744.51,816 744.51,816 " fill="none" id="GlobalExceptionHandler-&gt;ErrorCode" style="stroke: #A80036; stroke-width: 1.0; stroke-dasharray: 7.0,7.0;"/><polygon fill="#A80036" points="739.51,816,748.51,820,744.51,816,748.51,812,739.51,816" style="stroke: #A80036; stroke-width: 1.0;"/><text fill="#000000" font-family="sans-serif" font-size="13" lengthAdjust="spacingAndGlyphs" textLength="30" x="1080" y="658.5669">uses</text><!--MD5=[3f09eda78f7c99815336a97b2112fc12]
link ErrorResponse to ErrorCode--><path d="M683,691.23 C683,691.23 683,801.27 683,801.27 " fill="none" id="ErrorResponse-&gt;ErrorCode" style="stroke: #A80036; stroke-width: 1.0;"/><polygon fill="#A80036" points="683,806.27,687,797.27,683,801.27,679,797.27,683,806.27" style="stroke: #A80036; stroke-width: 1.0;"/><text fill="#000000" font-family="sans-serif" font-size="13" lengthAdjust="spacingAndGlyphs" textLength="30" x="681" y="753.0669">uses</text><!--MD5=[98ca6bfa44ecdefc6a5bf4fa2084c2a8]
link LlmUnavailableException to RuntimeException--><path d="M1601.5,684.55 C1601.5,684.55 1601.5,805.33 1601.5,805.33 " fill="none" id="LlmUnavailableException-&gt;RuntimeException" style="stroke: #A80036; stroke-width: 1.0;"/><polygon fill="none" points="1608.5,805.33,1601.5,825.33,1594.5,805.33,1608.5,805.33" style="stroke: #A80036; stroke-width: 1.0;"/><!--MD5=[12683b31aa232a81654aa52f938076d4]
link ParseException to RuntimeException--><path d="M1504.75,684.55 C1504.75,684.55 1504.75,805.33 1504.75,805.33 " fill="none" id="ParseException-&gt;RuntimeException" style="stroke: #A80036; stroke-width: 1.0;"/><polygon fill="none" points="1511.75,805.33,1504.75,825.33,1497.75,805.33,1511.75,805.33" style="stroke: #A80036; stroke-width: 1.0;"/><!--MD5=[2c1c62e48461d1a297bd8793d51067ed]
@startuml class-diagram

skinparam classAttributeIconSize 0
skinparam classFontStyle bold
skinparam linetype ortho

package "controller" {
  class TextAnalysisController {
    - service: TextAnalysisService
    + analyze(request: AnalyzeRequest): AnalysisResponse
    + classify(request: AnalyzeRequest): ClassifyResponse
  }
}

package "config" {
  class LlmClientConfig {
    + restClientBuilder(connectMs: int, readMs: int): RestClient.Builder
  }
}

package "service" {
  class TextAnalysisService {
    - chatClient: ChatClient
    - objectMapper: ObjectMapper
    - systemPrompt: String
    - classifyPrompt: String
    - fallbackModel: String
    - maxAttempts: int
    - baseDelayMs: long
    - random: Random
    + analyze(request: AnalyzeRequest): AnalysisResponse
    + classify(request: AnalyzeRequest): ClassifyResponse
    - attemptAnalyze(request: AnalyzeRequest, modelOverride: String): AnalysisResponse
    - attemptClassify(request: AnalyzeRequest, modelOverride: String): ClassifyResponse
    - parseResponse(raw: String): AnalysisResponse
    - classifyResponse(raw: String): ClassifyResponse
    - sleepBeforeRetry(attempt: int, e: HttpClientErrorException): void
    - logUsage(response: ChatResponse, latencyMs: long, isFallback: boolean): void
  }
}

package "dto" {
  class AnalyzeRequest {
    - text: String
  }

  class AnalysisResponse {
    - summary: String
    - sentiment: Sentiment
    - confidence: double
    - keyTopics: List<String>
    - wordCountEstimate: int
  }

  enum Sentiment {
    positive
    negative
    neutral
  }

  class ClassifyResponse {
    - reasoning: String
    - category: Category
    - confidence: double
  }

  enum Category {
    technology
    politics
    sports
    business
    health
    other
  }

  class ErrorResponse {
    - error: String
    - code: ErrorCode
  }

  enum ErrorCode {
    INVALID_INPUT
    LLM_UNAVAILABLE
    PARSE_ERROR
  }
}

package "exception" {
  class LlmUnavailableException {
    + LlmUnavailableException(message: String, cause: Throwable)
  }

  class ParseException {
    + ParseException(message: String, raw: String, cause: Throwable)
  }
}

package "exception.handler" {
  class GlobalExceptionHandler {
    + handleValidation(ex: MethodArgumentNotValidException): ResponseEntity<ErrorResponse>
    + handleLlmUnavailable(ex: LlmUnavailableException): ResponseEntity<ErrorResponse>
    + handleParseError(ex: ParseException): ResponseEntity<ErrorResponse>
    + handleGeneric(ex: Exception): ResponseEntity<ErrorResponse>
  }
}

TextAnalysisController - -> TextAnalysisService : uses

TextAnalysisService - -> ChatClient : uses

TextAnalysisController ..> AnalyzeRequest : accepts
TextAnalysisController ..> AnalysisResponse : returns
TextAnalysisController ..> ClassifyResponse : returns

TextAnalysisService ..> AnalyzeRequest : reads
TextAnalysisService ..> AnalysisResponse : produces
TextAnalysisService ..> ClassifyResponse : produces

AnalysisResponse - -> Sentiment : uses
ClassifyResponse - -> Category : uses

TextAnalysisService ..> LlmUnavailableException : «throws»
TextAnalysisService ..> ParseException : «throws»

GlobalExceptionHandler ..> LlmUnavailableException : «handles»
GlobalExceptionHandler ..> ParseException : «handles»
GlobalExceptionHandler ..> ErrorResponse : produces
GlobalExceptionHandler ..> ErrorCode : uses

ErrorResponse - -> ErrorCode : uses

LlmUnavailableException - -|> RuntimeException
ParseException - -|> RuntimeException

class ChatClient <<external>> {
  + call(prompt: Prompt): ChatResponse
}

@enduml

PlantUML version 1.2020.02(Sun Mar 01 10:22:07 UTC 2020)
(GPL source distribution)
Java Runtime: OpenJDK Runtime Environment
JVM: OpenJDK 64-Bit Server VM
Java Version: 17.0.19+10
Operating System: Linux
Default Encoding: UTF-8
Language: en
Country: null
--></g></svg>