<?xml version="1.0" encoding="UTF-8" standalone="no"?><svg xmlns="http://www.w3.org/2000/svg" xmlns:xlink="http://www.w3.org/1999/xlink" contentScriptType="application/ecmascript" contentStyleType="text/css" height="953px" preserveAspectRatio="none" style="width:2435px;height:953px;" version="1.1" viewBox="0 0 2435 953" width="2435px" zoomAndPan="magnify"><defs><filter height="300%" id="f1iepxmamrbwy7" width="300%" x="-1" y="-1"><feGaussianBlur result="blurOut" stdDeviation="2.0"/><feColorMatrix in="blurOut" result="blurOut2" type="matrix" values="0 0 0 0 0 0 0 0 0 0 0 0 0 0 0 0 0 0 .4 0"/><feOffset dx="4.0" dy="4.0" in="blurOut2" result="blurOut3"/><feBlend in="SourceGraphic" in2="blurOut3" mode="normal"/></filter></defs><g><!--MD5=[10ea673caf457862023e152271927b45]
cluster controller--><polygon fill="#FFFFFF" filter="url(#f1iepxmamrbwy7)" points="570,24,653,24,660,46.2969,924,46.2969,924,161,570,161,570,24" style="stroke: #000000; stroke-width: 1.5;"/><line style="stroke: #000000; stroke-width: 1.5;" x1="570" x2="660" y1="46.2969" y2="46.2969"/><text fill="#000000" font-family="sans-serif" font-size="14" font-weight="bold" lengthAdjust="spacingAndGlyphs" textLength="77" x="574" y="38.9951">controller</text><!--MD5=[77140a42179fe8241cde5d77dd05aadc]
cluster config--><polygon fill="#FFFFFF" filter="url(#f1iepxmamrbwy7)" points="22,312.5,77,312.5,84,334.7969,450,334.7969,450,726,22,726,22,312.5" style="stroke: #000000; stroke-width: 1.5;"/><line style="stroke: #000000; stroke-width: 1.5;" x1="22" x2="84" y1="334.7969" y2="334.7969"/><text fill="#000000" font-family="sans-serif" font-size="14" font-weight="bold" lengthAdjust="spacingAndGlyphs" textLength="49" x="26" y="327.4951">config</text><!--MD5=[7579d5565d2521d5936cec86ed3dadee]
cluster service--><polygon fill="#FFFFFF" filter="url(#f1iepxmamrbwy7)" points="877,210,941,210,948,232.2969,1491,232.2969,1491,527,877,527,877,210" style="stroke: #000000; stroke-width: 1.5;"/><line style="stroke: #000000; stroke-width: 1.5;" x1="877" x2="948" y1="232.2969" y2="232.2969"/><text fill="#000000" font-family="sans-serif" font-size="14" font-weight="bold" lengthAdjust="spacingAndGlyphs" textLength="58" x="881" y="224.9951">service</text><!--MD5=[e6eced616a98d47334dd1aaaa829ffd5]
cluster dto--><polygon fill="#FFFFFF" filter="url(#f1iepxmamrbwy7)" points="474,576,506,576,513,598.2969,1214,598.2969,1214,941,474,941,474,576" style="stroke: #000000; stroke-width: 1.5;"/><line style="stroke: #000000; stroke-width: 1.5;" x1="474" x2="513" y1="598.2969" y2="598.2969"/><text fill="#000000" font-family="sans-serif" font-size="14" font-weight="bold" lengthAdjust="spacingAndGlyphs" textLength="26" x="478" y="590.9951">dto</text><!--MD5=[11f03a07a4422c8eb8f650dbf201ac41]
cluster exception--><polygon fill="#FFFFFF" filter="url(#f1iepxmamrbwy7)" points="1582,601.5,1666,601.5,1673,623.7969,2413,623.7969,2413,713.5,1582,713.5,1582,601.5" style="stroke: #000000; stroke-width: 1.5;"/><line style="stroke: #000000; stroke-width: 1.5;" x1="1582" x2="1673" y1="623.7969" y2="623.7969"/><text fill="#000000" font-family="sans-serif" font-size="14" font-weight="bold" lengthAdjust="spacingAndGlyphs" textLength="78" x="1586" y="616.4951">exception</text><!--MD5=[5b7d7b6f636429b28b22fd98dc46cd1b]
cluster exception.handler--><polygon fill="#FFFFFF" filter="url(#f1iepxmamrbwy7)" points="1515,293.5,1664,293.5,1671,315.7969,2085,315.7969,2085,443.5,1515,443.5,1515,293.5" style="stroke: #000000; stroke-width: 1.5;"/><line style="stroke: #000000; stroke-width: 1.5;" x1="1515" x2="1671" y1="315.7969" y2="315.7969"/><text fill="#000000" font-family="sans-serif" font-size="14" font-weight="bold" lengthAdjust="spacingAndGlyphs" textLength="143" x="1519" y="308.4951">exception.handler</text><!--MD5=[07d2bcfdd1f5b6267d4746aeadaa7923]
class TextAnalysisController--><rect fill="#FEFECE" filter="url(#f1iepxmamrbwy7)" height="86.4141" id="TextAnalysisController" style="stroke: #A80036; stroke-width: 1.5;" width="322" x="586" y="59"/><ellipse cx="662.75" cy="75" fill="#ADD1B2" rx="11" ry="11" style="stroke: #A80036; stroke-width: 1.0;"/><path d="M665.7188,80.6406 Q665.1406,80.9375 664.5,81.0781 Q663.8594,81.2344 663.1563,81.2344 Q660.6563,81.2344 659.3281,79.5938 Q658.0156,77.9375 658.0156,74.8125 Q658.0156,71.6875 659.3281,70.0313 Q660.6563,68.375 663.1563,68.375 Q663.8594,68.375 664.5,68.5313 Q665.1563,68.6875 665.7188,68.9844 L665.7188,71.7031 Q665.0938,71.125 664.5,70.8594 Q663.9063,70.5781 663.2813,70.5781 Q661.9375,70.5781 661.25,71.6563 Q660.5625,72.7188 660.5625,74.8125 Q660.5625,76.9063 661.25,77.9844 Q661.9375,79.0469 663.2813,79.0469 Q663.9063,79.0469 664.5,78.7813 Q665.0938,78.5 665.7188,77.9219 L665.7188,80.6406 Z "/><text fill="#000000" font-family="sans-serif" font-size="12" font-weight="bold" lengthAdjust="spacingAndGlyphs" textLength="160" x="683.25" y="79.1543">TextAnalysisController</text><line style="stroke: #A80036; stroke-width: 1.5;" x1="587" x2="907" y1="91" y2="91"/><text fill="#000000" font-family="sans-serif" font-size="11" lengthAdjust="spacingAndGlyphs" textLength="166" x="592" y="105.2104">-service: TextAnalysisService</text><line style="stroke: #A80036; stroke-width: 1.5;" x1="587" x2="907" y1="111.8047" y2="111.8047"/><text fill="#000000" font-family="sans-serif" font-size="11" lengthAdjust="spacingAndGlyphs" textLength="310" x="592" y="126.0151">+analyze(request: AnalyzeRequest): AnalysisResponse</text><text fill="#000000" font-family="sans-serif" font-size="11" lengthAdjust="spacingAndGlyphs" textLength="309" x="592" y="138.8198">+classify(request: AnalyzeRequest): ClassifyResponse</text><!--MD5=[27cefec769004c2fd58705b9c7a23b52]
class LlmClientConfig--><rect fill="#FEFECE" filter="url(#f1iepxmamrbwy7)" height="60.8047" id="LlmClientConfig" style="stroke: #A80036; stroke-width: 1.5;" width="396" x="38" y="347.5"/><ellipse cx="176.75" cy="363.5" fill="#ADD1B2" rx="11" ry="11" style="stroke: #A80036; stroke-width: 1.0;"/><path d="M179.7188,369.1406 Q179.1406,369.4375 178.5,369.5781 Q177.8594,369.7344 177.1563,369.7344 Q174.6563,369.7344 173.3281,368.0938 Q172.0156,366.4375 172.0156,363.3125 Q172.0156,360.1875 173.3281,358.5313 Q174.6563,356.875 177.1563,356.875 Q177.8594,356.875 178.5,357.0313 Q179.1563,357.1875 179.7188,357.4844 L179.7188,360.2031 Q179.0938,359.625 178.5,359.3594 Q177.9063,359.0781 177.2813,359.0781 Q175.9375,359.0781 175.25,360.1563 Q174.5625,361.2188 174.5625,363.3125 Q174.5625,365.4063 175.25,366.4844 Q175.9375,367.5469 177.2813,367.5469 Q177.9063,367.5469 178.5,367.2813 Q179.0938,367 179.7188,366.4219 L179.7188,369.1406 Z "/><text fill="#000000" font-family="sans-serif" font-size="12" font-weight="bold" lengthAdjust="spacingAndGlyphs" textLength="110" x="197.25" y="367.6543">LlmClientConfig</text><line style="stroke: #A80036; stroke-width: 1.5;" x1="39" x2="433" y1="379.5" y2="379.5"/><line style="stroke: #A80036; stroke-width: 1.5;" x1="39" x2="433" y1="387.5" y2="387.5"/><text fill="#000000" font-family="sans-serif" font-size="11" lengthAdjust="spacingAndGlyphs" textLength="384" x="44" y="401.7104">+restClientBuilder(llmProperties: LlmProperties): RestClient.Builder</text><!--MD5=[00c93ae8a47f5ced8420fac9f4cb4f74]
class LlmProperties--><rect fill="#FEFECE" filter="url(#f1iepxmamrbwy7)" height="86.4141" id="LlmProperties" style="stroke: #A80036; stroke-width: 1.5;" width="149" x="254.5" y="624"/><ellipse cx="277.6" cy="640" fill="#ADD1B2" rx="11" ry="11" style="stroke: #A80036; stroke-width: 1.0;"/><path d="M280.5688,645.6406 Q279.9906,645.9375 279.35,646.0781 Q278.7094,646.2344 278.0063,646.2344 Q275.5063,646.2344 274.1781,644.5938 Q272.8656,642.9375 272.8656,639.8125 Q272.8656,636.6875 274.1781,635.0313 Q275.5063,633.375 278.0063,633.375 Q278.7094,633.375 279.35,633.5313 Q280.0063,633.6875 280.5688,633.9844 L280.5688,636.7031 Q279.9438,636.125 279.35,635.8594 Q278.7563,635.5781 278.1313,635.5781 Q276.7875,635.5781 276.1,636.6563 Q275.4125,637.7188 275.4125,639.8125 Q275.4125,641.9063 276.1,642.9844 Q276.7875,644.0469 278.1313,644.0469 Q278.7563,644.0469 279.35,643.7813 Q279.9438,643.5 280.5688,642.9219 L280.5688,645.6406 Z "/><text fill="#000000" font-family="sans-serif" font-size="12" font-weight="bold" lengthAdjust="spacingAndGlyphs" textLength="99" x="293.4" y="644.1543">LlmProperties</text><line style="stroke: #A80036; stroke-width: 1.5;" x1="255.5" x2="402.5" y1="656" y2="656"/><text fill="#000000" font-family="sans-serif" font-size="11" lengthAdjust="spacingAndGlyphs" textLength="123" x="260.5" y="670.2104">-models: ModelConfig</text><text fill="#000000" font-family="sans-serif" font-size="11" lengthAdjust="spacingAndGlyphs" textLength="104" x="260.5" y="683.0151">-retry: RetryConfig</text><text fill="#000000" font-family="sans-serif" font-size="11" lengthAdjust="spacingAndGlyphs" textLength="137" x="260.5" y="695.8198">-timeout: TimeoutConfig</text><line style="stroke: #A80036; stroke-width: 1.5;" x1="255.5" x2="402.5" y1="702.4141" y2="702.4141"/><!--MD5=[0be206d0152edf725601f1f50a97a3b2]
class TextAnalysisService--><rect fill="#FEFECE" filter="url(#f1iepxmamrbwy7)" height="265.6797" id="TextAnalysisService" style="stroke: #A80036; stroke-width: 1.5;" width="582" x="893" y="245"/><ellipse cx="1109.75" cy="261" fill="#ADD1B2" rx="11" ry="11" style="stroke: #A80036; stroke-width: 1.0;"/><path d="M1112.7188,266.6406 Q1112.1406,266.9375 1111.5,267.0781 Q1110.8594,267.2344 1110.1563,267.2344 Q1107.6563,267.2344 1106.3281,265.5938 Q1105.0156,263.9375 1105.0156,260.8125 Q1105.0156,257.6875 1106.3281,256.0313 Q1107.6563,254.375 1110.1563,254.375 Q1110.8594,254.375 1111.5,254.5313 Q1112.1563,254.6875 1112.7188,254.9844 L1112.7188,257.7031 Q1112.0938,257.125 1111.5,256.8594 Q1110.9063,256.5781 1110.2813,256.5781 Q1108.9375,256.5781 1108.25,257.6563 Q1107.5625,258.7188 1107.5625,260.8125 Q1107.5625,262.9063 1108.25,263.9844 Q1108.9375,265.0469 1110.2813,265.0469 Q1110.9063,265.0469 1111.5,264.7813 Q1112.0938,264.5 1112.7188,263.9219 L1112.7188,266.6406 Z "/><text fill="#000000" font-family="sans-serif" font-size="12" font-weight="bold" lengthAdjust="spacingAndGlyphs" textLength="140" x="1130.25" y="265.1543">TextAnalysisService</text><line style="stroke: #A80036; stroke-width: 1.5;" x1="894" x2="1474" y1="277" y2="277"/><text fill="#000000" font-family="sans-serif" font-size="11" lengthAdjust="spacingAndGlyphs" textLength="126" x="899" y="291.2104">-chatClient: ChatClient</text><text fill="#000000" font-family="sans-serif" font-size="11" lengthAdjust="spacingAndGlyphs" textLength="166" x="899" y="304.0151">-objectMapper: ObjectMapper</text><text fill="#000000" font-family="sans-serif" font-size="11" lengthAdjust="spacingAndGlyphs" textLength="129" x="899" y="316.8198">-systemPrompt: String</text><text fill="#000000" font-family="sans-serif" font-size="11" lengthAdjust="spacingAndGlyphs" textLength="130" x="899" y="329.6245">-classifyPrompt: String</text><text fill="#000000" font-family="sans-serif" font-size="11" lengthAdjust="spacingAndGlyphs" textLength="122" x="899" y="342.4292">-fallbackModel: String</text><text fill="#000000" font-family="sans-serif" font-size="11" lengthAdjust="spacingAndGlyphs" textLength="101" x="899" y="355.2339">-maxAttempts: int</text><text fill="#000000" font-family="sans-serif" font-size="11" lengthAdjust="spacingAndGlyphs" textLength="111" x="899" y="368.0386">-baseDelayMs: long</text><text fill="#000000" font-family="sans-serif" font-size="11" lengthAdjust="spacingAndGlyphs" textLength="102" x="899" y="380.8433">-random: Random</text><line style="stroke: #A80036; stroke-width: 1.5;" x1="894" x2="1474" y1="387.4375" y2="387.4375"/><text fill="#000000" font-family="sans-serif" font-size="11" lengthAdjust="spacingAndGlyphs" textLength="310" x="899" y="401.6479">+analyze(request: AnalyzeRequest): AnalysisResponse</text><text fill="#000000" font-family="sans-serif" font-size="11" lengthAdjust="spacingAndGlyphs" textLength="309" x="899" y="414.4526">+classify(request: AnalyzeRequest): ClassifyResponse</text><text fill="#000000" font-family="sans-serif" font-size="11" lengthAdjust="spacingAndGlyphs" textLength="483" x="899" y="427.2573">-attemptAnalyze(request: AnalyzeRequest, modelOverride: String): AnalysisResponse</text><text fill="#000000" font-family="sans-serif" font-size="11" lengthAdjust="spacingAndGlyphs" textLength="484" x="899" y="440.062">-attemptClassify(request: AnalyzeRequest, modelOverride: String): ClassifyResponse</text><text fill="#000000" font-family="sans-serif" font-size="11" lengthAdjust="spacingAndGlyphs" textLength="275" x="899" y="452.8667">-parseResponse(raw: String): AnalysisResponse</text><text fill="#000000" font-family="sans-serif" font-size="11" lengthAdjust="spacingAndGlyphs" textLength="283" x="899" y="465.6714">-classifyResponse(raw: String): ClassifyResponse</text><text fill="#000000" font-family="sans-serif" font-size="11" lengthAdjust="spacingAndGlyphs" textLength="368" x="899" y="478.4761">-sleepBeforeRetry(attempt: int, e: HttpClientErrorException): void</text><text fill="#000000" font-family="sans-serif" font-size="11" lengthAdjust="spacingAndGlyphs" textLength="570" x="899" y="491.2808">-logUsage(response: ChatResponse, latencyMs: long, isFallback: boolean, modelName: String): void</text><text fill="#000000" font-family="sans-serif" font-size="11" lengthAdjust="spacingAndGlyphs" textLength="408" x="899" y="504.0854">-findPricing(modelName: String): Optional&lt;LlmProperties.ModelPricing&gt;</text><!--MD5=[70c56c1f9ac4dc4ae10652bd270759c3]
class AnalyzeRequest--><rect fill="#FEFECE" filter="url(#f1iepxmamrbwy7)" height="60.8047" id="AnalyzeRequest" style="stroke: #A80036; stroke-width: 1.5;" width="147" x="878.5" y="636.5"/><ellipse cx="893.5" cy="652.5" fill="#ADD1B2" rx="11" ry="11" style="stroke: #A80036; stroke-width: 1.0;"/><path d="M896.4688,658.1406 Q895.8906,658.4375 895.25,658.5781 Q894.6094,658.7344 893.9063,658.7344 Q891.4063,658.7344 890.0781,657.0938 Q888.7656,655.4375 888.7656,652.3125 Q888.7656,649.1875 890.0781,647.5313 Q891.4063,645.875 893.9063,645.875 Q894.6094,645.875 895.25,646.0313 Q895.9063,646.1875 896.4688,646.4844 L896.4688,649.2031 Q895.8438,648.625 895.25,648.3594 Q894.6563,648.0781 894.0313,648.0781 Q892.6875,648.0781 892,649.1563 Q891.3125,650.2188 891.3125,652.3125 Q891.3125,654.4063 892,655.4844 Q892.6875,656.5469 894.0313,656.5469 Q894.6563,656.5469 895.25,656.2813 Q895.8438,656 896.4688,655.4219 L896.4688,658.1406 Z "/><text fill="#000000" font-family="sans-serif" font-size="12" font-weight="bold" lengthAdjust="spacingAndGlyphs" textLength="115" x="907.5" y="656.6543">AnalyzeRequest</text><line style="stroke: #A80036; stroke-width: 1.5;" x1="879.5" x2="1024.5" y1="668.5" y2="668.5"/><text fill="#000000" font-family="sans-serif" font-size="11" lengthAdjust="spacingAndGlyphs" textLength="67" x="884.5" y="682.7104">-text: String</text><line style="stroke: #A80036; stroke-width: 1.5;" x1="879.5" x2="1024.5" y1="689.3047" y2="689.3047"/><!--MD5=[5868ba203e3e21a7282960d5a1b712b7]
class AnalysisResponse--><rect fill="#FEFECE" filter="url(#f1iepxmamrbwy7)" height="112.0234" id="AnalysisResponse" style="stroke: #A80036; stroke-width: 1.5;" width="161" x="490.5" y="611"/><ellipse cx="505.5" cy="627" fill="#ADD1B2" rx="11" ry="11" style="stroke: #A80036; stroke-width: 1.0;"/><path d="M508.4688,632.6406 Q507.8906,632.9375 507.25,633.0781 Q506.6094,633.2344 505.9063,633.2344 Q503.4063,633.2344 502.0781,631.5938 Q500.7656,629.9375 500.7656,626.8125 Q500.7656,623.6875 502.0781,622.0313 Q503.4063,620.375 505.9063,620.375 Q506.6094,620.375 507.25,620.5313 Q507.9063,620.6875 508.4688,620.9844 L508.4688,623.7031 Q507.8438,623.125 507.25,622.8594 Q506.6563,622.5781 506.0313,622.5781 Q504.6875,622.5781 504,623.6563 Q503.3125,624.7188 503.3125,626.8125 Q503.3125,628.9063 504,629.9844 Q504.6875,631.0469 506.0313,631.0469 Q506.6563,631.0469 507.25,630.7813 Q507.8438,630.5 508.4688,629.9219 L508.4688,632.6406 Z "/><text fill="#000000" font-family="sans-serif" font-size="12" font-weight="bold" lengthAdjust="spacingAndGlyphs" textLength="129" x="519.5" y="631.1543">AnalysisResponse</text><line style="stroke: #A80036; stroke-width: 1.5;" x1="491.5" x2="650.5" y1="643" y2="643"/><text fill="#000000" font-family="sans-serif" font-size="11" lengthAdjust="spacingAndGlyphs" textLength="100" x="496.5" y="657.2104">-summary: String</text><text fill="#000000" font-family="sans-serif" font-size="11" lengthAdjust="spacingAndGlyphs" textLength="127" x="496.5" y="670.0151">-sentiment: Sentiment</text><text fill="#000000" font-family="sans-serif" font-size="11" lengthAdjust="spacingAndGlyphs" textLength="111" x="496.5" y="682.8198">-confidence: double</text><text fill="#000000" font-family="sans-serif" font-size="11" lengthAdjust="spacingAndGlyphs" textLength="140" x="496.5" y="695.6245">-keyTopics: List&lt;String&gt;</text><text fill="#000000" font-family="sans-serif" font-size="11" lengthAdjust="spacingAndGlyphs" textLength="137" x="496.5" y="708.4292">-wordCountEstimate: int</text><line style="stroke: #A80036; stroke-width: 1.5;" x1="491.5" x2="650.5" y1="715.0234" y2="715.0234"/><!--MD5=[123750d28b653c6a0f001854481179bc]
class Sentiment--><rect fill="#FEFECE" filter="url(#f1iepxmamrbwy7)" height="86.4141" id="Sentiment" style="stroke: #A80036; stroke-width: 1.5;" width="105" x="518.5" y="819.5"/><ellipse cx="533.5" cy="835.5" fill="#EB937F" rx="11" ry="11" style="stroke: #A80036; stroke-width: 1.0;"/><path d="M537.6094,841.5 L529.8906,841.5 L529.8906,829.1094 L537.6094,829.1094 L537.6094,831.2656 L532.3438,831.2656 L532.3438,833.9375 L537.1094,833.9375 L537.1094,836.0938 L532.3438,836.0938 L532.3438,839.3438 L537.6094,839.3438 L537.6094,841.5 Z "/><text fill="#000000" font-family="sans-serif" font-size="12" font-weight="bold" lengthAdjust="spacingAndGlyphs" textLength="73" x="547.5" y="839.6543">Sentiment</text><line style="stroke: #A80036; stroke-width: 1.5;" x1="519.5" x2="622.5" y1="851.5" y2="851.5"/><text fill="#000000" font-family="sans-serif" font-size="11" lengthAdjust="spacingAndGlyphs" textLength="44" x="524.5" y="865.7104">positive</text><text fill="#000000" font-family="sans-serif" font-size="11" lengthAdjust="spacingAndGlyphs" textLength="48" x="524.5" y="878.5151">negative</text><text fill="#000000" font-family="sans-serif" font-size="11" lengthAdjust="spacingAndGlyphs" textLength="40" x="524.5" y="891.3198">neutral</text><line style="stroke: #A80036; stroke-width: 1.5;" x1="519.5" x2="622.5" y1="897.9141" y2="897.9141"/><!--MD5=[276c5612e8e7531d993b7cca45363ed2]
class ClassifyResponse--><rect fill="#FEFECE" filter="url(#f1iepxmamrbwy7)" height="86.4141" id="ClassifyResponse" style="stroke: #A80036; stroke-width: 1.5;" width="157" x="686.5" y="624"/><ellipse cx="701.5" cy="640" fill="#ADD1B2" rx="11" ry="11" style="stroke: #A80036; stroke-width: 1.0;"/><path d="M704.4688,645.6406 Q703.8906,645.9375 703.25,646.0781 Q702.6094,646.2344 701.9063,646.2344 Q699.4063,646.2344 698.0781,644.5938 Q696.7656,642.9375 696.7656,639.8125 Q696.7656,636.6875 698.0781,635.0313 Q699.4063,633.375 701.9063,633.375 Q702.6094,633.375 703.25,633.5313 Q703.9063,633.6875 704.4688,633.9844 L704.4688,636.7031 Q703.8438,636.125 703.25,635.8594 Q702.6563,635.5781 702.0313,635.5781 Q700.6875,635.5781 700,636.6563 Q699.3125,637.7188 699.3125,639.8125 Q699.3125,641.9063 700,642.9844 Q700.6875,644.0469 702.0313,644.0469 Q702.6563,644.0469 703.25,643.7813 Q703.8438,643.5 704.4688,642.9219 L704.4688,645.6406 Z "/><text fill="#000000" font-family="sans-serif" font-size="12" font-weight="bold" lengthAdjust="spacingAndGlyphs" textLength="125" x="715.5" y="644.1543">ClassifyResponse</text><line style="stroke: #A80036; stroke-width: 1.5;" x1="687.5" x2="842.5" y1="656" y2="656"/><text fill="#000000" font-family="sans-serif" font-size="11" lengthAdjust="spacingAndGlyphs" textLength="103" x="692.5" y="670.2104">-reasoning: String</text><text fill="#000000" font-family="sans-serif" font-size="11" lengthAdjust="spacingAndGlyphs" textLength="112" x="692.5" y="683.0151">-category: Category</text><text fill="#000000" font-family="sans-serif" font-size="11" lengthAdjust="spacingAndGlyphs" textLength="111" x="692.5" y="695.8198">-confidence: double</text><line style="stroke: #A80036; stroke-width: 1.5;" x1="687.5" x2="842.5" y1="702.4141" y2="702.4141"/><!--MD5=[a96594a83e2ecdc78cbf17c2ddf01934]
class Category--><rect fill="#FEFECE" filter="url(#f1iepxmamrbwy7)" height="124.8281" id="Category" style="stroke: #A80036; stroke-width: 1.5;" width="97" x="716.5" y="800"/><ellipse cx="731.5" cy="816" fill="#EB937F" rx="11" ry="11" style="stroke: #A80036; stroke-width: 1.0;"/><path d="M735.6094,822 L727.8906,822 L727.8906,809.6094 L735.6094,809.6094 L735.6094,811.7656 L730.3438,811.7656 L730.3438,814.4375 L735.1094,814.4375 L735.1094,816.5938 L730.3438,816.5938 L730.3438,819.8438 L735.6094,819.8438 L735.6094,822 Z "/><text fill="#000000" font-family="sans-serif" font-size="12" font-weight="bold" lengthAdjust="spacingAndGlyphs" textLength="65" x="745.5" y="820.1543">Category</text><line style="stroke: #A80036; stroke-width: 1.5;" x1="717.5" x2="812.5" y1="832" y2="832"/><text fill="#000000" font-family="sans-serif" font-size="11" lengthAdjust="spacingAndGlyphs" textLength="61" x="722.5" y="846.2104">technology</text><text fill="#000000" font-family="sans-serif" font-size="11" lengthAdjust="spacingAndGlyphs" textLength="40" x="722.5" y="859.0151">politics</text><text fill="#000000" font-family="sans-serif" font-size="11" lengthAdjust="spacingAndGlyphs" textLength="37" x="722.5" y="871.8198">sports</text><text fill="#000000" font-family="sans-serif" font-size="11" lengthAdjust="spacingAndGlyphs" textLength="52" x="722.5" y="884.6245">business</text><text fill="#000000" font-family="sans-serif" font-size="11" lengthAdjust="spacingAndGlyphs" textLength="35" x="722.5" y="897.4292">health</text><text fill="#000000" font-family="sans-serif" font-size="11" lengthAdjust="spacingAndGlyphs" textLength="30" x="722.5" y="910.2339">other</text><line style="stroke: #A80036; stroke-width: 1.5;" x1="717.5" x2="812.5" y1="916.8281" y2="916.8281"/><!--MD5=[d70279aee16cb60954d73d22597b95b5]
class ErrorResponse--><rect fill="#FEFECE" filter="url(#f1iepxmamrbwy7)" height="73.6094" id="ErrorResponse" style="stroke: #A80036; stroke-width: 1.5;" width="137" x="1060.5" y="630"/><ellipse cx="1075.5" cy="646" fill="#ADD1B2" rx="11" ry="11" style="stroke: #A80036; stroke-width: 1.0;"/><path d="M1078.4688,651.6406 Q1077.8906,651.9375 1077.25,652.0781 Q1076.6094,652.2344 1075.9063,652.2344 Q1073.4063,652.2344 1072.0781,650.5938 Q1070.7656,648.9375 1070.7656,645.8125 Q1070.7656,642.6875 1072.0781,641.0313 Q1073.4063,639.375 1075.9063,639.375 Q1076.6094,639.375 1077.25,639.5313 Q1077.9063,639.6875 1078.4688,639.9844 L1078.4688,642.7031 Q1077.8438,642.125 1077.25,641.8594 Q1076.6563,641.5781 1076.0313,641.5781 Q1074.6875,641.5781 1074,642.6563 Q1073.3125,643.7188 1073.3125,645.8125 Q1073.3125,647.9063 1074,648.9844 Q1074.6875,650.0469 1076.0313,650.0469 Q1076.6563,650.0469 1077.25,649.7813 Q1077.8438,649.5 1078.4688,648.9219 L1078.4688,651.6406 Z "/><text fill="#000000" font-family="sans-serif" font-size="12" font-weight="bold" lengthAdjust="spacingAndGlyphs" textLength="105" x="1089.5" y="650.1543">ErrorResponse</text><line style="stroke: #A80036; stroke-width: 1.5;" x1="1061.5" x2="1196.5" y1="662" y2="662"/><text fill="#000000" font-family="sans-serif" font-size="11" lengthAdjust="spacingAndGlyphs" textLength="75" x="1066.5" y="676.2104">-error: String</text><text fill="#000000" font-family="sans-serif" font-size="11" lengthAdjust="spacingAndGlyphs" textLength="97" x="1066.5" y="689.0151">-code: ErrorCode</text><line style="stroke: #A80036; stroke-width: 1.5;" x1="1061.5" x2="1196.5" y1="695.6094" y2="695.6094"/><!--MD5=[e9923e1a33f8410e6361298b2227207f]
class ErrorCode--><rect fill="#FEFECE" filter="url(#f1iepxmamrbwy7)" height="86.4141" id="ErrorCode" style="stroke: #A80036; stroke-width: 1.5;" width="113" x="1078.5" y="819.5"/><ellipse cx="1098" cy="835.5" fill="#EB937F" rx="11" ry="11" style="stroke: #A80036; stroke-width: 1.0;"/><path d="M1102.1094,841.5 L1094.3906,841.5 L1094.3906,829.1094 L1102.1094,829.1094 L1102.1094,831.2656 L1096.8438,831.2656 L1096.8438,833.9375 L1101.6094,833.9375 L1101.6094,836.0938 L1096.8438,836.0938 L1096.8438,839.3438 L1102.1094,839.3438 L1102.1094,841.5 Z "/><text fill="#000000" font-family="sans-serif" font-size="12" font-weight="bold" lengthAdjust="spacingAndGlyphs" textLength="71" x="1113" y="839.6543">ErrorCode</text><line style="stroke: #A80036; stroke-width: 1.5;" x1="1079.5" x2="1190.5" y1="851.5" y2="851.5"/><text fill="#000000" font-family="sans-serif" font-size="11" lengthAdjust="spacingAndGlyphs" textLength="81" x="1084.5" y="865.7104">INVALID_INPUT</text><text fill="#000000" font-family="sans-serif" font-size="11" lengthAdjust="spacingAndGlyphs" textLength="101" x="1084.5" y="878.5151">LLM_UNAVAILABLE</text><text fill="#000000" font-family="sans-serif" font-size="11" lengthAdjust="spacingAndGlyphs" textLength="79" x="1084.5" y="891.3198">PARSE_ERROR</text><line style="stroke: #A80036; stroke-width: 1.5;" x1="1079.5" x2="1190.5" y1="897.9141" y2="897.9141"/><!--MD5=[5cbcdbbc9d99dd605f2fdaaae8079a0a]
class LlmUnavailableException--><rect fill="#FEFECE" filter="url(#f1iepxmamrbwy7)" height="60.8047" id="LlmUnavailableException" style="stroke: #A80036; stroke-width: 1.5;" width="372" x="2025" y="636.5"/><ellipse cx="2119.25" cy="652.5" fill="#ADD1B2" rx="11" ry="11" style="stroke: #A80036; stroke-width: 1.0;"/><path d="M2122.2188,658.1406 Q2121.6406,658.4375 2121,658.5781 Q2120.3594,658.7344 2119.6563,658.7344 Q2117.1563,658.7344 2115.8281,657.0938 Q2114.5156,655.4375 2114.5156,652.3125 Q2114.5156,649.1875 2115.8281,647.5313 Q2117.1563,645.875 2119.6563,645.875 Q2120.3594,645.875 2121,646.0313 Q2121.6563,646.1875 2122.2188,646.4844 L2122.2188,649.2031 Q2121.5938,648.625 2121,648.3594 Q2120.4063,648.0781 2119.7813,648.0781 Q2118.4375,648.0781 2117.75,649.1563 Q2117.0625,650.2188 2117.0625,652.3125 Q2117.0625,654.4063 2117.75,655.4844 Q2118.4375,656.5469 2119.7813,656.5469 Q2120.4063,656.5469 2121,656.2813 Q2121.5938,656 2122.2188,655.4219 L2122.2188,658.1406 Z "/><text fill="#000000" font-family="sans-serif" font-size="12" font-weight="bold" lengthAdjust="spacingAndGlyphs" textLength="175" x="2139.75" y="656.6543">LlmUnavailableException</text><line style="stroke: #A80036; stroke-width: 1.5;" x1="2026" x2="2396" y1="668.5" y2="668.5"/><line style="stroke: #A80036; stroke-width: 1.5;" x1="2026" x2="2396" y1="676.5" y2="676.5"/><text fill="#000000" font-family="sans-serif" font-size="11" lengthAdjust="spacingAndGlyphs" textLength="360" x="2031" y="690.7104">+LlmUnavailableException(message: String, cause: Throwable)</text><!--MD5=[52221cc32b96c3919957b075938e0d1c]
class ParseException--><rect fill="#FEFECE" filter="url(#f1iepxmamrbwy7)" height="60.8047" id="ParseException" style="stroke: #A80036; stroke-width: 1.5;" width="391" x="1598.5" y="636.5"/><ellipse cx="1735.25" cy="652.5" fill="#ADD1B2" rx="11" ry="11" style="stroke: #A80036; stroke-width: 1.0;"/><path d="M1738.2188,658.1406 Q1737.6406,658.4375 1737,658.5781 Q1736.3594,658.7344 1735.6563,658.7344 Q1733.1563,658.7344 1731.8281,657.0938 Q1730.5156,655.4375 1730.5156,652.3125 Q1730.5156,649.1875 1731.8281,647.5313 Q1733.1563,645.875 1735.6563,645.875 Q1736.3594,645.875 1737,646.0313 Q1737.6563,646.1875 1738.2188,646.4844 L1738.2188,649.2031 Q1737.5938,648.625 1737,648.3594 Q1736.4063,648.0781 1735.7813,648.0781 Q1734.4375,648.0781 1733.75,649.1563 Q1733.0625,650.2188 1733.0625,652.3125 Q1733.0625,654.4063 1733.75,655.4844 Q1734.4375,656.5469 1735.7813,656.5469 Q1736.4063,656.5469 1737,656.2813 Q1737.5938,656 1738.2188,655.4219 L1738.2188,658.1406 Z "/><text fill="#000000" font-family="sans-serif" font-size="12" font-weight="bold" lengthAdjust="spacingAndGlyphs" textLength="109" x="1755.75" y="656.6543">ParseException</text><line style="stroke: #A80036; stroke-width: 1.5;" x1="1599.5" x2="1988.5" y1="668.5" y2="668.5"/><line style="stroke: #A80036; stroke-width: 1.5;" x1="1599.5" x2="1988.5" y1="676.5" y2="676.5"/><text fill="#000000" font-family="sans-serif" font-size="11" lengthAdjust="spacingAndGlyphs" textLength="379" x="1604.5" y="690.7104">+ParseException(message: String, raw: String, cause: Throwable)</text><!--MD5=[0bf6cc7671acd830f68456d528990499]
class GlobalExceptionHandler--><rect fill="#FEFECE" filter="url(#f1iepxmamrbwy7)" height="99.2188" id="GlobalExceptionHandler" style="stroke: #A80036; stroke-width: 1.5;" width="537" x="1531.5" y="328.5"/><ellipse cx="1711.25" cy="344.5" fill="#ADD1B2" rx="11" ry="11" style="stroke: #A80036; stroke-width: 1.0;"/><path d="M1714.2188,350.1406 Q1713.6406,350.4375 1713,350.5781 Q1712.3594,350.7344 1711.6563,350.7344 Q1709.1563,350.7344 1707.8281,349.0938 Q1706.5156,347.4375 1706.5156,344.3125 Q1706.5156,341.1875 1707.8281,339.5313 Q1709.1563,337.875 1711.6563,337.875 Q1712.3594,337.875 1713,338.0313 Q1713.6563,338.1875 1714.2188,338.4844 L1714.2188,341.2031 Q1713.5938,340.625 1713,340.3594 Q1712.4063,340.0781 1711.7813,340.0781 Q1710.4375,340.0781 1709.75,341.1563 Q1709.0625,342.2188 1709.0625,344.3125 Q1709.0625,346.4063 1709.75,347.4844 Q1710.4375,348.5469 1711.7813,348.5469 Q1712.4063,348.5469 1713,348.2813 Q1713.5938,348 1714.2188,347.4219 L1714.2188,350.1406 Z "/><text fill="#000000" font-family="sans-serif" font-size="12" font-weight="bold" lengthAdjust="spacingAndGlyphs" textLength="169" x="1731.75" y="348.6543">GlobalExceptionHandler</text><line style="stroke: #A80036; stroke-width: 1.5;" x1="1532.5" x2="2067.5" y1="360.5" y2="360.5"/><line style="stroke: #A80036; stroke-width: 1.5;" x1="1532.5" x2="2067.5" y1="368.5" y2="368.5"/><text fill="#000000" font-family="sans-serif" font-size="11" lengthAdjust="spacingAndGlyphs" textLength="525" x="1537.5" y="382.7104">+handleValidation(ex: MethodArgumentNotValidException): ResponseEntity&lt;ErrorResponse&gt;</text><text fill="#000000" font-family="sans-serif" font-size="11" lengthAdjust="spacingAndGlyphs" textLength="498" x="1537.5" y="395.5151">+handleLlmUnavailable(ex: LlmUnavailableException): ResponseEntity&lt;ErrorResponse&gt;</text><text fill="#000000" font-family="sans-serif" font-size="11" lengthAdjust="spacingAndGlyphs" textLength="423" x="1537.5" y="408.3198">+handleParseError(ex: ParseException): ResponseEntity&lt;ErrorResponse&gt;</text><text fill="#000000" font-family="sans-serif" font-size="11" lengthAdjust="spacingAndGlyphs" textLength="372" x="1537.5" y="421.1245">+handleGeneric(ex: Exception): ResponseEntity&lt;ErrorResponse&gt;</text><!--MD5=[5392e97adaaab1f1ca976cc794ef5ccc]
class ChatClient--><rect fill="#FEFECE" filter="url(#f1iepxmamrbwy7)" height="66.7422" id="ChatClient" style="stroke: #A80036; stroke-width: 1.5;" width="228" x="1233" y="633.5"/><ellipse cx="1305.75" cy="652.4688" fill="#ADD1B2" rx="11" ry="11" style="stroke: #A80036; stroke-width: 1.0;"/><path d="M1308.7188,658.1094 Q1308.1406,658.4063 1307.5,658.5469 Q1306.8594,658.7031 1306.1563,658.7031 Q1303.6563,658.7031 1302.3281,657.0625 Q1301.0156,655.4063 1301.0156,652.2813 Q1301.0156,649.1563 1302.3281,647.5 Q1303.6563,645.8438 1306.1563,645.8438 Q1306.8594,645.8438 1307.5,646 Q1308.1563,646.1563 1308.7188,646.4531 L1308.7188,649.1719 Q1308.0938,648.5938 1307.5,648.3281 Q1306.9063,648.0469 1306.2813,648.0469 Q1304.9375,648.0469 1304.25,649.125 Q1303.5625,650.1875 1303.5625,652.2813 Q1303.5625,654.375 1304.25,655.4531 Q1304.9375,656.5156 1306.2813,656.5156 Q1306.9063,656.5156 1307.5,656.25 Q1308.0938,655.9688 1308.7188,655.3906 L1308.7188,658.1094 Z "/><text fill="#000000" font-family="sans-serif" font-size="12" font-style="italic" lengthAdjust="spacingAndGlyphs" textLength="66" x="1330.25" y="649.6387">«external»</text><text fill="#000000" font-family="sans-serif" font-size="12" font-weight="bold" lengthAdjust="spacingAndGlyphs" textLength="74" x="1326.25" y="663.6074">ChatClient</text><line style="stroke: #A80036; stroke-width: 1.5;" x1="1234" x2="1460" y1="671.4375" y2="671.4375"/><line style="stroke: #A80036; stroke-width: 1.5;" x1="1234" x2="1460" y1="679.4375" y2="679.4375"/><text fill="#000000" font-family="sans-serif" font-size="11" lengthAdjust="spacingAndGlyphs" textLength="216" x="1239" y="693.6479">+call(prompt: Prompt): ChatResponse</text><!--MD5=[5c6c7d52e42032554528404b62c1d271]
class RuntimeException--><rect fill="#FEFECE" filter="url(#f1iepxmamrbwy7)" height="48" id="RuntimeException" style="stroke: #A80036; stroke-width: 1.5;" width="158" x="1924" y="838.5"/><ellipse cx="1939" cy="854.5" fill="#ADD1B2" rx="11" ry="11" style="stroke: #A80036; stroke-width: 1.0;"/><path d="M1941.9688,860.1406 Q1941.3906,860.4375 1940.75,860.5781 Q1940.1094,860.7344 1939.4063,860.7344 Q1936.9063,860.7344 1935.5781,859.0938 Q1934.2656,857.4375 1934.2656,854.3125 Q1934.2656,851.1875 1935.5781,849.5313 Q1936.9063,847.875 1939.4063,847.875 Q1940.1094,847.875 1940.75,848.0313 Q1941.4063,848.1875 1941.9688,848.4844 L1941.9688,851.2031 Q1941.3438,850.625 1940.75,850.3594 Q1940.1563,850.0781 1939.5313,850.0781 Q1938.1875,850.0781 1937.5,851.1563 Q1936.8125,852.2188 1936.8125,854.3125 Q1936.8125,856.4063 1937.5,857.4844 Q1938.1875,858.5469 1939.5313,858.5469 Q1940.1563,858.5469 1940.75,858.2813 Q1941.3438,858 1941.9688,857.4219 L1941.9688,860.1406 Z "/><text fill="#000000" font-family="sans-serif" font-size="12" font-weight="bold" lengthAdjust="spacingAndGlyphs" textLength="126" x="1953" y="858.6543">RuntimeException</text><line style="stroke: #A80036; stroke-width: 1.5;" x1="1925" x2="2081" y1="870.5" y2="870.5"/><line style="stroke: #A80036; stroke-width: 1.5;" x1="1925" x2="2081" y1="878.5" y2="878.5"/><!--MD5=[ca1d5d877907d9c8daa7d4c900f822cd]
link TextAnalysisController to TextAnalysisService--><path d="M900.5,145.12 C900.5,145.12 900.5,239.75 900.5,239.75 " fill="none" id="TextAnalysisController-&gt;TextAnalysisService" style="stroke: #A80036; stroke-width: 1.0;"/><polygon fill="#A80036" points="900.5,244.75,904.5,235.75,900.5,239.75,896.5,235.75,900.5,244.75" style="stroke: #A80036; stroke-width: 1.0;"/><text fill="#000000" font-family="sans-serif" font-size="13" lengthAdjust="spacingAndGlyphs" textLength="30" x="1025" y="190.0669">uses</text><!--MD5=[de755979e0835af4040eea6680d95e41]
link TextAnalysisService to ChatClient--><path d="M1347,511.08 C1347,511.08 1347,628.31 1347,628.31 " fill="none" id="TextAnalysisService-&gt;ChatClient" style="stroke: #A80036; stroke-width: 1.0;"/><polygon fill="#A80036" points="1347,633.31,1351,624.31,1347,628.31,1343,624.31,1347,633.31" style="stroke: #A80036; stroke-width: 1.0;"/><text fill="#000000" font-family="sans-serif" font-size="13" lengthAdjust="spacingAndGlyphs" textLength="30" x="1292" y="556.0669">uses</text><!--MD5=[60eb2a6540370ae8cf57994c5f2a95a1]
link TextAnalysisService to LlmProperties--><path d="M892.77,443 C653.52,443 353.83,443 353.83,443 C353.83,443 353.83,618.81 353.83,618.81 " fill="none" id="TextAnalysisService-&gt;LlmProperties" style="stroke: #A80036; stroke-width: 1.0;"/><polygon fill="#A80036" points="353.83,623.81,357.83,614.81,353.83,618.81,349.83,614.81,353.83,623.81" style="stroke: #A80036; stroke-width: 1.0;"/><text fill="#000000" font-family="sans-serif" font-size="13" lengthAdjust="spacingAndGlyphs" textLength="36" x="628" y="556.0669">reads</text><!--MD5=[8a470f56e4f43304c122a86c94f40c99]
link LlmClientConfig to LlmProperties--><path d="M304.17,408.65 C304.17,408.65 304.17,618.82 304.17,618.82 " fill="none" id="LlmClientConfig-&gt;LlmProperties" style="stroke: #A80036; stroke-width: 1.0;"/><polygon fill="#A80036" points="304.17,623.82,308.17,614.82,304.17,618.82,300.17,614.82,304.17,623.82" style="stroke: #A80036; stroke-width: 1.0;"/><text fill="#000000" font-family="sans-serif" font-size="13" lengthAdjust="spacingAndGlyphs" textLength="36" x="268" y="556.0669">reads</text><!--MD5=[7ae27f8c7621c233bd69bc5e794f8a12]
link TextAnalysisController to AnalyzeRequest--><path d="M885.75,145.4 C885.75,145.4 885.75,631.45 885.75,631.45 " fill="none" id="TextAnalysisController-&gt;AnalyzeRequest" style="stroke: #A80036; stroke-width: 1.0; stroke-dasharray: 7.0,7.0;"/><polygon fill="#A80036" points="885.75,636.45,889.75,627.45,885.75,631.45,881.75,627.45,885.75,636.45" style="stroke: #A80036; stroke-width: 1.0;"/><text fill="#000000" font-family="sans-serif" font-size="13" lengthAdjust="spacingAndGlyphs" textLength="50" x="807" y="382.5669">accepts</text><!--MD5=[c53aca6a522b75e76c47adcac053a723]
link TextAnalysisController to AnalysisResponse--><path d="M618.75,145.4 C618.75,145.4 618.75,605.73 618.75,605.73 " fill="none" id="TextAnalysisController-&gt;AnalysisResponse" style="stroke: #A80036; stroke-width: 1.0; stroke-dasharray: 7.0,7.0;"/><polygon fill="#A80036" points="618.75,610.73,622.75,601.73,618.75,605.73,614.75,601.73,618.75,610.73" style="stroke: #A80036; stroke-width: 1.0;"/><text fill="#000000" font-family="sans-serif" font-size="13" lengthAdjust="spacingAndGlyphs" textLength="46" x="570" y="382.5669">returns</text><!--MD5=[ad32168180a21f790fea3103b9123071]
link TextAnalysisController to ClassifyResponse--><path d="M738.83,145.4 C738.83,145.4 738.83,618.84 738.83,618.84 " fill="none" id="TextAnalysisController-&gt;ClassifyResponse" style="stroke: #A80036; stroke-width: 1.0; stroke-dasharray: 7.0,7.0;"/><polygon fill="#A80036" points="738.83,623.84,742.83,614.84,738.83,618.84,734.83,614.84,738.83,623.84" style="stroke: #A80036; stroke-width: 1.0;"/><text fill="#000000" font-family="sans-serif" font-size="13" lengthAdjust="spacingAndGlyphs" textLength="46" x="689" y="382.5669">returns</text><!--MD5=[270934d3d87b53c52c8b791b5af52180]
link TextAnalysisService to AnalyzeRequest--><path d="M981.33,511.08 C981.33,511.08 981.33,631.24 981.33,631.24 " fill="none" id="TextAnalysisService-&gt;AnalyzeRequest" style="stroke: #A80036; stroke-width: 1.0; stroke-dasharray: 7.0,7.0;"/><polygon fill="#A80036" points="981.33,636.24,985.33,627.24,981.33,631.24,977.33,627.24,981.33,636.24" style="stroke: #A80036; stroke-width: 1.0;"/><text fill="#000000" font-family="sans-serif" font-size="13" lengthAdjust="spacingAndGlyphs" textLength="36" x="1136" y="556.0669">reads</text><!--MD5=[ff4f054a32ac09bbd81f3d903df2316a]
link TextAnalysisService to AnalysisResponse--><path d="M937.17,511.33 C937.17,566.58 937.17,618 937.17,618 C937.17,618 656.81,618 656.81,618 " fill="none" id="TextAnalysisService-&gt;AnalysisResponse" style="stroke: #A80036; stroke-width: 1.0; stroke-dasharray: 7.0,7.0;"/><polygon fill="#A80036" points="651.81,618,660.81,622,656.81,618,660.81,614,651.81,618" style="stroke: #A80036; stroke-width: 1.0;"/><text fill="#000000" font-family="sans-serif" font-size="13" lengthAdjust="spacingAndGlyphs" textLength="59" x="747" y="556.0669">produces</text><!--MD5=[775f2984da1c27454c61d10aaad8d397]
link TextAnalysisService to ClassifyResponse--><path d="M892.84,477 C834.73,477 791.17,477 791.17,477 C791.17,477 791.17,618.89 791.17,618.89 " fill="none" id="TextAnalysisService-&gt;ClassifyResponse" style="stroke: #A80036; stroke-width: 1.0; stroke-dasharray: 7.0,7.0;"/><polygon fill="#A80036" points="791.17,623.89,795.17,614.89,791.17,618.89,787.17,614.89,791.17,623.89" style="stroke: #A80036; stroke-width: 1.0;"/><text fill="#000000" font-family="sans-serif" font-size="13" lengthAdjust="spacingAndGlyphs" textLength="59" x="986" y="556.0669">produces</text><!--MD5=[9b05ce65cd567ce25da1ffe4e606efe5]
link AnalysisResponse to Sentiment--><path d="M571,723.02 C571,723.02 571,814.21 571,814.21 " fill="none" id="AnalysisResponse-&gt;Sentiment" style="stroke: #A80036; stroke-width: 1.0;"/><polygon fill="#A80036" points="571,819.21,575,810.21,571,814.21,567,810.21,571,819.21" style="stroke: #A80036; stroke-width: 1.0;"/><text fill="#000000" font-family="sans-serif" font-size="13" lengthAdjust="spacingAndGlyphs" textLength="30" x="572" y="766.0669">uses</text><!--MD5=[a97e1626401b2b221c8875ffd03ef42f]
link ClassifyResponse to Category--><path d="M765,710.39 C765,710.39 765,794.95 765,794.95 " fill="none" id="ClassifyResponse-&gt;Category" style="stroke: #A80036; stroke-width: 1.0;"/><polygon fill="#A80036" points="765,799.95,769,790.95,765,794.95,761,790.95,765,799.95" style="stroke: #A80036; stroke-width: 1.0;"/><text fill="#000000" font-family="sans-serif" font-size="13" lengthAdjust="spacingAndGlyphs" textLength="30" x="766" y="766.0669">uses</text><!--MD5=[ea35923e8ca1c8141ec31639204c4231]
link TextAnalysisService to LlmUnavailableException--><path d="M1475.13,470 C1723.09,470 2039.5,470 2039.5,470 C2039.5,470 2039.5,631.22 2039.5,631.22 " fill="none" id="TextAnalysisService-&gt;LlmUnavailableException" style="stroke: #A80036; stroke-width: 1.0; stroke-dasharray: 7.0,7.0;"/><polygon fill="#A80036" points="2039.5,636.22,2043.5,627.22,2039.5,631.22,2035.5,627.22,2039.5,636.22" style="stroke: #A80036; stroke-width: 1.0;"/><text fill="#000000" font-family="sans-serif" font-size="13" lengthAdjust="spacingAndGlyphs" textLength="42" x="1653" y="556.0669">throws</text><!--MD5=[1a8012168eddcebc25b1856567c124b1]
link TextAnalysisService to ParseException--><path d="M1468,511.08 C1468,586.93 1468,667 1468,667 C1468,667 1593.25,667 1593.25,667 " fill="none" id="TextAnalysisService-&gt;ParseException" style="stroke: #A80036; stroke-width: 1.0; stroke-dasharray: 7.0,7.0;"/><polygon fill="#A80036" points="1598.25,667,1589.25,663,1593.25,667,1589.25,671,1598.25,667" style="stroke: #A80036; stroke-width: 1.0;"/><text fill="#000000" font-family="sans-serif" font-size="13" lengthAdjust="spacingAndGlyphs" textLength="42" x="1465" y="556.0669">throws</text><!--MD5=[9e1ed9971e8d7ffa4c6c6b0d9bba0ebd]
link GlobalExceptionHandler to LlmUnavailableException--><path d="M2054,427.68 C2054,427.68 2054,631.17 2054,631.17 " fill="none" id="GlobalExceptionHandler-&gt;LlmUnavailableException" style="stroke: #A80036; stroke-width: 1.0; stroke-dasharray: 7.0,7.0;"/><polygon fill="#A80036" points="2054,636.17,2058,627.17,2054,631.17,2050,627.17,2054,636.17" style="stroke: #A80036; stroke-width: 1.0;"/><text fill="#000000" font-family="sans-serif" font-size="13" lengthAdjust="spacingAndGlyphs" textLength="50" x="2051" y="556.0669">handles</text><!--MD5=[51eead38ad3f0149235fc290e046e670]
link GlobalExceptionHandler to ParseException--><path d="M1794,427.68 C1794,427.68 1794,631.17 1794,631.17 " fill="none" id="GlobalExceptionHandler-&gt;ParseException" style="stroke: #A80036; stroke-width: 1.0; stroke-dasharray: 7.0,7.0;"/><polygon fill="#A80036" points="1794,636.17,1798,627.17,1794,631.17,1790,627.17,1794,636.17" style="stroke: #A80036; stroke-width: 1.0;"/><text fill="#000000" font-family="sans-serif" font-size="13" lengthAdjust="spacingAndGlyphs" textLength="50" x="1797" y="556.0669">handles</text><!--MD5=[d7dd3d784598f73100c39d2df611899e]
link GlobalExceptionHandler to ErrorResponse--><path d="M1553.83,427.52 C1553.83,481.72 1553.83,561 1553.83,561 C1553.83,561 1129,561 1129,561 C1129,561 1129,624.93 1129,624.93 " fill="none" id="GlobalExceptionHandler-&gt;ErrorResponse" style="stroke: #A80036; stroke-width: 1.0; stroke-dasharray: 7.0,7.0;"/><polygon fill="#A80036" points="1129,629.93,1133,620.93,1129,624.93,1125,620.93,1129,629.93" style="stroke: #A80036; stroke-width: 1.0;"/><text fill="#000000" font-family="sans-serif" font-size="13" lengthAdjust="spacingAndGlyphs" textLength="59" x="1364" y="556.0669">produces</text><!--MD5=[0e46dead6b18754903429f3c5972c8ce]
link GlobalExceptionHandler to ErrorCode--><path d="M1576.17,427.55 C1576.17,544.71 1576.17,829 1576.17,829 C1576.17,829 1196.77,829 1196.77,829 " fill="none" id="GlobalExceptionHandler-&gt;ErrorCode" style="stroke: #A80036; stroke-width: 1.0; stroke-dasharray: 7.0,7.0;"/><polygon fill="#A80036" points="1191.77,829,1200.77,833,1196.77,829,1200.77,825,1191.77,829" style="stroke: #A80036; stroke-width: 1.0;"/><text fill="#000000" font-family="sans-serif" font-size="13" lengthAdjust="spacingAndGlyphs" textLength="30" x="1532" y="671.5669">uses</text><!--MD5=[3f09eda78f7c99815336a97b2112fc12]
link ErrorResponse to ErrorCode--><path d="M1135,704.23 C1135,704.23 1135,814.27 1135,814.27 " fill="none" id="ErrorResponse-&gt;ErrorCode" style="stroke: #A80036; stroke-width: 1.0;"/><polygon fill="#A80036" points="1135,819.27,1139,810.27,1135,814.27,1131,810.27,1135,819.27" style="stroke: #A80036; stroke-width: 1.0;"/><text fill="#000000" font-family="sans-serif" font-size="13" lengthAdjust="spacingAndGlyphs" textLength="30" x="1133" y="766.0669">uses</text><!--MD5=[98ca6bfa44ecdefc6a5bf4fa2084c2a8]
link LlmUnavailableException to RuntimeException--><path d="M2053.5,697.55 C2053.5,697.55 2053.5,818.33 2053.5,818.33 " fill="none" id="LlmUnavailableException-&gt;RuntimeException" style="stroke: #A80036; stroke-width: 1.0;"/><polygon fill="none" points="2060.5,818.33,2053.5,838.33,2046.5,818.33,2060.5,818.33" style="stroke: #A80036; stroke-width: 1.0;"/><!--MD5=[12683b31aa232a81654aa52f938076d4]
link ParseException to RuntimeException--><path d="M1956.75,697.55 C1956.75,697.55 1956.75,818.33 1956.75,818.33 " fill="none" id="ParseException-&gt;RuntimeException" style="stroke: #A80036; stroke-width: 1.0;"/><polygon fill="none" points="1963.75,818.33,1956.75,838.33,1949.75,818.33,1963.75,818.33" style="stroke: #A80036; stroke-width: 1.0;"/><!--MD5=[83848ddc05a201b917a8e2f581274335]
@startuml class-diagram

skinparam classAttributeIconSize 0
skinparam classFontStyle bold
skinparam linetype ortho

package "controller" {
  class TextAnalysisController {
    - service: TextAnalysisService
    + analyze(request: AnalyzeRequest): AnalysisResponse
    + classify(request: AnalyzeRequest): ClassifyResponse
  }
}

package "config" {
  class LlmClientConfig {
    + restClientBuilder(llmProperties: LlmProperties): RestClient.Builder
  }

  class LlmProperties {
    - models: ModelConfig
    - retry: RetryConfig
    - timeout: TimeoutConfig
  }
}

package "service" {
  class TextAnalysisService {
    - chatClient: ChatClient
    - objectMapper: ObjectMapper
    - systemPrompt: String
    - classifyPrompt: String
    - fallbackModel: String
    - maxAttempts: int
    - baseDelayMs: long
    - random: Random
    + analyze(request: AnalyzeRequest): AnalysisResponse
    + classify(request: AnalyzeRequest): ClassifyResponse
    - attemptAnalyze(request: AnalyzeRequest, modelOverride: String): AnalysisResponse
    - attemptClassify(request: AnalyzeRequest, modelOverride: String): ClassifyResponse
    - parseResponse(raw: String): AnalysisResponse
    - classifyResponse(raw: String): ClassifyResponse
    - sleepBeforeRetry(attempt: int, e: HttpClientErrorException): void
    - logUsage(response: ChatResponse, latencyMs: long, isFallback: boolean, modelName: String): void
    - findPricing(modelName: String): Optional<LlmProperties.ModelPricing>
  }
}

package "dto" {
  class AnalyzeRequest {
    - text: String
  }

  class AnalysisResponse {
    - summary: String
    - sentiment: Sentiment
    - confidence: double
    - keyTopics: List<String>
    - wordCountEstimate: int
  }

  enum Sentiment {
    positive
    negative
    neutral
  }

  class ClassifyResponse {
    - reasoning: String
    - category: Category
    - confidence: double
  }

  enum Category {
    technology
    politics
    sports
    business
    health
    other
  }

  class ErrorResponse {
    - error: String
    - code: ErrorCode
  }

  enum ErrorCode {
    INVALID_INPUT
    LLM_UNAVAILABLE
    PARSE_ERROR
  }
}

package "exception" {
  class LlmUnavailableException {
    + LlmUnavailableException(message: String, cause: Throwable)
  }

  class ParseException {
    + ParseException(message: String, raw: String, cause: Throwable)
  }
}

package "exception.handler" {
  class GlobalExceptionHandler {
    + handleValidation(ex: MethodArgumentNotValidException): ResponseEntity<ErrorResponse>
    + handleLlmUnavailable(ex: LlmUnavailableException): ResponseEntity<ErrorResponse>
    + handleParseError(ex: ParseException): ResponseEntity<ErrorResponse>
    + handleGeneric(ex: Exception): ResponseEntity<ErrorResponse>
  }
}

TextAnalysisController - -> TextAnalysisService : uses

TextAnalysisService - -> ChatClient : uses
TextAnalysisService - -> LlmProperties : reads
LlmClientConfig - -> LlmProperties : reads

TextAnalysisController ..> AnalyzeRequest : accepts
TextAnalysisController ..> AnalysisResponse : returns
TextAnalysisController ..> ClassifyResponse : returns

TextAnalysisService ..> AnalyzeRequest : reads
TextAnalysisService ..> AnalysisResponse : produces
TextAnalysisService ..> ClassifyResponse : produces

AnalysisResponse - -> Sentiment : uses
ClassifyResponse - -> Category : uses

TextAnalysisService ..> LlmUnavailableException : «throws»
TextAnalysisService ..> ParseException : «throws»

GlobalExceptionHandler ..> LlmUnavailableException : «handles»
GlobalExceptionHandler ..> ParseException : «handles»
GlobalExceptionHandler ..> ErrorResponse : produces
GlobalExceptionHandler ..> ErrorCode : uses

ErrorResponse - -> ErrorCode : uses

LlmUnavailableException - -|> RuntimeException
ParseException - -|> RuntimeException

class ChatClient <<external>> {
  + call(prompt: Prompt): ChatResponse
}

@enduml

PlantUML version 1.2020.02(Sun Mar 01 10:22:07 UTC 2020)
(GPL source distribution)
Java Runtime: OpenJDK Runtime Environment
JVM: OpenJDK 64-Bit Server VM
Java Version: 17.0.19+10
Operating System: Linux
Default Encoding: UTF-8
Language: en
Country: null
--></g></svg>