<?xml version="1.0" encoding="UTF-8" standalone="no"?><svg xmlns="http://www.w3.org/2000/svg" xmlns:xlink="http://www.w3.org/1999/xlink" contentScriptType="application/ecmascript" contentStyleType="text/css" height="748px" preserveAspectRatio="none" style="width:1681px;height:748px;" version="1.1" viewBox="0 0 1681 748" width="1681px" zoomAndPan="magnify"><defs><filter height="300%" id="fvxoaybeej70r" width="300%" x="-1" y="-1"><feGaussianBlur result="blurOut" stdDeviation="2.0"/><feColorMatrix in="blurOut" result="blurOut2" type="matrix" values="0 0 0 0 0 0 0 0 0 0 0 0 0 0 0 0 0 0 .4 0"/><feOffset dx="4.0" dy="4.0" in="blurOut2" result="blurOut3"/><feBlend in="SourceGraphic" in2="blurOut3" mode="normal"/></filter></defs><g><!--MD5=[10ea673caf457862023e152271927b45]
cluster controller--><polygon fill="#FFFFFF" filter="url(#fvxoaybeej70r)" points="71,24,154,24,161,46.2969,531,46.2969,531,149,71,149,71,24" style="stroke: #000000; stroke-width: 1.5;"/><line style="stroke: #000000; stroke-width: 1.5;" x1="71" x2="161" y1="46.2969" y2="46.2969"/><text fill="#000000" font-family="sans-serif" font-size="14" font-weight="bold" lengthAdjust="spacingAndGlyphs" textLength="77" x="75" y="38.9951">controller</text><!--MD5=[7579d5565d2521d5936cec86ed3dadee]
cluster service--><polygon fill="#FFFFFF" filter="url(#fvxoaybeej70r)" points="377,198,441,198,448,220.2969,731,220.2969,731,361,377,361,377,198" style="stroke: #000000; stroke-width: 1.5;"/><line style="stroke: #000000; stroke-width: 1.5;" x1="377" x2="448" y1="220.2969" y2="220.2969"/><text fill="#000000" font-family="sans-serif" font-size="14" font-weight="bold" lengthAdjust="spacingAndGlyphs" textLength="58" x="381" y="212.9951">service</text><!--MD5=[e6eced616a98d47334dd1aaaa829ffd5]
cluster dto--><polygon fill="#FFFFFF" filter="url(#fvxoaybeej70r)" points="22,410,54,410,61,432.2969,570,432.2969,570,736,22,736,22,410" style="stroke: #000000; stroke-width: 1.5;"/><line style="stroke: #000000; stroke-width: 1.5;" x1="22" x2="61" y1="432.2969" y2="432.2969"/><text fill="#000000" font-family="sans-serif" font-size="14" font-weight="bold" lengthAdjust="spacingAndGlyphs" textLength="26" x="26" y="424.9951">dto</text><!--MD5=[11f03a07a4422c8eb8f650dbf201ac41]
cluster exception--><polygon fill="#FFFFFF" filter="url(#fvxoaybeej70r)" points="938,435.5,1022,435.5,1029,457.7969,1659,457.7969,1659,547.5,938,547.5,938,435.5" style="stroke: #000000; stroke-width: 1.5;"/><line style="stroke: #000000; stroke-width: 1.5;" x1="938" x2="1029" y1="457.7969" y2="457.7969"/><text fill="#000000" font-family="sans-serif" font-size="14" font-weight="bold" lengthAdjust="spacingAndGlyphs" textLength="78" x="942" y="450.4951">exception</text><!--MD5=[5b7d7b6f636429b28b22fd98dc46cd1b]
cluster exception.handler--><polygon fill="#FFFFFF" filter="url(#fvxoaybeej70r)" points="787,204.5,936,204.5,943,226.7969,1357,226.7969,1357,354.5,787,354.5,787,204.5" style="stroke: #000000; stroke-width: 1.5;"/><line style="stroke: #000000; stroke-width: 1.5;" x1="787" x2="943" y1="226.7969" y2="226.7969"/><text fill="#000000" font-family="sans-serif" font-size="14" font-weight="bold" lengthAdjust="spacingAndGlyphs" textLength="143" x="791" y="219.4951">exception.handler</text><!--MD5=[07d2bcfdd1f5b6267d4746aeadaa7923]
class TextAnalysisController--><rect fill="#FEFECE" filter="url(#fvxoaybeej70r)" height="73.6094" id="TextAnalysisController" style="stroke: #A80036; stroke-width: 1.5;" width="427" x="87.5" y="59"/><ellipse cx="216.75" cy="75" fill="#ADD1B2" rx="11" ry="11" style="stroke: #A80036; stroke-width: 1.0;"/><path d="M219.7188,80.6406 Q219.1406,80.9375 218.5,81.0781 Q217.8594,81.2344 217.1563,81.2344 Q214.6563,81.2344 213.3281,79.5938 Q212.0156,77.9375 212.0156,74.8125 Q212.0156,71.6875 213.3281,70.0313 Q214.6563,68.375 217.1563,68.375 Q217.8594,68.375 218.5,68.5313 Q219.1563,68.6875 219.7188,68.9844 L219.7188,71.7031 Q219.0938,71.125 218.5,70.8594 Q217.9063,70.5781 217.2813,70.5781 Q215.9375,70.5781 215.25,71.6563 Q214.5625,72.7188 214.5625,74.8125 Q214.5625,76.9063 215.25,77.9844 Q215.9375,79.0469 217.2813,79.0469 Q217.9063,79.0469 218.5,78.7813 Q219.0938,78.5 219.7188,77.9219 L219.7188,80.6406 Z "/><text fill="#000000" font-family="sans-serif" font-size="12" font-weight="bold" lengthAdjust="spacingAndGlyphs" textLength="160" x="237.25" y="79.1543">TextAnalysisController</text><line style="stroke: #A80036; stroke-width: 1.5;" x1="88.5" x2="513.5" y1="91" y2="91"/><text fill="#000000" font-family="sans-serif" font-size="11" lengthAdjust="spacingAndGlyphs" textLength="166" x="93.5" y="105.2104">-service: TextAnalysisService</text><line style="stroke: #A80036; stroke-width: 1.5;" x1="88.5" x2="513.5" y1="111.8047" y2="111.8047"/><text fill="#000000" font-family="sans-serif" font-size="11" lengthAdjust="spacingAndGlyphs" textLength="415" x="93.5" y="126.0151">+analyze(request: AnalyzeRequest): ResponseEntity&lt;AnalysisResponse&gt;</text><!--MD5=[0be206d0152edf725601f1f50a97a3b2]
class TextAnalysisService--><rect fill="#FEFECE" filter="url(#fvxoaybeej70r)" height="112.0234" id="TextAnalysisService" style="stroke: #A80036; stroke-width: 1.5;" width="322" x="393" y="233"/><ellipse cx="479.75" cy="249" fill="#ADD1B2" rx="11" ry="11" style="stroke: #A80036; stroke-width: 1.0;"/><path d="M482.7188,254.6406 Q482.1406,254.9375 481.5,255.0781 Q480.8594,255.2344 480.1563,255.2344 Q477.6563,255.2344 476.3281,253.5938 Q475.0156,251.9375 475.0156,248.8125 Q475.0156,245.6875 476.3281,244.0313 Q477.6563,242.375 480.1563,242.375 Q480.8594,242.375 481.5,242.5313 Q482.1563,242.6875 482.7188,242.9844 L482.7188,245.7031 Q482.0938,245.125 481.5,244.8594 Q480.9063,244.5781 480.2813,244.5781 Q478.9375,244.5781 478.25,245.6563 Q477.5625,246.7188 477.5625,248.8125 Q477.5625,250.9063 478.25,251.9844 Q478.9375,253.0469 480.2813,253.0469 Q480.9063,253.0469 481.5,252.7813 Q482.0938,252.5 482.7188,251.9219 L482.7188,254.6406 Z "/><text fill="#000000" font-family="sans-serif" font-size="12" font-weight="bold" lengthAdjust="spacingAndGlyphs" textLength="140" x="500.25" y="253.1543">TextAnalysisService</text><line style="stroke: #A80036; stroke-width: 1.5;" x1="394" x2="714" y1="265" y2="265"/><text fill="#000000" font-family="sans-serif" font-size="11" lengthAdjust="spacingAndGlyphs" textLength="126" x="399" y="279.2104">-chatClient: ChatClient</text><line style="stroke: #A80036; stroke-width: 1.5;" x1="394" x2="714" y1="285.8047" y2="285.8047"/><text fill="#000000" font-family="sans-serif" font-size="11" lengthAdjust="spacingAndGlyphs" textLength="310" x="399" y="300.0151">+analyze(request: AnalyzeRequest): AnalysisResponse</text><text fill="#000000" font-family="sans-serif" font-size="11" lengthAdjust="spacingAndGlyphs" textLength="185" x="399" y="312.8198">-buildPrompt(text: String): String</text><text fill="#000000" font-family="sans-serif" font-size="11" lengthAdjust="spacingAndGlyphs" textLength="275" x="399" y="325.6245">-parseResponse(raw: String): AnalysisResponse</text><text fill="#000000" font-family="sans-serif" font-size="11" lengthAdjust="spacingAndGlyphs" textLength="271" x="399" y="338.4292">-logUsage(usage: Usage, latencyMs: long): void</text><!--MD5=[70c56c1f9ac4dc4ae10652bd270759c3]
class AnalyzeRequest--><rect fill="#FEFECE" filter="url(#fvxoaybeej70r)" height="60.8047" id="AnalyzeRequest" style="stroke: #A80036; stroke-width: 1.5;" width="147" x="38.5" y="470.5"/><ellipse cx="53.5" cy="486.5" fill="#ADD1B2" rx="11" ry="11" style="stroke: #A80036; stroke-width: 1.0;"/><path d="M56.4688,492.1406 Q55.8906,492.4375 55.25,492.5781 Q54.6094,492.7344 53.9063,492.7344 Q51.4063,492.7344 50.0781,491.0938 Q48.7656,489.4375 48.7656,486.3125 Q48.7656,483.1875 50.0781,481.5313 Q51.4063,479.875 53.9063,479.875 Q54.6094,479.875 55.25,480.0313 Q55.9063,480.1875 56.4688,480.4844 L56.4688,483.2031 Q55.8438,482.625 55.25,482.3594 Q54.6563,482.0781 54.0313,482.0781 Q52.6875,482.0781 52,483.1563 Q51.3125,484.2188 51.3125,486.3125 Q51.3125,488.4063 52,489.4844 Q52.6875,490.5469 54.0313,490.5469 Q54.6563,490.5469 55.25,490.2813 Q55.8438,490 56.4688,489.4219 L56.4688,492.1406 Z "/><text fill="#000000" font-family="sans-serif" font-size="12" font-weight="bold" lengthAdjust="spacingAndGlyphs" textLength="115" x="67.5" y="490.6543">AnalyzeRequest</text><line style="stroke: #A80036; stroke-width: 1.5;" x1="39.5" x2="184.5" y1="502.5" y2="502.5"/><text fill="#000000" font-family="sans-serif" font-size="11" lengthAdjust="spacingAndGlyphs" textLength="67" x="44.5" y="516.7104">-text: String</text><line style="stroke: #A80036; stroke-width: 1.5;" x1="39.5" x2="184.5" y1="523.3047" y2="523.3047"/><!--MD5=[5868ba203e3e21a7282960d5a1b712b7]
class AnalysisResponse--><rect fill="#FEFECE" filter="url(#fvxoaybeej70r)" height="112.0234" id="AnalysisResponse" style="stroke: #A80036; stroke-width: 1.5;" width="161" x="220.5" y="445"/><ellipse cx="235.5" cy="461" fill="#ADD1B2" rx="11" ry="11" style="stroke: #A80036; stroke-width: 1.0;"/><path d="M238.4688,466.6406 Q237.8906,466.9375 237.25,467.0781 Q236.6094,467.2344 235.9063,467.2344 Q233.4063,467.2344 232.0781,465.5938 Q230.7656,463.9375 230.7656,460.8125 Q230.7656,457.6875 232.0781,456.0313 Q233.4063,454.375 235.9063,454.375 Q236.6094,454.375 237.25,454.5313 Q237.9063,454.6875 238.4688,454.9844 L238.4688,457.7031 Q237.8438,457.125 237.25,456.8594 Q236.6563,456.5781 236.0313,456.5781 Q234.6875,456.5781 234,457.6563 Q233.3125,458.7188 233.3125,460.8125 Q233.3125,462.9063 234,463.9844 Q234.6875,465.0469 236.0313,465.0469 Q236.6563,465.0469 237.25,464.7813 Q237.8438,464.5 238.4688,463.9219 L238.4688,466.6406 Z "/><text fill="#000000" font-family="sans-serif" font-size="12" font-weight="bold" lengthAdjust="spacingAndGlyphs" textLength="129" x="249.5" y="465.1543">AnalysisResponse</text><line style="stroke: #A80036; stroke-width: 1.5;" x1="221.5" x2="380.5" y1="477" y2="477"/><text fill="#000000" font-family="sans-serif" font-size="11" lengthAdjust="spacingAndGlyphs" textLength="100" x="226.5" y="491.2104">-summary: String</text><text fill="#000000" font-family="sans-serif" font-size="11" lengthAdjust="spacingAndGlyphs" textLength="103" x="226.5" y="504.0151">-sentiment: String</text><text fill="#000000" font-family="sans-serif" font-size="11" lengthAdjust="spacingAndGlyphs" textLength="111" x="226.5" y="516.8198">-confidence: double</text><text fill="#000000" font-family="sans-serif" font-size="11" lengthAdjust="spacingAndGlyphs" textLength="140" x="226.5" y="529.6245">-keyTopics: List&lt;String&gt;</text><text fill="#000000" font-family="sans-serif" font-size="11" lengthAdjust="spacingAndGlyphs" textLength="137" x="226.5" y="542.4292">-wordCountEstimate: int</text><line style="stroke: #A80036; stroke-width: 1.5;" x1="221.5" x2="380.5" y1="549.0234" y2="549.0234"/><!--MD5=[d70279aee16cb60954d73d22597b95b5]
class ErrorResponse--><rect fill="#FEFECE" filter="url(#fvxoaybeej70r)" height="73.6094" id="ErrorResponse" style="stroke: #A80036; stroke-width: 1.5;" width="137" x="416.5" y="464"/><ellipse cx="431.5" cy="480" fill="#ADD1B2" rx="11" ry="11" style="stroke: #A80036; stroke-width: 1.0;"/><path d="M434.4688,485.6406 Q433.8906,485.9375 433.25,486.0781 Q432.6094,486.2344 431.9063,486.2344 Q429.4063,486.2344 428.0781,484.5938 Q426.7656,482.9375 426.7656,479.8125 Q426.7656,476.6875 428.0781,475.0313 Q429.4063,473.375 431.9063,473.375 Q432.6094,473.375 433.25,473.5313 Q433.9063,473.6875 434.4688,473.9844 L434.4688,476.7031 Q433.8438,476.125 433.25,475.8594 Q432.6563,475.5781 432.0313,475.5781 Q430.6875,475.5781 430,476.6563 Q429.3125,477.7188 429.3125,479.8125 Q429.3125,481.9063 430,482.9844 Q430.6875,484.0469 432.0313,484.0469 Q432.6563,484.0469 433.25,483.7813 Q433.8438,483.5 434.4688,482.9219 L434.4688,485.6406 Z "/><text fill="#000000" font-family="sans-serif" font-size="12" font-weight="bold" lengthAdjust="spacingAndGlyphs" textLength="105" x="445.5" y="484.1543">ErrorResponse</text><line style="stroke: #A80036; stroke-width: 1.5;" x1="417.5" x2="552.5" y1="496" y2="496"/><text fill="#000000" font-family="sans-serif" font-size="11" lengthAdjust="spacingAndGlyphs" textLength="75" x="422.5" y="510.2104">-error: String</text><text fill="#000000" font-family="sans-serif" font-size="11" lengthAdjust="spacingAndGlyphs" textLength="97" x="422.5" y="523.0151">-code: ErrorCode</text><line style="stroke: #A80036; stroke-width: 1.5;" x1="417.5" x2="552.5" y1="529.6094" y2="529.6094"/><!--MD5=[e9923e1a33f8410e6361298b2227207f]
class ErrorCode--><rect fill="#FEFECE" filter="url(#fvxoaybeej70r)" height="86.4141" id="ErrorCode" style="stroke: #A80036; stroke-width: 1.5;" width="113" x="437.5" y="634"/><ellipse cx="457" cy="650" fill="#EB937F" rx="11" ry="11" style="stroke: #A80036; stroke-width: 1.0;"/><path d="M461.1094,656 L453.3906,656 L453.3906,643.6094 L461.1094,643.6094 L461.1094,645.7656 L455.8438,645.7656 L455.8438,648.4375 L460.6094,648.4375 L460.6094,650.5938 L455.8438,650.5938 L455.8438,653.8438 L461.1094,653.8438 L461.1094,656 Z "/><text fill="#000000" font-family="sans-serif" font-size="12" font-weight="bold" lengthAdjust="spacingAndGlyphs" textLength="71" x="472" y="654.1543">ErrorCode</text><line style="stroke: #A80036; stroke-width: 1.5;" x1="438.5" x2="549.5" y1="666" y2="666"/><text fill="#000000" font-family="sans-serif" font-size="11" lengthAdjust="spacingAndGlyphs" textLength="81" x="443.5" y="680.2104">INVALID_INPUT</text><text fill="#000000" font-family="sans-serif" font-size="11" lengthAdjust="spacingAndGlyphs" textLength="101" x="443.5" y="693.0151">LLM_UNAVAILABLE</text><text fill="#000000" font-family="sans-serif" font-size="11" lengthAdjust="spacingAndGlyphs" textLength="79" x="443.5" y="705.8198">PARSE_ERROR</text><line style="stroke: #A80036; stroke-width: 1.5;" x1="438.5" x2="549.5" y1="712.4141" y2="712.4141"/><!--MD5=[5cbcdbbc9d99dd605f2fdaaae8079a0a]
class LlmUnavailableException--><rect fill="#FEFECE" filter="url(#fvxoaybeej70r)" height="60.8047" id="LlmUnavailableException" style="stroke: #A80036; stroke-width: 1.5;" width="372" x="1271" y="470.5"/><ellipse cx="1365.25" cy="486.5" fill="#ADD1B2" rx="11" ry="11" style="stroke: #A80036; stroke-width: 1.0;"/><path d="M1368.2188,492.1406 Q1367.6406,492.4375 1367,492.5781 Q1366.3594,492.7344 1365.6563,492.7344 Q1363.1563,492.7344 1361.8281,491.0938 Q1360.5156,489.4375 1360.5156,486.3125 Q1360.5156,483.1875 1361.8281,481.5313 Q1363.1563,479.875 1365.6563,479.875 Q1366.3594,479.875 1367,480.0313 Q1367.6563,480.1875 1368.2188,480.4844 L1368.2188,483.2031 Q1367.5938,482.625 1367,482.3594 Q1366.4063,482.0781 1365.7813,482.0781 Q1364.4375,482.0781 1363.75,483.1563 Q1363.0625,484.2188 1363.0625,486.3125 Q1363.0625,488.4063 1363.75,489.4844 Q1364.4375,490.5469 1365.7813,490.5469 Q1366.4063,490.5469 1367,490.2813 Q1367.5938,490 1368.2188,489.4219 L1368.2188,492.1406 Z "/><text fill="#000000" font-family="sans-serif" font-size="12" font-weight="bold" lengthAdjust="spacingAndGlyphs" textLength="175" x="1385.75" y="490.6543">LlmUnavailableException</text><line style="stroke: #A80036; stroke-width: 1.5;" x1="1272" x2="1642" y1="502.5" y2="502.5"/><line style="stroke: #A80036; stroke-width: 1.5;" x1="1272" x2="1642" y1="510.5" y2="510.5"/><text fill="#000000" font-family="sans-serif" font-size="11" lengthAdjust="spacingAndGlyphs" textLength="360" x="1277" y="524.7104">+LlmUnavailableException(message: String, cause: Throwable)</text><!--MD5=[52221cc32b96c3919957b075938e0d1c]
class ParseException--><rect fill="#FEFECE" filter="url(#fvxoaybeej70r)" height="60.8047" id="ParseException" style="stroke: #A80036; stroke-width: 1.5;" width="282" x="954" y="470.5"/><ellipse cx="1036.25" cy="486.5" fill="#ADD1B2" rx="11" ry="11" style="stroke: #A80036; stroke-width: 1.0;"/><path d="M1039.2188,492.1406 Q1038.6406,492.4375 1038,492.5781 Q1037.3594,492.7344 1036.6563,492.7344 Q1034.1563,492.7344 1032.8281,491.0938 Q1031.5156,489.4375 1031.5156,486.3125 Q1031.5156,483.1875 1032.8281,481.5313 Q1034.1563,479.875 1036.6563,479.875 Q1037.3594,479.875 1038,480.0313 Q1038.6563,480.1875 1039.2188,480.4844 L1039.2188,483.2031 Q1038.5938,482.625 1038,482.3594 Q1037.4063,482.0781 1036.7813,482.0781 Q1035.4375,482.0781 1034.75,483.1563 Q1034.0625,484.2188 1034.0625,486.3125 Q1034.0625,488.4063 1034.75,489.4844 Q1035.4375,490.5469 1036.7813,490.5469 Q1037.4063,490.5469 1038,490.2813 Q1038.5938,490 1039.2188,489.4219 L1039.2188,492.1406 Z "/><text fill="#000000" font-family="sans-serif" font-size="12" font-weight="bold" lengthAdjust="spacingAndGlyphs" textLength="109" x="1056.75" y="490.6543">ParseException</text><line style="stroke: #A80036; stroke-width: 1.5;" x1="955" x2="1235" y1="502.5" y2="502.5"/><line style="stroke: #A80036; stroke-width: 1.5;" x1="955" x2="1235" y1="510.5" y2="510.5"/><text fill="#000000" font-family="sans-serif" font-size="11" lengthAdjust="spacingAndGlyphs" textLength="270" x="960" y="524.7104">+ParseException(message: String, raw: String)</text><!--MD5=[0bf6cc7671acd830f68456d528990499]
class GlobalExceptionHandler--><rect fill="#FEFECE" filter="url(#fvxoaybeej70r)" height="99.2188" id="GlobalExceptionHandler" style="stroke: #A80036; stroke-width: 1.5;" width="537" x="803.5" y="239.5"/><ellipse cx="983.25" cy="255.5" fill="#ADD1B2" rx="11" ry="11" style="stroke: #A80036; stroke-width: 1.0;"/><path d="M986.2188,261.1406 Q985.6406,261.4375 985,261.5781 Q984.3594,261.7344 983.6563,261.7344 Q981.1563,261.7344 979.8281,260.0938 Q978.5156,258.4375 978.5156,255.3125 Q978.5156,252.1875 979.8281,250.5313 Q981.1563,248.875 983.6563,248.875 Q984.3594,248.875 985,249.0313 Q985.6563,249.1875 986.2188,249.4844 L986.2188,252.2031 Q985.5938,251.625 985,251.3594 Q984.4063,251.0781 983.7813,251.0781 Q982.4375,251.0781 981.75,252.1563 Q981.0625,253.2188 981.0625,255.3125 Q981.0625,257.4063 981.75,258.4844 Q982.4375,259.5469 983.7813,259.5469 Q984.4063,259.5469 985,259.2813 Q985.5938,259 986.2188,258.4219 L986.2188,261.1406 Z "/><text fill="#000000" font-family="sans-serif" font-size="12" font-weight="bold" lengthAdjust="spacingAndGlyphs" textLength="169" x="1003.75" y="259.6543">GlobalExceptionHandler</text><line style="stroke: #A80036; stroke-width: 1.5;" x1="804.5" x2="1339.5" y1="271.5" y2="271.5"/><line style="stroke: #A80036; stroke-width: 1.5;" x1="804.5" x2="1339.5" y1="279.5" y2="279.5"/><text fill="#000000" font-family="sans-serif" font-size="11" lengthAdjust="spacingAndGlyphs" textLength="525" x="809.5" y="293.7104">+handleValidation(ex: MethodArgumentNotValidException): ResponseEntity&lt;ErrorResponse&gt;</text><text fill="#000000" font-family="sans-serif" font-size="11" lengthAdjust="spacingAndGlyphs" textLength="498" x="809.5" y="306.5151">+handleLlmUnavailable(ex: LlmUnavailableException): ResponseEntity&lt;ErrorResponse&gt;</text><text fill="#000000" font-family="sans-serif" font-size="11" lengthAdjust="spacingAndGlyphs" textLength="423" x="809.5" y="319.3198">+handleParseError(ex: ParseException): ResponseEntity&lt;ErrorResponse&gt;</text><text fill="#000000" font-family="sans-serif" font-size="11" lengthAdjust="spacingAndGlyphs" textLength="372" x="809.5" y="332.1245">+handleGeneric(ex: Exception): ResponseEntity&lt;ErrorResponse&gt;</text><!--MD5=[5392e97adaaab1f1ca976cc794ef5ccc]
class ChatClient--><rect fill="#FEFECE" filter="url(#fvxoaybeej70r)" height="66.7422" id="ChatClient" style="stroke: #A80036; stroke-width: 1.5;" width="228" x="589" y="467.5"/><ellipse cx="661.75" cy="486.4688" fill="#ADD1B2" rx="11" ry="11" style="stroke: #A80036; stroke-width: 1.0;"/><path d="M664.7188,492.1094 Q664.1406,492.4063 663.5,492.5469 Q662.8594,492.7031 662.1563,492.7031 Q659.6563,492.7031 658.3281,491.0625 Q657.0156,489.4063 657.0156,486.2813 Q657.0156,483.1563 658.3281,481.5 Q659.6563,479.8438 662.1563,479.8438 Q662.8594,479.8438 663.5,480 Q664.1563,480.1563 664.7188,480.4531 L664.7188,483.1719 Q664.0938,482.5938 663.5,482.3281 Q662.9063,482.0469 662.2813,482.0469 Q660.9375,482.0469 660.25,483.125 Q659.5625,484.1875 659.5625,486.2813 Q659.5625,488.375 660.25,489.4531 Q660.9375,490.5156 662.2813,490.5156 Q662.9063,490.5156 663.5,490.25 Q664.0938,489.9688 664.7188,489.3906 L664.7188,492.1094 Z "/><text fill="#000000" font-family="sans-serif" font-size="12" font-style="italic" lengthAdjust="spacingAndGlyphs" textLength="66" x="686.25" y="483.6387">«external»</text><text fill="#000000" font-family="sans-serif" font-size="12" font-weight="bold" lengthAdjust="spacingAndGlyphs" textLength="74" x="682.25" y="497.6074">ChatClient</text><line style="stroke: #A80036; stroke-width: 1.5;" x1="590" x2="816" y1="505.4375" y2="505.4375"/><line style="stroke: #A80036; stroke-width: 1.5;" x1="590" x2="816" y1="513.4375" y2="513.4375"/><text fill="#000000" font-family="sans-serif" font-size="11" lengthAdjust="spacingAndGlyphs" textLength="216" x="595" y="527.6479">+call(prompt: Prompt): ChatResponse</text><!--MD5=[5c6c7d52e42032554528404b62c1d271]
class RuntimeException--><rect fill="#FEFECE" filter="url(#fvxoaybeej70r)" height="48" id="RuntimeException" style="stroke: #A80036; stroke-width: 1.5;" width="158" x="1197" y="653"/><ellipse cx="1212" cy="669" fill="#ADD1B2" rx="11" ry="11" style="stroke: #A80036; stroke-width: 1.0;"/><path d="M1214.9688,674.6406 Q1214.3906,674.9375 1213.75,675.0781 Q1213.1094,675.2344 1212.4063,675.2344 Q1209.9063,675.2344 1208.5781,673.5938 Q1207.2656,671.9375 1207.2656,668.8125 Q1207.2656,665.6875 1208.5781,664.0313 Q1209.9063,662.375 1212.4063,662.375 Q1213.1094,662.375 1213.75,662.5313 Q1214.4063,662.6875 1214.9688,662.9844 L1214.9688,665.7031 Q1214.3438,665.125 1213.75,664.8594 Q1213.1563,664.5781 1212.5313,664.5781 Q1211.1875,664.5781 1210.5,665.6563 Q1209.8125,666.7188 1209.8125,668.8125 Q1209.8125,670.9063 1210.5,671.9844 Q1211.1875,673.0469 1212.5313,673.0469 Q1213.1563,673.0469 1213.75,672.7813 Q1214.3438,672.5 1214.9688,671.9219 L1214.9688,674.6406 Z "/><text fill="#000000" font-family="sans-serif" font-size="12" font-weight="bold" lengthAdjust="spacingAndGlyphs" textLength="126" x="1226" y="673.1543">RuntimeException</text><line style="stroke: #A80036; stroke-width: 1.5;" x1="1198" x2="1354" y1="685" y2="685"/><line style="stroke: #A80036; stroke-width: 1.5;" x1="1198" x2="1354" y1="693" y2="693"/><!--MD5=[ca1d5d877907d9c8daa7d4c900f822cd]
link TextAnalysisController to TextAnalysisService--><path d="M453.75,133.21 C453.75,133.21 453.75,227.88 453.75,227.88 " fill="none" id="TextAnalysisController-&gt;TextAnalysisService" style="stroke: #A80036; stroke-width: 1.0;"/><polygon fill="#A80036" points="453.75,232.88,457.75,223.88,453.75,227.88,449.75,223.88,453.75,232.88" style="stroke: #A80036; stroke-width: 1.0;"/><text fill="#000000" font-family="sans-serif" font-size="13" lengthAdjust="spacingAndGlyphs" textLength="30" x="457" y="178.0669">uses</text><!--MD5=[de755979e0835af4040eea6680d95e41]
link TextAnalysisService to ChatClient--><path d="M652,345.26 C652,345.26 652,462.36 652,462.36 " fill="none" id="TextAnalysisService-&gt;ChatClient" style="stroke: #A80036; stroke-width: 1.0;"/><polygon fill="#A80036" points="652,467.36,656,458.36,652,462.36,648,458.36,652,467.36" style="stroke: #A80036; stroke-width: 1.0;"/><text fill="#000000" font-family="sans-serif" font-size="13" lengthAdjust="spacingAndGlyphs" textLength="30" x="564" y="390.0669">uses</text><!--MD5=[7ae27f8c7621c233bd69bc5e794f8a12]
link TextAnalysisController to AnalyzeRequest--><path d="M120.17,133.01 C120.17,133.01 120.17,465.41 120.17,465.41 " fill="none" id="TextAnalysisController-&gt;AnalyzeRequest" style="stroke: #A80036; stroke-width: 1.0; stroke-dasharray: 7.0,7.0;"/><polygon fill="#A80036" points="120.17,470.41,124.17,461.41,120.17,465.41,116.17,461.41,120.17,470.41" style="stroke: #A80036; stroke-width: 1.0;"/><text fill="#000000" font-family="sans-serif" font-size="13" lengthAdjust="spacingAndGlyphs" textLength="50" x="146" y="293.5669">accepts</text><!--MD5=[c53aca6a522b75e76c47adcac053a723]
link TextAnalysisController to AnalysisResponse--><path d="M301,133.01 C301,133.01 301,439.7 301,439.7 " fill="none" id="TextAnalysisController-&gt;AnalysisResponse" style="stroke: #A80036; stroke-width: 1.0; stroke-dasharray: 7.0,7.0;"/><polygon fill="#A80036" points="301,444.7,305,435.7,301,439.7,297,435.7,301,444.7" style="stroke: #A80036; stroke-width: 1.0;"/><text fill="#000000" font-family="sans-serif" font-size="13" lengthAdjust="spacingAndGlyphs" textLength="46" x="302" y="293.5669">returns</text><!--MD5=[270934d3d87b53c52c8b791b5af52180]
link TextAnalysisService to AnalyzeRequest--><path d="M392.85,289 C281.31,289 152.83,289 152.83,289 C152.83,289 152.83,465.17 152.83,465.17 " fill="none" id="TextAnalysisService-&gt;AnalyzeRequest" style="stroke: #A80036; stroke-width: 1.0; stroke-dasharray: 7.0,7.0;"/><polygon fill="#A80036" points="152.83,470.17,156.83,461.17,152.83,465.17,148.83,461.17,152.83,470.17" style="stroke: #A80036; stroke-width: 1.0;"/><text fill="#000000" font-family="sans-serif" font-size="13" lengthAdjust="spacingAndGlyphs" textLength="36" x="366" y="390.0669">reads</text><!--MD5=[ff4f054a32ac09bbd81f3d903df2316a]
link TextAnalysisService to AnalysisResponse--><path d="M404.75,345.27 C404.75,394.44 404.75,458 404.75,458 C404.75,458 386.72,458 386.72,458 " fill="none" id="TextAnalysisService-&gt;AnalysisResponse" style="stroke: #A80036; stroke-width: 1.0; stroke-dasharray: 7.0,7.0;"/><polygon fill="#A80036" points="381.72,458,390.72,462,386.72,458,390.72,454,381.72,458" style="stroke: #A80036; stroke-width: 1.0;"/><text fill="#000000" font-family="sans-serif" font-size="13" lengthAdjust="spacingAndGlyphs" textLength="59" x="456" y="390.0669">produces</text><!--MD5=[ea35923e8ca1c8141ec31639204c4231]
link TextAnalysisService to LlmUnavailableException--><path d="M620.5,345.23 C620.5,363.42 620.5,379 620.5,379 C620.5,379 1294.17,379 1294.17,379 C1294.17,379 1294.17,465.21 1294.17,465.21 " fill="none" id="TextAnalysisService-&gt;LlmUnavailableException" style="stroke: #A80036; stroke-width: 1.0; stroke-dasharray: 7.0,7.0;"/><polygon fill="#A80036" points="1294.17,470.21,1298.17,461.21,1294.17,465.21,1290.17,461.21,1294.17,470.21" style="stroke: #A80036; stroke-width: 1.0;"/><text fill="#000000" font-family="sans-serif" font-size="13" lengthAdjust="spacingAndGlyphs" textLength="42" x="720" y="390.0669">throws</text><!--MD5=[1a8012168eddcebc25b1856567c124b1]
link TextAnalysisService to ParseException--><path d="M683.5,345.1 C683.5,392.25 683.5,452 683.5,452 C683.5,452 1048,452 1048,452 C1048,452 1048,465.25 1048,465.25 " fill="none" id="TextAnalysisService-&gt;ParseException" style="stroke: #A80036; stroke-width: 1.0; stroke-dasharray: 7.0,7.0;"/><polygon fill="#A80036" points="1048,470.25,1052,461.25,1048,465.25,1044,461.25,1048,470.25" style="stroke: #A80036; stroke-width: 1.0;"/><text fill="#000000" font-family="sans-serif" font-size="13" lengthAdjust="spacingAndGlyphs" textLength="42" x="636" y="390.0669">throws</text><!--MD5=[9e1ed9971e8d7ffa4c6c6b0d9bba0ebd]
link GlobalExceptionHandler to LlmUnavailableException--><path d="M1317.33,338.7 C1317.33,338.7 1317.33,465.3 1317.33,465.3 " fill="none" id="GlobalExceptionHandler-&gt;LlmUnavailableException" style="stroke: #A80036; stroke-width: 1.0; stroke-dasharray: 7.0,7.0;"/><polygon fill="#A80036" points="1317.33,470.3,1321.33,461.3,1317.33,465.3,1313.33,461.3,1317.33,470.3" style="stroke: #A80036; stroke-width: 1.0;"/><text fill="#000000" font-family="sans-serif" font-size="13" lengthAdjust="spacingAndGlyphs" textLength="50" x="1322" y="390.0669">handles</text><!--MD5=[51eead38ad3f0149235fc290e046e670]
link GlobalExceptionHandler to ParseException--><path d="M1142,338.7 C1142,338.7 1142,465.3 1142,465.3 " fill="none" id="GlobalExceptionHandler-&gt;ParseException" style="stroke: #A80036; stroke-width: 1.0; stroke-dasharray: 7.0,7.0;"/><polygon fill="#A80036" points="1142,470.3,1146,461.3,1142,465.3,1138,461.3,1142,470.3" style="stroke: #A80036; stroke-width: 1.0;"/><text fill="#000000" font-family="sans-serif" font-size="13" lengthAdjust="spacingAndGlyphs" textLength="50" x="1084" y="390.0669">handles</text><!--MD5=[d7dd3d784598f73100c39d2df611899e]
link GlobalExceptionHandler to ErrorResponse--><path d="M810.25,338.67 C810.25,372.81 810.25,412 810.25,412 C810.25,412 485,412 485,412 C485,412 485,458.77 485,458.77 " fill="none" id="GlobalExceptionHandler-&gt;ErrorResponse" style="stroke: #A80036; stroke-width: 1.0; stroke-dasharray: 7.0,7.0;"/><polygon fill="#A80036" points="485,463.77,489,454.77,485,458.77,481,454.77,485,463.77" style="stroke: #A80036; stroke-width: 1.0;"/><text fill="#000000" font-family="sans-serif" font-size="13" lengthAdjust="spacingAndGlyphs" textLength="59" x="804" y="390.0669">produces</text><!--MD5=[0e46dead6b18754903429f3c5972c8ce]
link GlobalExceptionHandler to ErrorCode--><path d="M885.5,338.74 C885.5,436.44 885.5,644 885.5,644 C885.5,644 555.51,644 555.51,644 " fill="none" id="GlobalExceptionHandler-&gt;ErrorCode" style="stroke: #A80036; stroke-width: 1.0; stroke-dasharray: 7.0,7.0;"/><polygon fill="#A80036" points="550.51,644,559.51,648,555.51,644,559.51,640,550.51,644" style="stroke: #A80036; stroke-width: 1.0;"/><text fill="#000000" font-family="sans-serif" font-size="13" lengthAdjust="spacingAndGlyphs" textLength="30" x="888" y="505.5669">uses</text><!--MD5=[3f09eda78f7c99815336a97b2112fc12]
link ErrorResponse to ErrorCode--><path d="M494,538.33 C494,538.33 494,628.84 494,628.84 " fill="none" id="ErrorResponse-&gt;ErrorCode" style="stroke: #A80036; stroke-width: 1.0;"/><polygon fill="#A80036" points="494,633.84,498,624.84,494,628.84,490,624.84,494,633.84" style="stroke: #A80036; stroke-width: 1.0;"/><text fill="#000000" font-family="sans-serif" font-size="13" lengthAdjust="spacingAndGlyphs" textLength="30" x="489" y="600.0669">uses</text><!--MD5=[98ca6bfa44ecdefc6a5bf4fa2084c2a8]
link LlmUnavailableException to RuntimeException--><path d="M1313,531.66 C1313,531.66 1313,632.91 1313,632.91 " fill="none" id="LlmUnavailableException-&gt;RuntimeException" style="stroke: #A80036; stroke-width: 1.0;"/><polygon fill="none" points="1320,632.91,1313,652.91,1306,632.91,1320,632.91" style="stroke: #A80036; stroke-width: 1.0;"/><!--MD5=[12683b31aa232a81654aa52f938076d4]
link ParseException to RuntimeException--><path d="M1216.5,531.66 C1216.5,531.66 1216.5,632.91 1216.5,632.91 " fill="none" id="ParseException-&gt;RuntimeException" style="stroke: #A80036; stroke-width: 1.0;"/><polygon fill="none" points="1223.5,632.91,1216.5,652.91,1209.5,632.91,1223.5,632.91" style="stroke: #A80036; stroke-width: 1.0;"/><!--MD5=[830b3a75cf143e5fe21d6bd5a28faf53]
@startuml class-diagram

skinparam classAttributeIconSize 0
skinparam classFontStyle bold
skinparam linetype ortho

package "controller" {
  class TextAnalysisController {
    - service: TextAnalysisService
    + analyze(request: AnalyzeRequest): ResponseEntity<AnalysisResponse>
  }
}

package "service" {
  class TextAnalysisService {
    - chatClient: ChatClient
    + analyze(request: AnalyzeRequest): AnalysisResponse
    - buildPrompt(text: String): String
    - parseResponse(raw: String): AnalysisResponse
    - logUsage(usage: Usage, latencyMs: long): void
  }
}

package "dto" {
  class AnalyzeRequest {
    - text: String
  }

  class AnalysisResponse {
    - summary: String
    - sentiment: String
    - confidence: double
    - keyTopics: List<String>
    - wordCountEstimate: int
  }

  class ErrorResponse {
    - error: String
    - code: ErrorCode
  }

  enum ErrorCode {
    INVALID_INPUT
    LLM_UNAVAILABLE
    PARSE_ERROR
  }
}

package "exception" {
  class LlmUnavailableException {
    + LlmUnavailableException(message: String, cause: Throwable)
  }

  class ParseException {
    + ParseException(message: String, raw: String)
  }
}

package "exception.handler" {
  class GlobalExceptionHandler {
    + handleValidation(ex: MethodArgumentNotValidException): ResponseEntity<ErrorResponse>
    + handleLlmUnavailable(ex: LlmUnavailableException): ResponseEntity<ErrorResponse>
    + handleParseError(ex: ParseException): ResponseEntity<ErrorResponse>
    + handleGeneric(ex: Exception): ResponseEntity<ErrorResponse>
  }
}

TextAnalysisController - -> TextAnalysisService : uses

TextAnalysisService - -> ChatClient : uses

TextAnalysisController ..> AnalyzeRequest : accepts
TextAnalysisController ..> AnalysisResponse : returns

TextAnalysisService ..> AnalyzeRequest : reads
TextAnalysisService ..> AnalysisResponse : produces

TextAnalysisService ..> LlmUnavailableException : «throws»
TextAnalysisService ..> ParseException : «throws»

GlobalExceptionHandler ..> LlmUnavailableException : «handles»
GlobalExceptionHandler ..> ParseException : «handles»
GlobalExceptionHandler ..> ErrorResponse : produces
GlobalExceptionHandler ..> ErrorCode : uses

ErrorResponse - -> ErrorCode : uses

LlmUnavailableException - -|> RuntimeException
ParseException - -|> RuntimeException

class ChatClient <<external>> {
  + call(prompt: Prompt): ChatResponse
}

@enduml

PlantUML version 1.2020.02(Sun Mar 01 10:22:07 UTC 2020)
(GPL source distribution)
Java Runtime: OpenJDK Runtime Environment
JVM: OpenJDK 64-Bit Server VM
Java Version: 17.0.19+10
Operating System: Linux
Default Encoding: UTF-8
Language: en
Country: null
--></g></svg>