<?xml version="1.0" encoding="UTF-8" standalone="no"?><svg xmlns="http://www.w3.org/2000/svg" xmlns:xlink="http://www.w3.org/1999/xlink" contentScriptType="application/ecmascript" contentStyleType="text/css" height="850px" preserveAspectRatio="none" style="width:1983px;height:850px;" version="1.1" viewBox="0 0 1983 850" width="1983px" zoomAndPan="magnify"><defs><filter height="300%" id="f16vgb1lur6hw7" width="300%" x="-1" y="-1"><feGaussianBlur result="blurOut" stdDeviation="2.0"/><feColorMatrix in="blurOut" result="blurOut2" type="matrix" values="0 0 0 0 0 0 0 0 0 0 0 0 0 0 0 0 0 0 .4 0"/><feOffset dx="4.0" dy="4.0" in="blurOut2" result="blurOut3"/><feBlend in="SourceGraphic" in2="blurOut3" mode="normal"/></filter></defs><g><!--MD5=[10ea673caf457862023e152271927b45]
cluster controller--><polygon fill="#FFFFFF" filter="url(#f16vgb1lur6hw7)" points="205,24,288,24,295,46.2969,559,46.2969,559,161,205,161,205,24" style="stroke: #000000; stroke-width: 1.5;"/><line style="stroke: #000000; stroke-width: 1.5;" x1="205" x2="295" y1="46.2969" y2="46.2969"/><text fill="#000000" font-family="sans-serif" font-size="14" font-weight="bold" lengthAdjust="spacingAndGlyphs" textLength="77" x="209" y="38.9951">controller</text><!--MD5=[7579d5565d2521d5936cec86ed3dadee]
cluster service--><polygon fill="#FFFFFF" filter="url(#f16vgb1lur6hw7)" points="524,210,588,210,595,232.2969,904,232.2969,904,424,524,424,524,210" style="stroke: #000000; stroke-width: 1.5;"/><line style="stroke: #000000; stroke-width: 1.5;" x1="524" x2="595" y1="232.2969" y2="232.2969"/><text fill="#000000" font-family="sans-serif" font-size="14" font-weight="bold" lengthAdjust="spacingAndGlyphs" textLength="58" x="528" y="224.9951">service</text><!--MD5=[e6eced616a98d47334dd1aaaa829ffd5]
cluster dto--><polygon fill="#FFFFFF" filter="url(#f16vgb1lur6hw7)" points="22,473,54,473,61,495.2969,762,495.2969,762,838,22,838,22,473" style="stroke: #000000; stroke-width: 1.5;"/><line style="stroke: #000000; stroke-width: 1.5;" x1="22" x2="61" y1="495.2969" y2="495.2969"/><text fill="#000000" font-family="sans-serif" font-size="14" font-weight="bold" lengthAdjust="spacingAndGlyphs" textLength="26" x="26" y="487.9951">dto</text><!--MD5=[11f03a07a4422c8eb8f650dbf201ac41]
cluster exception--><polygon fill="#FFFFFF" filter="url(#f16vgb1lur6hw7)" points="1130,498.5,1214,498.5,1221,520.7969,1961,520.7969,1961,610.5,1130,610.5,1130,498.5" style="stroke: #000000; stroke-width: 1.5;"/><line style="stroke: #000000; stroke-width: 1.5;" x1="1130" x2="1221" y1="520.7969" y2="520.7969"/><text fill="#000000" font-family="sans-serif" font-size="14" font-weight="bold" lengthAdjust="spacingAndGlyphs" textLength="78" x="1134" y="513.4951">exception</text><!--MD5=[5b7d7b6f636429b28b22fd98dc46cd1b]
cluster exception.handler--><polygon fill="#FFFFFF" filter="url(#f16vgb1lur6hw7)" points="977,242,1126,242,1133,264.2969,1547,264.2969,1547,392,977,392,977,242" style="stroke: #000000; stroke-width: 1.5;"/><line style="stroke: #000000; stroke-width: 1.5;" x1="977" x2="1133" y1="264.2969" y2="264.2969"/><text fill="#000000" font-family="sans-serif" font-size="14" font-weight="bold" lengthAdjust="spacingAndGlyphs" textLength="143" x="981" y="256.9951">exception.handler</text><!--MD5=[07d2bcfdd1f5b6267d4746aeadaa7923]
class TextAnalysisController--><rect fill="#FEFECE" filter="url(#f16vgb1lur6hw7)" height="86.4141" id="TextAnalysisController" style="stroke: #A80036; stroke-width: 1.5;" width="322" x="221" y="59"/><ellipse cx="297.75" cy="75" fill="#ADD1B2" rx="11" ry="11" style="stroke: #A80036; stroke-width: 1.0;"/><path d="M300.7188,80.6406 Q300.1406,80.9375 299.5,81.0781 Q298.8594,81.2344 298.1563,81.2344 Q295.6563,81.2344 294.3281,79.5938 Q293.0156,77.9375 293.0156,74.8125 Q293.0156,71.6875 294.3281,70.0313 Q295.6563,68.375 298.1563,68.375 Q298.8594,68.375 299.5,68.5313 Q300.1563,68.6875 300.7188,68.9844 L300.7188,71.7031 Q300.0938,71.125 299.5,70.8594 Q298.9063,70.5781 298.2813,70.5781 Q296.9375,70.5781 296.25,71.6563 Q295.5625,72.7188 295.5625,74.8125 Q295.5625,76.9063 296.25,77.9844 Q296.9375,79.0469 298.2813,79.0469 Q298.9063,79.0469 299.5,78.7813 Q300.0938,78.5 300.7188,77.9219 L300.7188,80.6406 Z "/><text fill="#000000" font-family="sans-serif" font-size="12" font-weight="bold" lengthAdjust="spacingAndGlyphs" textLength="160" x="318.25" y="79.1543">TextAnalysisController</text><line style="stroke: #A80036; stroke-width: 1.5;" x1="222" x2="542" y1="91" y2="91"/><text fill="#000000" font-family="sans-serif" font-size="11" lengthAdjust="spacingAndGlyphs" textLength="166" x="227" y="105.2104">-service: TextAnalysisService</text><line style="stroke: #A80036; stroke-width: 1.5;" x1="222" x2="542" y1="111.8047" y2="111.8047"/><text fill="#000000" font-family="sans-serif" font-size="11" lengthAdjust="spacingAndGlyphs" textLength="310" x="227" y="126.0151">+analyze(request: AnalyzeRequest): AnalysisResponse</text><text fill="#000000" font-family="sans-serif" font-size="11" lengthAdjust="spacingAndGlyphs" textLength="309" x="227" y="138.8198">+classify(request: AnalyzeRequest): ClassifyResponse</text><!--MD5=[0be206d0152edf725601f1f50a97a3b2]
class TextAnalysisService--><rect fill="#FEFECE" filter="url(#f16vgb1lur6hw7)" height="163.2422" id="TextAnalysisService" style="stroke: #A80036; stroke-width: 1.5;" width="348" x="540" y="245"/><ellipse cx="639.75" cy="261" fill="#ADD1B2" rx="11" ry="11" style="stroke: #A80036; stroke-width: 1.0;"/><path d="M642.7188,266.6406 Q642.1406,266.9375 641.5,267.0781 Q640.8594,267.2344 640.1563,267.2344 Q637.6563,267.2344 636.3281,265.5938 Q635.0156,263.9375 635.0156,260.8125 Q635.0156,257.6875 636.3281,256.0313 Q637.6563,254.375 640.1563,254.375 Q640.8594,254.375 641.5,254.5313 Q642.1563,254.6875 642.7188,254.9844 L642.7188,257.7031 Q642.0938,257.125 641.5,256.8594 Q640.9063,256.5781 640.2813,256.5781 Q638.9375,256.5781 638.25,257.6563 Q637.5625,258.7188 637.5625,260.8125 Q637.5625,262.9063 638.25,263.9844 Q638.9375,265.0469 640.2813,265.0469 Q640.9063,265.0469 641.5,264.7813 Q642.0938,264.5 642.7188,263.9219 L642.7188,266.6406 Z "/><text fill="#000000" font-family="sans-serif" font-size="12" font-weight="bold" lengthAdjust="spacingAndGlyphs" textLength="140" x="660.25" y="265.1543">TextAnalysisService</text><line style="stroke: #A80036; stroke-width: 1.5;" x1="541" x2="887" y1="277" y2="277"/><text fill="#000000" font-family="sans-serif" font-size="11" lengthAdjust="spacingAndGlyphs" textLength="126" x="546" y="291.2104">-chatClient: ChatClient</text><text fill="#000000" font-family="sans-serif" font-size="11" lengthAdjust="spacingAndGlyphs" textLength="166" x="546" y="304.0151">-objectMapper: ObjectMapper</text><text fill="#000000" font-family="sans-serif" font-size="11" lengthAdjust="spacingAndGlyphs" textLength="129" x="546" y="316.8198">-systemPrompt: String</text><text fill="#000000" font-family="sans-serif" font-size="11" lengthAdjust="spacingAndGlyphs" textLength="130" x="546" y="329.6245">-classifyPrompt: String</text><line style="stroke: #A80036; stroke-width: 1.5;" x1="541" x2="887" y1="336.2188" y2="336.2188"/><text fill="#000000" font-family="sans-serif" font-size="11" lengthAdjust="spacingAndGlyphs" textLength="310" x="546" y="350.4292">+analyze(request: AnalyzeRequest): AnalysisResponse</text><text fill="#000000" font-family="sans-serif" font-size="11" lengthAdjust="spacingAndGlyphs" textLength="309" x="546" y="363.2339">+classify(request: AnalyzeRequest): ClassifyResponse</text><text fill="#000000" font-family="sans-serif" font-size="11" lengthAdjust="spacingAndGlyphs" textLength="275" x="546" y="376.0386">-parseResponse(raw: String): AnalysisResponse</text><text fill="#000000" font-family="sans-serif" font-size="11" lengthAdjust="spacingAndGlyphs" textLength="283" x="546" y="388.8433">-classifyResponse(raw: String): ClassifyResponse</text><text fill="#000000" font-family="sans-serif" font-size="11" lengthAdjust="spacingAndGlyphs" textLength="336" x="546" y="401.6479">-logUsage(response: ChatResponse, latencyMs: long): void</text><!--MD5=[70c56c1f9ac4dc4ae10652bd270759c3]
class AnalyzeRequest--><rect fill="#FEFECE" filter="url(#f16vgb1lur6hw7)" height="60.8047" id="AnalyzeRequest" style="stroke: #A80036; stroke-width: 1.5;" width="147" x="426.5" y="533.5"/><ellipse cx="441.5" cy="549.5" fill="#ADD1B2" rx="11" ry="11" style="stroke: #A80036; stroke-width: 1.0;"/><path d="M444.4688,555.1406 Q443.8906,555.4375 443.25,555.5781 Q442.6094,555.7344 441.9063,555.7344 Q439.4063,555.7344 438.0781,554.0938 Q436.7656,552.4375 436.7656,549.3125 Q436.7656,546.1875 438.0781,544.5313 Q439.4063,542.875 441.9063,542.875 Q442.6094,542.875 443.25,543.0313 Q443.9063,543.1875 444.4688,543.4844 L444.4688,546.2031 Q443.8438,545.625 443.25,545.3594 Q442.6563,545.0781 442.0313,545.0781 Q440.6875,545.0781 440,546.1563 Q439.3125,547.2188 439.3125,549.3125 Q439.3125,551.4063 440,552.4844 Q440.6875,553.5469 442.0313,553.5469 Q442.6563,553.5469 443.25,553.2813 Q443.8438,553 444.4688,552.4219 L444.4688,555.1406 Z "/><text fill="#000000" font-family="sans-serif" font-size="12" font-weight="bold" lengthAdjust="spacingAndGlyphs" textLength="115" x="455.5" y="553.6543">AnalyzeRequest</text><line style="stroke: #A80036; stroke-width: 1.5;" x1="427.5" x2="572.5" y1="565.5" y2="565.5"/><text fill="#000000" font-family="sans-serif" font-size="11" lengthAdjust="spacingAndGlyphs" textLength="67" x="432.5" y="579.7104">-text: String</text><line style="stroke: #A80036; stroke-width: 1.5;" x1="427.5" x2="572.5" y1="586.3047" y2="586.3047"/><!--MD5=[5868ba203e3e21a7282960d5a1b712b7]
class AnalysisResponse--><rect fill="#FEFECE" filter="url(#f16vgb1lur6hw7)" height="112.0234" id="AnalysisResponse" style="stroke: #A80036; stroke-width: 1.5;" width="161" x="230.5" y="508"/><ellipse cx="245.5" cy="524" fill="#ADD1B2" rx="11" ry="11" style="stroke: #A80036; stroke-width: 1.0;"/><path d="M248.4688,529.6406 Q247.8906,529.9375 247.25,530.0781 Q246.6094,530.2344 245.9063,530.2344 Q243.4063,530.2344 242.0781,528.5938 Q240.7656,526.9375 240.7656,523.8125 Q240.7656,520.6875 242.0781,519.0313 Q243.4063,517.375 245.9063,517.375 Q246.6094,517.375 247.25,517.5313 Q247.9063,517.6875 248.4688,517.9844 L248.4688,520.7031 Q247.8438,520.125 247.25,519.8594 Q246.6563,519.5781 246.0313,519.5781 Q244.6875,519.5781 244,520.6563 Q243.3125,521.7188 243.3125,523.8125 Q243.3125,525.9063 244,526.9844 Q244.6875,528.0469 246.0313,528.0469 Q246.6563,528.0469 247.25,527.7813 Q247.8438,527.5 248.4688,526.9219 L248.4688,529.6406 Z "/><text fill="#000000" font-family="sans-serif" font-size="12" font-weight="bold" lengthAdjust="spacingAndGlyphs" textLength="129" x="259.5" y="528.1543">AnalysisResponse</text><line style="stroke: #A80036; stroke-width: 1.5;" x1="231.5" x2="390.5" y1="540" y2="540"/><text fill="#000000" font-family="sans-serif" font-size="11" lengthAdjust="spacingAndGlyphs" textLength="100" x="236.5" y="554.2104">-summary: String</text><text fill="#000000" font-family="sans-serif" font-size="11" lengthAdjust="spacingAndGlyphs" textLength="127" x="236.5" y="567.0151">-sentiment: Sentiment</text><text fill="#000000" font-family="sans-serif" font-size="11" lengthAdjust="spacingAndGlyphs" textLength="111" x="236.5" y="579.8198">-confidence: double</text><text fill="#000000" font-family="sans-serif" font-size="11" lengthAdjust="spacingAndGlyphs" textLength="140" x="236.5" y="592.6245">-keyTopics: List&lt;String&gt;</text><text fill="#000000" font-family="sans-serif" font-size="11" lengthAdjust="spacingAndGlyphs" textLength="137" x="236.5" y="605.4292">-wordCountEstimate: int</text><line style="stroke: #A80036; stroke-width: 1.5;" x1="231.5" x2="390.5" y1="612.0234" y2="612.0234"/><!--MD5=[123750d28b653c6a0f001854481179bc]
class Sentiment--><rect fill="#FEFECE" filter="url(#f16vgb1lur6hw7)" height="86.4141" id="Sentiment" style="stroke: #A80036; stroke-width: 1.5;" width="105" x="258.5" y="716.5"/><ellipse cx="273.5" cy="732.5" fill="#EB937F" rx="11" ry="11" style="stroke: #A80036; stroke-width: 1.0;"/><path d="M277.6094,738.5 L269.8906,738.5 L269.8906,726.1094 L277.6094,726.1094 L277.6094,728.2656 L272.3438,728.2656 L272.3438,730.9375 L277.1094,730.9375 L277.1094,733.0938 L272.3438,733.0938 L272.3438,736.3438 L277.6094,736.3438 L277.6094,738.5 Z "/><text fill="#000000" font-family="sans-serif" font-size="12" font-weight="bold" lengthAdjust="spacingAndGlyphs" textLength="73" x="287.5" y="736.6543">Sentiment</text><line style="stroke: #A80036; stroke-width: 1.5;" x1="259.5" x2="362.5" y1="748.5" y2="748.5"/><text fill="#000000" font-family="sans-serif" font-size="11" lengthAdjust="spacingAndGlyphs" textLength="44" x="264.5" y="762.7104">positive</text><text fill="#000000" font-family="sans-serif" font-size="11" lengthAdjust="spacingAndGlyphs" textLength="48" x="264.5" y="775.5151">negative</text><text fill="#000000" font-family="sans-serif" font-size="11" lengthAdjust="spacingAndGlyphs" textLength="40" x="264.5" y="788.3198">neutral</text><line style="stroke: #A80036; stroke-width: 1.5;" x1="259.5" x2="362.5" y1="794.9141" y2="794.9141"/><!--MD5=[276c5612e8e7531d993b7cca45363ed2]
class ClassifyResponse--><rect fill="#FEFECE" filter="url(#f16vgb1lur6hw7)" height="86.4141" id="ClassifyResponse" style="stroke: #A80036; stroke-width: 1.5;" width="157" x="38.5" y="521"/><ellipse cx="53.5" cy="537" fill="#ADD1B2" rx="11" ry="11" style="stroke: #A80036; stroke-width: 1.0;"/><path d="M56.4688,542.6406 Q55.8906,542.9375 55.25,543.0781 Q54.6094,543.2344 53.9063,543.2344 Q51.4063,543.2344 50.0781,541.5938 Q48.7656,539.9375 48.7656,536.8125 Q48.7656,533.6875 50.0781,532.0313 Q51.4063,530.375 53.9063,530.375 Q54.6094,530.375 55.25,530.5313 Q55.9063,530.6875 56.4688,530.9844 L56.4688,533.7031 Q55.8438,533.125 55.25,532.8594 Q54.6563,532.5781 54.0313,532.5781 Q52.6875,532.5781 52,533.6563 Q51.3125,534.7188 51.3125,536.8125 Q51.3125,538.9063 52,539.9844 Q52.6875,541.0469 54.0313,541.0469 Q54.6563,541.0469 55.25,540.7813 Q55.8438,540.5 56.4688,539.9219 L56.4688,542.6406 Z "/><text fill="#000000" font-family="sans-serif" font-size="12" font-weight="bold" lengthAdjust="spacingAndGlyphs" textLength="125" x="67.5" y="541.1543">ClassifyResponse</text><line style="stroke: #A80036; stroke-width: 1.5;" x1="39.5" x2="194.5" y1="553" y2="553"/><text fill="#000000" font-family="sans-serif" font-size="11" lengthAdjust="spacingAndGlyphs" textLength="103" x="44.5" y="567.2104">-reasoning: String</text><text fill="#000000" font-family="sans-serif" font-size="11" lengthAdjust="spacingAndGlyphs" textLength="112" x="44.5" y="580.0151">-category: Category</text><text fill="#000000" font-family="sans-serif" font-size="11" lengthAdjust="spacingAndGlyphs" textLength="111" x="44.5" y="592.8198">-confidence: double</text><line style="stroke: #A80036; stroke-width: 1.5;" x1="39.5" x2="194.5" y1="599.4141" y2="599.4141"/><!--MD5=[a96594a83e2ecdc78cbf17c2ddf01934]
class Category--><rect fill="#FEFECE" filter="url(#f16vgb1lur6hw7)" height="124.8281" id="Category" style="stroke: #A80036; stroke-width: 1.5;" width="97" x="68.5" y="697"/><ellipse cx="83.5" cy="713" fill="#EB937F" rx="11" ry="11" style="stroke: #A80036; stroke-width: 1.0;"/><path d="M87.6094,719 L79.8906,719 L79.8906,706.6094 L87.6094,706.6094 L87.6094,708.7656 L82.3438,708.7656 L82.3438,711.4375 L87.1094,711.4375 L87.1094,713.5938 L82.3438,713.5938 L82.3438,716.8438 L87.6094,716.8438 L87.6094,719 Z "/><text fill="#000000" font-family="sans-serif" font-size="12" font-weight="bold" lengthAdjust="spacingAndGlyphs" textLength="65" x="97.5" y="717.1543">Category</text><line style="stroke: #A80036; stroke-width: 1.5;" x1="69.5" x2="164.5" y1="729" y2="729"/><text fill="#000000" font-family="sans-serif" font-size="11" lengthAdjust="spacingAndGlyphs" textLength="61" x="74.5" y="743.2104">technology</text><text fill="#000000" font-family="sans-serif" font-size="11" lengthAdjust="spacingAndGlyphs" textLength="40" x="74.5" y="756.0151">politics</text><text fill="#000000" font-family="sans-serif" font-size="11" lengthAdjust="spacingAndGlyphs" textLength="37" x="74.5" y="768.8198">sports</text><text fill="#000000" font-family="sans-serif" font-size="11" lengthAdjust="spacingAndGlyphs" textLength="52" x="74.5" y="781.6245">business</text><text fill="#000000" font-family="sans-serif" font-size="11" lengthAdjust="spacingAndGlyphs" textLength="35" x="74.5" y="794.4292">health</text><text fill="#000000" font-family="sans-serif" font-size="11" lengthAdjust="spacingAndGlyphs" textLength="30" x="74.5" y="807.2339">other</text><line style="stroke: #A80036; stroke-width: 1.5;" x1="69.5" x2="164.5" y1="813.8281" y2="813.8281"/><!--MD5=[d70279aee16cb60954d73d22597b95b5]
class ErrorResponse--><rect fill="#FEFECE" filter="url(#f16vgb1lur6hw7)" height="73.6094" id="ErrorResponse" style="stroke: #A80036; stroke-width: 1.5;" width="137" x="608.5" y="527"/><ellipse cx="623.5" cy="543" fill="#ADD1B2" rx="11" ry="11" style="stroke: #A80036; stroke-width: 1.0;"/><path d="M626.4688,548.6406 Q625.8906,548.9375 625.25,549.0781 Q624.6094,549.2344 623.9063,549.2344 Q621.4063,549.2344 620.0781,547.5938 Q618.7656,545.9375 618.7656,542.8125 Q618.7656,539.6875 620.0781,538.0313 Q621.4063,536.375 623.9063,536.375 Q624.6094,536.375 625.25,536.5313 Q625.9063,536.6875 626.4688,536.9844 L626.4688,539.7031 Q625.8438,539.125 625.25,538.8594 Q624.6563,538.5781 624.0313,538.5781 Q622.6875,538.5781 622,539.6563 Q621.3125,540.7188 621.3125,542.8125 Q621.3125,544.9063 622,545.9844 Q622.6875,547.0469 624.0313,547.0469 Q624.6563,547.0469 625.25,546.7813 Q625.8438,546.5 626.4688,545.9219 L626.4688,548.6406 Z "/><text fill="#000000" font-family="sans-serif" font-size="12" font-weight="bold" lengthAdjust="spacingAndGlyphs" textLength="105" x="637.5" y="547.1543">ErrorResponse</text><line style="stroke: #A80036; stroke-width: 1.5;" x1="609.5" x2="744.5" y1="559" y2="559"/><text fill="#000000" font-family="sans-serif" font-size="11" lengthAdjust="spacingAndGlyphs" textLength="75" x="614.5" y="573.2104">-error: String</text><text fill="#000000" font-family="sans-serif" font-size="11" lengthAdjust="spacingAndGlyphs" textLength="97" x="614.5" y="586.0151">-code: ErrorCode</text><line style="stroke: #A80036; stroke-width: 1.5;" x1="609.5" x2="744.5" y1="592.6094" y2="592.6094"/><!--MD5=[e9923e1a33f8410e6361298b2227207f]
class ErrorCode--><rect fill="#FEFECE" filter="url(#f16vgb1lur6hw7)" height="86.4141" id="ErrorCode" style="stroke: #A80036; stroke-width: 1.5;" width="113" x="626.5" y="716.5"/><ellipse cx="646" cy="732.5" fill="#EB937F" rx="11" ry="11" style="stroke: #A80036; stroke-width: 1.0;"/><path d="M650.1094,738.5 L642.3906,738.5 L642.3906,726.1094 L650.1094,726.1094 L650.1094,728.2656 L644.8438,728.2656 L644.8438,730.9375 L649.6094,730.9375 L649.6094,733.0938 L644.8438,733.0938 L644.8438,736.3438 L650.1094,736.3438 L650.1094,738.5 Z "/><text fill="#000000" font-family="sans-serif" font-size="12" font-weight="bold" lengthAdjust="spacingAndGlyphs" textLength="71" x="661" y="736.6543">ErrorCode</text><line style="stroke: #A80036; stroke-width: 1.5;" x1="627.5" x2="738.5" y1="748.5" y2="748.5"/><text fill="#000000" font-family="sans-serif" font-size="11" lengthAdjust="spacingAndGlyphs" textLength="81" x="632.5" y="762.7104">INVALID_INPUT</text><text fill="#000000" font-family="sans-serif" font-size="11" lengthAdjust="spacingAndGlyphs" textLength="101" x="632.5" y="775.5151">LLM_UNAVAILABLE</text><text fill="#000000" font-family="sans-serif" font-size="11" lengthAdjust="spacingAndGlyphs" textLength="79" x="632.5" y="788.3198">PARSE_ERROR</text><line style="stroke: #A80036; stroke-width: 1.5;" x1="627.5" x2="738.5" y1="794.9141" y2="794.9141"/><!--MD5=[5cbcdbbc9d99dd605f2fdaaae8079a0a]
class LlmUnavailableException--><rect fill="#FEFECE" filter="url(#f16vgb1lur6hw7)" height="60.8047" id="LlmUnavailableException" style="stroke: #A80036; stroke-width: 1.5;" width="372" x="1573" y="533.5"/><ellipse cx="1667.25" cy="549.5" fill="#ADD1B2" rx="11" ry="11" style="stroke: #A80036; stroke-width: 1.0;"/><path d="M1670.2188,555.1406 Q1669.6406,555.4375 1669,555.5781 Q1668.3594,555.7344 1667.6563,555.7344 Q1665.1563,555.7344 1663.8281,554.0938 Q1662.5156,552.4375 1662.5156,549.3125 Q1662.5156,546.1875 1663.8281,544.5313 Q1665.1563,542.875 1667.6563,542.875 Q1668.3594,542.875 1669,543.0313 Q1669.6563,543.1875 1670.2188,543.4844 L1670.2188,546.2031 Q1669.5938,545.625 1669,545.3594 Q1668.4063,545.0781 1667.7813,545.0781 Q1666.4375,545.0781 1665.75,546.1563 Q1665.0625,547.2188 1665.0625,549.3125 Q1665.0625,551.4063 1665.75,552.4844 Q1666.4375,553.5469 1667.7813,553.5469 Q1668.4063,553.5469 1669,553.2813 Q1669.5938,553 1670.2188,552.4219 L1670.2188,555.1406 Z "/><text fill="#000000" font-family="sans-serif" font-size="12" font-weight="bold" lengthAdjust="spacingAndGlyphs" textLength="175" x="1687.75" y="553.6543">LlmUnavailableException</text><line style="stroke: #A80036; stroke-width: 1.5;" x1="1574" x2="1944" y1="565.5" y2="565.5"/><line style="stroke: #A80036; stroke-width: 1.5;" x1="1574" x2="1944" y1="573.5" y2="573.5"/><text fill="#000000" font-family="sans-serif" font-size="11" lengthAdjust="spacingAndGlyphs" textLength="360" x="1579" y="587.7104">+LlmUnavailableException(message: String, cause: Throwable)</text><!--MD5=[52221cc32b96c3919957b075938e0d1c]
class ParseException--><rect fill="#FEFECE" filter="url(#f16vgb1lur6hw7)" height="60.8047" id="ParseException" style="stroke: #A80036; stroke-width: 1.5;" width="391" x="1146.5" y="533.5"/><ellipse cx="1283.25" cy="549.5" fill="#ADD1B2" rx="11" ry="11" style="stroke: #A80036; stroke-width: 1.0;"/><path d="M1286.2188,555.1406 Q1285.6406,555.4375 1285,555.5781 Q1284.3594,555.7344 1283.6563,555.7344 Q1281.1563,555.7344 1279.8281,554.0938 Q1278.5156,552.4375 1278.5156,549.3125 Q1278.5156,546.1875 1279.8281,544.5313 Q1281.1563,542.875 1283.6563,542.875 Q1284.3594,542.875 1285,543.0313 Q1285.6563,543.1875 1286.2188,543.4844 L1286.2188,546.2031 Q1285.5938,545.625 1285,545.3594 Q1284.4063,545.0781 1283.7813,545.0781 Q1282.4375,545.0781 1281.75,546.1563 Q1281.0625,547.2188 1281.0625,549.3125 Q1281.0625,551.4063 1281.75,552.4844 Q1282.4375,553.5469 1283.7813,553.5469 Q1284.4063,553.5469 1285,553.2813 Q1285.5938,553 1286.2188,552.4219 L1286.2188,555.1406 Z "/><text fill="#000000" font-family="sans-serif" font-size="12" font-weight="bold" lengthAdjust="spacingAndGlyphs" textLength="109" x="1303.75" y="553.6543">ParseException</text><line style="stroke: #A80036; stroke-width: 1.5;" x1="1147.5" x2="1536.5" y1="565.5" y2="565.5"/><line style="stroke: #A80036; stroke-width: 1.5;" x1="1147.5" x2="1536.5" y1="573.5" y2="573.5"/><text fill="#000000" font-family="sans-serif" font-size="11" lengthAdjust="spacingAndGlyphs" textLength="379" x="1152.5" y="587.7104">+ParseException(message: String, raw: String, cause: Throwable)</text><!--MD5=[0bf6cc7671acd830f68456d528990499]
class GlobalExceptionHandler--><rect fill="#FEFECE" filter="url(#f16vgb1lur6hw7)" height="99.2188" id="GlobalExceptionHandler" style="stroke: #A80036; stroke-width: 1.5;" width="537" x="993.5" y="277"/><ellipse cx="1173.25" cy="293" fill="#ADD1B2" rx="11" ry="11" style="stroke: #A80036; stroke-width: 1.0;"/><path d="M1176.2188,298.6406 Q1175.6406,298.9375 1175,299.0781 Q1174.3594,299.2344 1173.6563,299.2344 Q1171.1563,299.2344 1169.8281,297.5938 Q1168.5156,295.9375 1168.5156,292.8125 Q1168.5156,289.6875 1169.8281,288.0313 Q1171.1563,286.375 1173.6563,286.375 Q1174.3594,286.375 1175,286.5313 Q1175.6563,286.6875 1176.2188,286.9844 L1176.2188,289.7031 Q1175.5938,289.125 1175,288.8594 Q1174.4063,288.5781 1173.7813,288.5781 Q1172.4375,288.5781 1171.75,289.6563 Q1171.0625,290.7188 1171.0625,292.8125 Q1171.0625,294.9063 1171.75,295.9844 Q1172.4375,297.0469 1173.7813,297.0469 Q1174.4063,297.0469 1175,296.7813 Q1175.5938,296.5 1176.2188,295.9219 L1176.2188,298.6406 Z "/><text fill="#000000" font-family="sans-serif" font-size="12" font-weight="bold" lengthAdjust="spacingAndGlyphs" textLength="169" x="1193.75" y="297.1543">GlobalExceptionHandler</text><line style="stroke: #A80036; stroke-width: 1.5;" x1="994.5" x2="1529.5" y1="309" y2="309"/><line style="stroke: #A80036; stroke-width: 1.5;" x1="994.5" x2="1529.5" y1="317" y2="317"/><text fill="#000000" font-family="sans-serif" font-size="11" lengthAdjust="spacingAndGlyphs" textLength="525" x="999.5" y="331.2104">+handleValidation(ex: MethodArgumentNotValidException): ResponseEntity&lt;ErrorResponse&gt;</text><text fill="#000000" font-family="sans-serif" font-size="11" lengthAdjust="spacingAndGlyphs" textLength="498" x="999.5" y="344.0151">+handleLlmUnavailable(ex: LlmUnavailableException): ResponseEntity&lt;ErrorResponse&gt;</text><text fill="#000000" font-family="sans-serif" font-size="11" lengthAdjust="spacingAndGlyphs" textLength="423" x="999.5" y="356.8198">+handleParseError(ex: ParseException): ResponseEntity&lt;ErrorResponse&gt;</text><text fill="#000000" font-family="sans-serif" font-size="11" lengthAdjust="spacingAndGlyphs" textLength="372" x="999.5" y="369.6245">+handleGeneric(ex: Exception): ResponseEntity&lt;ErrorResponse&gt;</text><!--MD5=[5392e97adaaab1f1ca976cc794ef5ccc]
class ChatClient--><rect fill="#FEFECE" filter="url(#f16vgb1lur6hw7)" height="66.7422" id="ChatClient" style="stroke: #A80036; stroke-width: 1.5;" width="228" x="781" y="530.5"/><ellipse cx="853.75" cy="549.4688" fill="#ADD1B2" rx="11" ry="11" style="stroke: #A80036; stroke-width: 1.0;"/><path d="M856.7188,555.1094 Q856.1406,555.4063 855.5,555.5469 Q854.8594,555.7031 854.1563,555.7031 Q851.6563,555.7031 850.3281,554.0625 Q849.0156,552.4063 849.0156,549.2813 Q849.0156,546.1563 850.3281,544.5 Q851.6563,542.8438 854.1563,542.8438 Q854.8594,542.8438 855.5,543 Q856.1563,543.1563 856.7188,543.4531 L856.7188,546.1719 Q856.0938,545.5938 855.5,545.3281 Q854.9063,545.0469 854.2813,545.0469 Q852.9375,545.0469 852.25,546.125 Q851.5625,547.1875 851.5625,549.2813 Q851.5625,551.375 852.25,552.4531 Q852.9375,553.5156 854.2813,553.5156 Q854.9063,553.5156 855.5,553.25 Q856.0938,552.9688 856.7188,552.3906 L856.7188,555.1094 Z "/><text fill="#000000" font-family="sans-serif" font-size="12" font-style="italic" lengthAdjust="spacingAndGlyphs" textLength="66" x="878.25" y="546.6387">«external»</text><text fill="#000000" font-family="sans-serif" font-size="12" font-weight="bold" lengthAdjust="spacingAndGlyphs" textLength="74" x="874.25" y="560.6074">ChatClient</text><line style="stroke: #A80036; stroke-width: 1.5;" x1="782" x2="1008" y1="568.4375" y2="568.4375"/><line style="stroke: #A80036; stroke-width: 1.5;" x1="782" x2="1008" y1="576.4375" y2="576.4375"/><text fill="#000000" font-family="sans-serif" font-size="11" lengthAdjust="spacingAndGlyphs" textLength="216" x="787" y="590.6479">+call(prompt: Prompt): ChatResponse</text><!--MD5=[5c6c7d52e42032554528404b62c1d271]
class RuntimeException--><rect fill="#FEFECE" filter="url(#f16vgb1lur6hw7)" height="48" id="RuntimeException" style="stroke: #A80036; stroke-width: 1.5;" width="158" x="1472" y="735.5"/><ellipse cx="1487" cy="751.5" fill="#ADD1B2" rx="11" ry="11" style="stroke: #A80036; stroke-width: 1.0;"/><path d="M1489.9688,757.1406 Q1489.3906,757.4375 1488.75,757.5781 Q1488.1094,757.7344 1487.4063,757.7344 Q1484.9063,757.7344 1483.5781,756.0938 Q1482.2656,754.4375 1482.2656,751.3125 Q1482.2656,748.1875 1483.5781,746.5313 Q1484.9063,744.875 1487.4063,744.875 Q1488.1094,744.875 1488.75,745.0313 Q1489.4063,745.1875 1489.9688,745.4844 L1489.9688,748.2031 Q1489.3438,747.625 1488.75,747.3594 Q1488.1563,747.0781 1487.5313,747.0781 Q1486.1875,747.0781 1485.5,748.1563 Q1484.8125,749.2188 1484.8125,751.3125 Q1484.8125,753.4063 1485.5,754.4844 Q1486.1875,755.5469 1487.5313,755.5469 Q1488.1563,755.5469 1488.75,755.2813 Q1489.3438,755 1489.9688,754.4219 L1489.9688,757.1406 Z "/><text fill="#000000" font-family="sans-serif" font-size="12" font-weight="bold" lengthAdjust="spacingAndGlyphs" textLength="126" x="1501" y="755.6543">RuntimeException</text><line style="stroke: #A80036; stroke-width: 1.5;" x1="1473" x2="1629" y1="767.5" y2="767.5"/><line style="stroke: #A80036; stroke-width: 1.5;" x1="1473" x2="1629" y1="775.5" y2="775.5"/><!--MD5=[ca1d5d877907d9c8daa7d4c900f822cd]
link TextAnalysisController to TextAnalysisService--><path d="M502.17,145.03 C502.17,217.01 502.17,354 502.17,354 C502.17,354 534.55,354 534.55,354 " fill="none" id="TextAnalysisController-&gt;TextAnalysisService" style="stroke: #A80036; stroke-width: 1.0;"/><polygon fill="#A80036" points="539.55,354,530.55,350,534.55,354,530.55,358,539.55,354" style="stroke: #A80036; stroke-width: 1.0;"/><text fill="#000000" font-family="sans-serif" font-size="13" lengthAdjust="spacingAndGlyphs" textLength="30" x="613" y="190.0669">uses</text><!--MD5=[de755979e0835af4040eea6680d95e41]
link TextAnalysisService to ChatClient--><path d="M834.5,408.23 C834.5,408.23 834.5,525.43 834.5,525.43 " fill="none" id="TextAnalysisService-&gt;ChatClient" style="stroke: #A80036; stroke-width: 1.0;"/><polygon fill="#A80036" points="834.5,530.43,838.5,521.43,834.5,525.43,830.5,521.43,834.5,530.43" style="stroke: #A80036; stroke-width: 1.0;"/><text fill="#000000" font-family="sans-serif" font-size="13" lengthAdjust="spacingAndGlyphs" textLength="30" x="840" y="453.0669">uses</text><!--MD5=[7ae27f8c7621c233bd69bc5e794f8a12]
link TextAnalysisController to AnalyzeRequest--><path d="M464.33,145.05 C464.33,145.05 464.33,528.44 464.33,528.44 " fill="none" id="TextAnalysisController-&gt;AnalyzeRequest" style="stroke: #A80036; stroke-width: 1.0; stroke-dasharray: 7.0,7.0;"/><polygon fill="#A80036" points="464.33,533.44,468.33,524.44,464.33,528.44,460.33,524.44,464.33,533.44" style="stroke: #A80036; stroke-width: 1.0;"/><text fill="#000000" font-family="sans-serif" font-size="13" lengthAdjust="spacingAndGlyphs" textLength="50" x="454" y="331.0669">accepts</text><!--MD5=[c53aca6a522b75e76c47adcac053a723]
link TextAnalysisController to AnalysisResponse--><path d="M311,145.05 C311,145.05 311,502.73 311,502.73 " fill="none" id="TextAnalysisController-&gt;AnalysisResponse" style="stroke: #A80036; stroke-width: 1.0; stroke-dasharray: 7.0,7.0;"/><polygon fill="#A80036" points="311,507.73,315,498.73,311,502.73,307,498.73,311,507.73" style="stroke: #A80036; stroke-width: 1.0;"/><text fill="#000000" font-family="sans-serif" font-size="13" lengthAdjust="spacingAndGlyphs" textLength="46" x="312" y="331.0669">returns</text><!--MD5=[ad32168180a21f790fea3103b9123071]
link TextAnalysisController to ClassifyResponse--><path d="M225.75,145.05 C225.75,259.74 225.75,564 225.75,564 C225.75,564 200.75,564 200.75,564 " fill="none" id="TextAnalysisController-&gt;ClassifyResponse" style="stroke: #A80036; stroke-width: 1.0; stroke-dasharray: 7.0,7.0;"/><polygon fill="#A80036" points="195.75,564,204.75,568,200.75,564,204.75,560,195.75,564" style="stroke: #A80036; stroke-width: 1.0;"/><text fill="#000000" font-family="sans-serif" font-size="13" lengthAdjust="spacingAndGlyphs" textLength="46" x="156" y="331.0669">returns</text><!--MD5=[270934d3d87b53c52c8b791b5af52180]
link TextAnalysisService to AnalyzeRequest--><path d="M562.33,408.23 C562.33,408.23 562.33,528.42 562.33,528.42 " fill="none" id="TextAnalysisService-&gt;AnalyzeRequest" style="stroke: #A80036; stroke-width: 1.0; stroke-dasharray: 7.0,7.0;"/><polygon fill="#A80036" points="562.33,533.42,566.33,524.42,562.33,528.42,558.33,524.42,562.33,533.42" style="stroke: #A80036; stroke-width: 1.0;"/><text fill="#000000" font-family="sans-serif" font-size="13" lengthAdjust="spacingAndGlyphs" textLength="36" x="689" y="453.0669">reads</text><!--MD5=[ff4f054a32ac09bbd81f3d903df2316a]
link TextAnalysisService to AnalysisResponse--><path d="M551.17,408.27 C551.17,460.32 551.17,518 551.17,518 C551.17,518 396.64,518 396.64,518 " fill="none" id="TextAnalysisService-&gt;AnalysisResponse" style="stroke: #A80036; stroke-width: 1.0; stroke-dasharray: 7.0,7.0;"/><polygon fill="#A80036" points="391.64,518,400.64,522,396.64,518,400.64,514,391.64,518" style="stroke: #A80036; stroke-width: 1.0;"/><text fill="#000000" font-family="sans-serif" font-size="13" lengthAdjust="spacingAndGlyphs" textLength="59" x="537" y="453.0669">produces</text><!--MD5=[775f2984da1c27454c61d10aaad8d397]
link TextAnalysisService to ClassifyResponse--><path d="M539.72,300 C363.51,300 117,300 117,300 C117,300 117,516 117,516 " fill="none" id="TextAnalysisService-&gt;ClassifyResponse" style="stroke: #A80036; stroke-width: 1.0; stroke-dasharray: 7.0,7.0;"/><polygon fill="#A80036" points="117,521,121,512,117,516,113,512,117,521" style="stroke: #A80036; stroke-width: 1.0;"/><text fill="#000000" font-family="sans-serif" font-size="13" lengthAdjust="spacingAndGlyphs" textLength="59" x="370" y="453.0669">produces</text><!--MD5=[9b05ce65cd567ce25da1ffe4e606efe5]
link AnalysisResponse to Sentiment--><path d="M311,620.02 C311,620.02 311,711.21 311,711.21 " fill="none" id="AnalysisResponse-&gt;Sentiment" style="stroke: #A80036; stroke-width: 1.0;"/><polygon fill="#A80036" points="311,716.21,315,707.21,311,711.21,307,707.21,311,716.21" style="stroke: #A80036; stroke-width: 1.0;"/><text fill="#000000" font-family="sans-serif" font-size="13" lengthAdjust="spacingAndGlyphs" textLength="30" x="312" y="663.0669">uses</text><!--MD5=[a97e1626401b2b221c8875ffd03ef42f]
link ClassifyResponse to Category--><path d="M117,607.39 C117,607.39 117,691.95 117,691.95 " fill="none" id="ClassifyResponse-&gt;Category" style="stroke: #A80036; stroke-width: 1.0;"/><polygon fill="#A80036" points="117,696.95,121,687.95,117,691.95,113,687.95,117,696.95" style="stroke: #A80036; stroke-width: 1.0;"/><text fill="#000000" font-family="sans-serif" font-size="13" lengthAdjust="spacingAndGlyphs" textLength="30" x="118" y="663.0669">uses</text><!--MD5=[ea35923e8ca1c8141ec31639204c4231]
link TextAnalysisService to LlmUnavailableException--><path d="M888.04,387 C1170.38,387 1697,387 1697,387 C1697,387 1697,528.17 1697,528.17 " fill="none" id="TextAnalysisService-&gt;LlmUnavailableException" style="stroke: #A80036; stroke-width: 1.0; stroke-dasharray: 7.0,7.0;"/><polygon fill="#A80036" points="1697,533.17,1701,524.17,1697,528.17,1693,524.17,1697,533.17" style="stroke: #A80036; stroke-width: 1.0;"/><text fill="#000000" font-family="sans-serif" font-size="13" lengthAdjust="spacingAndGlyphs" textLength="42" x="1198" y="453.0669">throws</text><!--MD5=[1a8012168eddcebc25b1856567c124b1]
link TextAnalysisService to ParseException--><path d="M888.27,398 C1052.81,398 1274.5,398 1274.5,398 C1274.5,398 1274.5,528.17 1274.5,528.17 " fill="none" id="TextAnalysisService-&gt;ParseException" style="stroke: #A80036; stroke-width: 1.0; stroke-dasharray: 7.0,7.0;"/><polygon fill="#A80036" points="1274.5,533.17,1278.5,524.17,1274.5,528.17,1270.5,524.17,1274.5,533.17" style="stroke: #A80036; stroke-width: 1.0;"/><text fill="#000000" font-family="sans-serif" font-size="13" lengthAdjust="spacingAndGlyphs" textLength="42" x="1013" y="453.0669">throws</text><!--MD5=[9e1ed9971e8d7ffa4c6c6b0d9bba0ebd]
link GlobalExceptionHandler to LlmUnavailableException--><path d="M1530.86,327 C1674.06,327 1821,327 1821,327 C1821,327 1821,528.02 1821,528.02 " fill="none" id="GlobalExceptionHandler-&gt;LlmUnavailableException" style="stroke: #A80036; stroke-width: 1.0; stroke-dasharray: 7.0,7.0;"/><polygon fill="#A80036" points="1821,533.02,1825,524.02,1821,528.02,1817,524.02,1821,533.02" style="stroke: #A80036; stroke-width: 1.0;"/><text fill="#000000" font-family="sans-serif" font-size="13" lengthAdjust="spacingAndGlyphs" textLength="50" x="1582" y="453.0669">handles</text><!--MD5=[51eead38ad3f0149235fc290e046e670]
link GlobalExceptionHandler to ParseException--><path d="M1402.5,376.29 C1402.5,376.29 1402.5,528.47 1402.5,528.47 " fill="none" id="GlobalExceptionHandler-&gt;ParseException" style="stroke: #A80036; stroke-width: 1.0; stroke-dasharray: 7.0,7.0;"/><polygon fill="#A80036" points="1402.5,533.47,1406.5,524.47,1402.5,528.47,1398.5,524.47,1402.5,533.47" style="stroke: #A80036; stroke-width: 1.0;"/><text fill="#000000" font-family="sans-serif" font-size="13" lengthAdjust="spacingAndGlyphs" textLength="50" x="1312" y="453.0669">handles</text><!--MD5=[d7dd3d784598f73100c39d2df611899e]
link GlobalExceptionHandler to ErrorResponse--><path d="M1001.25,376.21 C1001.25,413.45 1001.25,458 1001.25,458 C1001.25,458 677,458 677,458 C677,458 677,521.93 677,521.93 " fill="none" id="GlobalExceptionHandler-&gt;ErrorResponse" style="stroke: #A80036; stroke-width: 1.0; stroke-dasharray: 7.0,7.0;"/><polygon fill="#A80036" points="677,526.93,681,517.93,677,521.93,673,517.93,677,526.93" style="stroke: #A80036; stroke-width: 1.0;"/><text fill="#000000" font-family="sans-serif" font-size="13" lengthAdjust="spacingAndGlyphs" textLength="59" x="912" y="453.0669">produces</text><!--MD5=[0e46dead6b18754903429f3c5972c8ce]
link GlobalExceptionHandler to ErrorCode--><path d="M1077.75,376.29 C1077.75,483.38 1077.75,726 1077.75,726 C1077.75,726 744.56,726 744.56,726 " fill="none" id="GlobalExceptionHandler-&gt;ErrorCode" style="stroke: #A80036; stroke-width: 1.0; stroke-dasharray: 7.0,7.0;"/><polygon fill="#A80036" points="739.56,726,748.56,730,744.56,726,748.56,722,739.56,726" style="stroke: #A80036; stroke-width: 1.0;"/><text fill="#000000" font-family="sans-serif" font-size="13" lengthAdjust="spacingAndGlyphs" textLength="30" x="1080" y="568.5669">uses</text><!--MD5=[3f09eda78f7c99815336a97b2112fc12]
link ErrorResponse to ErrorCode--><path d="M683,601.23 C683,601.23 683,711.27 683,711.27 " fill="none" id="ErrorResponse-&gt;ErrorCode" style="stroke: #A80036; stroke-width: 1.0;"/><polygon fill="#A80036" points="683,716.27,687,707.27,683,711.27,679,707.27,683,716.27" style="stroke: #A80036; stroke-width: 1.0;"/><text fill="#000000" font-family="sans-serif" font-size="13" lengthAdjust="spacingAndGlyphs" textLength="30" x="681" y="663.0669">uses</text><!--MD5=[98ca6bfa44ecdefc6a5bf4fa2084c2a8]
link LlmUnavailableException to RuntimeException--><path d="M1601.5,594.55 C1601.5,594.55 1601.5,715.33 1601.5,715.33 " fill="none" id="LlmUnavailableException-&gt;RuntimeException" style="stroke: #A80036; stroke-width: 1.0;"/><polygon fill="none" points="1608.5,715.33,1601.5,735.33,1594.5,715.33,1608.5,715.33" style="stroke: #A80036; stroke-width: 1.0;"/><!--MD5=[12683b31aa232a81654aa52f938076d4]
link ParseException to RuntimeException--><path d="M1504.75,594.55 C1504.75,594.55 1504.75,715.33 1504.75,715.33 " fill="none" id="ParseException-&gt;RuntimeException" style="stroke: #A80036; stroke-width: 1.0;"/><polygon fill="none" points="1511.75,715.33,1504.75,735.33,1497.75,715.33,1511.75,715.33" style="stroke: #A80036; stroke-width: 1.0;"/><!--MD5=[7bfbf2013c46667798d8de6026a9dc33]
@startuml class-diagram

skinparam classAttributeIconSize 0
skinparam classFontStyle bold
skinparam linetype ortho

package "controller" {
  class TextAnalysisController {
    - service: TextAnalysisService
    + analyze(request: AnalyzeRequest): AnalysisResponse
    + classify(request: AnalyzeRequest): ClassifyResponse
  }
}

package "service" {
  class TextAnalysisService {
    - chatClient: ChatClient
    - objectMapper: ObjectMapper
    - systemPrompt: String
    - classifyPrompt: String
    + analyze(request: AnalyzeRequest): AnalysisResponse
    + classify(request: AnalyzeRequest): ClassifyResponse
    - parseResponse(raw: String): AnalysisResponse
    - classifyResponse(raw: String): ClassifyResponse
    - logUsage(response: ChatResponse, latencyMs: long): void
  }
}

package "dto" {
  class AnalyzeRequest {
    - text: String
  }

  class AnalysisResponse {
    - summary: String
    - sentiment: Sentiment
    - confidence: double
    - keyTopics: List<String>
    - wordCountEstimate: int
  }

  enum Sentiment {
    positive
    negative
    neutral
  }

  class ClassifyResponse {
    - reasoning: String
    - category: Category
    - confidence: double
  }

  enum Category {
    technology
    politics
    sports
    business
    health
    other
  }

  class ErrorResponse {
    - error: String
    - code: ErrorCode
  }

  enum ErrorCode {
    INVALID_INPUT
    LLM_UNAVAILABLE
    PARSE_ERROR
  }
}

package "exception" {
  class LlmUnavailableException {
    + LlmUnavailableException(message: String, cause: Throwable)
  }

  class ParseException {
    + ParseException(message: String, raw: String, cause: Throwable)
  }
}

package "exception.handler" {
  class GlobalExceptionHandler {
    + handleValidation(ex: MethodArgumentNotValidException): ResponseEntity<ErrorResponse>
    + handleLlmUnavailable(ex: LlmUnavailableException): ResponseEntity<ErrorResponse>
    + handleParseError(ex: ParseException): ResponseEntity<ErrorResponse>
    + handleGeneric(ex: Exception): ResponseEntity<ErrorResponse>
  }
}

TextAnalysisController - -> TextAnalysisService : uses

TextAnalysisService - -> ChatClient : uses

TextAnalysisController ..> AnalyzeRequest : accepts
TextAnalysisController ..> AnalysisResponse : returns
TextAnalysisController ..> ClassifyResponse : returns

TextAnalysisService ..> AnalyzeRequest : reads
TextAnalysisService ..> AnalysisResponse : produces
TextAnalysisService ..> ClassifyResponse : produces

AnalysisResponse - -> Sentiment : uses
ClassifyResponse - -> Category : uses

TextAnalysisService ..> LlmUnavailableException : «throws»
TextAnalysisService ..> ParseException : «throws»

GlobalExceptionHandler ..> LlmUnavailableException : «handles»
GlobalExceptionHandler ..> ParseException : «handles»
GlobalExceptionHandler ..> ErrorResponse : produces
GlobalExceptionHandler ..> ErrorCode : uses

ErrorResponse - -> ErrorCode : uses

LlmUnavailableException - -|> RuntimeException
ParseException - -|> RuntimeException

class ChatClient <<external>> {
  + call(prompt: Prompt): ChatResponse
}

@enduml

PlantUML version 1.2020.02(Sun Mar 01 10:22:07 UTC 2020)
(GPL source distribution)
Java Runtime: OpenJDK Runtime Environment
JVM: OpenJDK 64-Bit Server VM
Java Version: 17.0.19+10
Operating System: Linux
Default Encoding: UTF-8
Language: en
Country: null
--></g></svg>