<?xml version="1.0" encoding="UTF-8" standalone="no"?><svg xmlns="http://www.w3.org/2000/svg" xmlns:xlink="http://www.w3.org/1999/xlink" contentScriptType="application/ecmascript" contentStyleType="text/css" height="889px" preserveAspectRatio="none" style="width:1983px;height:889px;" version="1.1" viewBox="0 0 1983 889" width="1983px" zoomAndPan="magnify"><defs><filter height="300%" id="f272mfdl0p3a7" width="300%" x="-1" y="-1"><feGaussianBlur result="blurOut" stdDeviation="2.0"/><feColorMatrix in="blurOut" result="blurOut2" type="matrix" values="0 0 0 0 0 0 0 0 0 0 0 0 0 0 0 0 0 0 .4 0"/><feOffset dx="4.0" dy="4.0" in="blurOut2" result="blurOut3"/><feBlend in="SourceGraphic" in2="blurOut3" mode="normal"/></filter></defs><g><!--MD5=[10ea673caf457862023e152271927b45]
cluster controller--><polygon fill="#FFFFFF" filter="url(#f272mfdl0p3a7)" points="186,24,269,24,276,46.2969,540,46.2969,540,161,186,161,186,24" style="stroke: #000000; stroke-width: 1.5;"/><line style="stroke: #000000; stroke-width: 1.5;" x1="186" x2="276" y1="46.2969" y2="46.2969"/><text fill="#000000" font-family="sans-serif" font-size="14" font-weight="bold" lengthAdjust="spacingAndGlyphs" textLength="77" x="190" y="38.9951">controller</text><!--MD5=[7579d5565d2521d5936cec86ed3dadee]
cluster service--><polygon fill="#FFFFFF" filter="url(#f272mfdl0p3a7)" points="505,210,569,210,576,232.2969,1033,232.2969,1033,463,505,463,505,210" style="stroke: #000000; stroke-width: 1.5;"/><line style="stroke: #000000; stroke-width: 1.5;" x1="505" x2="576" y1="232.2969" y2="232.2969"/><text fill="#000000" font-family="sans-serif" font-size="14" font-weight="bold" lengthAdjust="spacingAndGlyphs" textLength="58" x="509" y="224.9951">service</text><!--MD5=[e6eced616a98d47334dd1aaaa829ffd5]
cluster dto--><polygon fill="#FFFFFF" filter="url(#f272mfdl0p3a7)" points="22,512,54,512,61,534.2969,762,534.2969,762,877,22,877,22,512" style="stroke: #000000; stroke-width: 1.5;"/><line style="stroke: #000000; stroke-width: 1.5;" x1="22" x2="61" y1="534.2969" y2="534.2969"/><text fill="#000000" font-family="sans-serif" font-size="14" font-weight="bold" lengthAdjust="spacingAndGlyphs" textLength="26" x="26" y="526.9951">dto</text><!--MD5=[11f03a07a4422c8eb8f650dbf201ac41]
cluster exception--><polygon fill="#FFFFFF" filter="url(#f272mfdl0p3a7)" points="1130,537.5,1214,537.5,1221,559.7969,1961,559.7969,1961,649.5,1130,649.5,1130,537.5" style="stroke: #000000; stroke-width: 1.5;"/><line style="stroke: #000000; stroke-width: 1.5;" x1="1130" x2="1221" y1="559.7969" y2="559.7969"/><text fill="#000000" font-family="sans-serif" font-size="14" font-weight="bold" lengthAdjust="spacingAndGlyphs" textLength="78" x="1134" y="552.4951">exception</text><!--MD5=[5b7d7b6f636429b28b22fd98dc46cd1b]
cluster exception.handler--><polygon fill="#FFFFFF" filter="url(#f272mfdl0p3a7)" points="1057,261.5,1206,261.5,1213,283.7969,1627,283.7969,1627,411.5,1057,411.5,1057,261.5" style="stroke: #000000; stroke-width: 1.5;"/><line style="stroke: #000000; stroke-width: 1.5;" x1="1057" x2="1213" y1="283.7969" y2="283.7969"/><text fill="#000000" font-family="sans-serif" font-size="14" font-weight="bold" lengthAdjust="spacingAndGlyphs" textLength="143" x="1061" y="276.4951">exception.handler</text><!--MD5=[07d2bcfdd1f5b6267d4746aeadaa7923]
class TextAnalysisController--><rect fill="#FEFECE" filter="url(#f272mfdl0p3a7)" height="86.4141" id="TextAnalysisController" style="stroke: #A80036; stroke-width: 1.5;" width="322" x="202" y="59"/><ellipse cx="278.75" cy="75" fill="#ADD1B2" rx="11" ry="11" style="stroke: #A80036; stroke-width: 1.0;"/><path d="M281.7188,80.6406 Q281.1406,80.9375 280.5,81.0781 Q279.8594,81.2344 279.1563,81.2344 Q276.6563,81.2344 275.3281,79.5938 Q274.0156,77.9375 274.0156,74.8125 Q274.0156,71.6875 275.3281,70.0313 Q276.6563,68.375 279.1563,68.375 Q279.8594,68.375 280.5,68.5313 Q281.1563,68.6875 281.7188,68.9844 L281.7188,71.7031 Q281.0938,71.125 280.5,70.8594 Q279.9063,70.5781 279.2813,70.5781 Q277.9375,70.5781 277.25,71.6563 Q276.5625,72.7188 276.5625,74.8125 Q276.5625,76.9063 277.25,77.9844 Q277.9375,79.0469 279.2813,79.0469 Q279.9063,79.0469 280.5,78.7813 Q281.0938,78.5 281.7188,77.9219 L281.7188,80.6406 Z "/><text fill="#000000" font-family="sans-serif" font-size="12" font-weight="bold" lengthAdjust="spacingAndGlyphs" textLength="160" x="299.25" y="79.1543">TextAnalysisController</text><line style="stroke: #A80036; stroke-width: 1.5;" x1="203" x2="523" y1="91" y2="91"/><text fill="#000000" font-family="sans-serif" font-size="11" lengthAdjust="spacingAndGlyphs" textLength="166" x="208" y="105.2104">-service: TextAnalysisService</text><line style="stroke: #A80036; stroke-width: 1.5;" x1="203" x2="523" y1="111.8047" y2="111.8047"/><text fill="#000000" font-family="sans-serif" font-size="11" lengthAdjust="spacingAndGlyphs" textLength="310" x="208" y="126.0151">+analyze(request: AnalyzeRequest): AnalysisResponse</text><text fill="#000000" font-family="sans-serif" font-size="11" lengthAdjust="spacingAndGlyphs" textLength="309" x="208" y="138.8198">+classify(request: AnalyzeRequest): ClassifyResponse</text><!--MD5=[0be206d0152edf725601f1f50a97a3b2]
class TextAnalysisService--><rect fill="#FEFECE" filter="url(#f272mfdl0p3a7)" height="201.6563" id="TextAnalysisService" style="stroke: #A80036; stroke-width: 1.5;" width="496" x="521" y="245"/><ellipse cx="694.75" cy="261" fill="#ADD1B2" rx="11" ry="11" style="stroke: #A80036; stroke-width: 1.0;"/><path d="M697.7188,266.6406 Q697.1406,266.9375 696.5,267.0781 Q695.8594,267.2344 695.1563,267.2344 Q692.6563,267.2344 691.3281,265.5938 Q690.0156,263.9375 690.0156,260.8125 Q690.0156,257.6875 691.3281,256.0313 Q692.6563,254.375 695.1563,254.375 Q695.8594,254.375 696.5,254.5313 Q697.1563,254.6875 697.7188,254.9844 L697.7188,257.7031 Q697.0938,257.125 696.5,256.8594 Q695.9063,256.5781 695.2813,256.5781 Q693.9375,256.5781 693.25,257.6563 Q692.5625,258.7188 692.5625,260.8125 Q692.5625,262.9063 693.25,263.9844 Q693.9375,265.0469 695.2813,265.0469 Q695.9063,265.0469 696.5,264.7813 Q697.0938,264.5 697.7188,263.9219 L697.7188,266.6406 Z "/><text fill="#000000" font-family="sans-serif" font-size="12" font-weight="bold" lengthAdjust="spacingAndGlyphs" textLength="140" x="715.25" y="265.1543">TextAnalysisService</text><line style="stroke: #A80036; stroke-width: 1.5;" x1="522" x2="1016" y1="277" y2="277"/><text fill="#000000" font-family="sans-serif" font-size="11" lengthAdjust="spacingAndGlyphs" textLength="126" x="527" y="291.2104">-chatClient: ChatClient</text><text fill="#000000" font-family="sans-serif" font-size="11" lengthAdjust="spacingAndGlyphs" textLength="166" x="527" y="304.0151">-objectMapper: ObjectMapper</text><text fill="#000000" font-family="sans-serif" font-size="11" lengthAdjust="spacingAndGlyphs" textLength="129" x="527" y="316.8198">-systemPrompt: String</text><text fill="#000000" font-family="sans-serif" font-size="11" lengthAdjust="spacingAndGlyphs" textLength="130" x="527" y="329.6245">-classifyPrompt: String</text><text fill="#000000" font-family="sans-serif" font-size="11" lengthAdjust="spacingAndGlyphs" textLength="122" x="527" y="342.4292">-fallbackModel: String</text><line style="stroke: #A80036; stroke-width: 1.5;" x1="522" x2="1016" y1="349.0234" y2="349.0234"/><text fill="#000000" font-family="sans-serif" font-size="11" lengthAdjust="spacingAndGlyphs" textLength="310" x="527" y="363.2339">+analyze(request: AnalyzeRequest): AnalysisResponse</text><text fill="#000000" font-family="sans-serif" font-size="11" lengthAdjust="spacingAndGlyphs" textLength="309" x="527" y="376.0386">+classify(request: AnalyzeRequest): ClassifyResponse</text><text fill="#000000" font-family="sans-serif" font-size="11" lengthAdjust="spacingAndGlyphs" textLength="483" x="527" y="388.8433">-attemptAnalyze(request: AnalyzeRequest, modelOverride: String): AnalysisResponse</text><text fill="#000000" font-family="sans-serif" font-size="11" lengthAdjust="spacingAndGlyphs" textLength="484" x="527" y="401.6479">-attemptClassify(request: AnalyzeRequest, modelOverride: String): ClassifyResponse</text><text fill="#000000" font-family="sans-serif" font-size="11" lengthAdjust="spacingAndGlyphs" textLength="275" x="527" y="414.4526">-parseResponse(raw: String): AnalysisResponse</text><text fill="#000000" font-family="sans-serif" font-size="11" lengthAdjust="spacingAndGlyphs" textLength="283" x="527" y="427.2573">-classifyResponse(raw: String): ClassifyResponse</text><text fill="#000000" font-family="sans-serif" font-size="11" lengthAdjust="spacingAndGlyphs" textLength="452" x="527" y="440.062">-logUsage(response: ChatResponse, latencyMs: long, isFallback: boolean): void</text><!--MD5=[70c56c1f9ac4dc4ae10652bd270759c3]
class AnalyzeRequest--><rect fill="#FEFECE" filter="url(#f272mfdl0p3a7)" height="60.8047" id="AnalyzeRequest" style="stroke: #A80036; stroke-width: 1.5;" width="147" x="426.5" y="572.5"/><ellipse cx="441.5" cy="588.5" fill="#ADD1B2" rx="11" ry="11" style="stroke: #A80036; stroke-width: 1.0;"/><path d="M444.4688,594.1406 Q443.8906,594.4375 443.25,594.5781 Q442.6094,594.7344 441.9063,594.7344 Q439.4063,594.7344 438.0781,593.0938 Q436.7656,591.4375 436.7656,588.3125 Q436.7656,585.1875 438.0781,583.5313 Q439.4063,581.875 441.9063,581.875 Q442.6094,581.875 443.25,582.0313 Q443.9063,582.1875 444.4688,582.4844 L444.4688,585.2031 Q443.8438,584.625 443.25,584.3594 Q442.6563,584.0781 442.0313,584.0781 Q440.6875,584.0781 440,585.1563 Q439.3125,586.2188 439.3125,588.3125 Q439.3125,590.4063 440,591.4844 Q440.6875,592.5469 442.0313,592.5469 Q442.6563,592.5469 443.25,592.2813 Q443.8438,592 444.4688,591.4219 L444.4688,594.1406 Z "/><text fill="#000000" font-family="sans-serif" font-size="12" font-weight="bold" lengthAdjust="spacingAndGlyphs" textLength="115" x="455.5" y="592.6543">AnalyzeRequest</text><line style="stroke: #A80036; stroke-width: 1.5;" x1="427.5" x2="572.5" y1="604.5" y2="604.5"/><text fill="#000000" font-family="sans-serif" font-size="11" lengthAdjust="spacingAndGlyphs" textLength="67" x="432.5" y="618.7104">-text: String</text><line style="stroke: #A80036; stroke-width: 1.5;" x1="427.5" x2="572.5" y1="625.3047" y2="625.3047"/><!--MD5=[5868ba203e3e21a7282960d5a1b712b7]
class AnalysisResponse--><rect fill="#FEFECE" filter="url(#f272mfdl0p3a7)" height="112.0234" id="AnalysisResponse" style="stroke: #A80036; stroke-width: 1.5;" width="161" x="230.5" y="547"/><ellipse cx="245.5" cy="563" fill="#ADD1B2" rx="11" ry="11" style="stroke: #A80036; stroke-width: 1.0;"/><path d="M248.4688,568.6406 Q247.8906,568.9375 247.25,569.0781 Q246.6094,569.2344 245.9063,569.2344 Q243.4063,569.2344 242.0781,567.5938 Q240.7656,565.9375 240.7656,562.8125 Q240.7656,559.6875 242.0781,558.0313 Q243.4063,556.375 245.9063,556.375 Q246.6094,556.375 247.25,556.5313 Q247.9063,556.6875 248.4688,556.9844 L248.4688,559.7031 Q247.8438,559.125 247.25,558.8594 Q246.6563,558.5781 246.0313,558.5781 Q244.6875,558.5781 244,559.6563 Q243.3125,560.7188 243.3125,562.8125 Q243.3125,564.9063 244,565.9844 Q244.6875,567.0469 246.0313,567.0469 Q246.6563,567.0469 247.25,566.7813 Q247.8438,566.5 248.4688,565.9219 L248.4688,568.6406 Z "/><text fill="#000000" font-family="sans-serif" font-size="12" font-weight="bold" lengthAdjust="spacingAndGlyphs" textLength="129" x="259.5" y="567.1543">AnalysisResponse</text><line style="stroke: #A80036; stroke-width: 1.5;" x1="231.5" x2="390.5" y1="579" y2="579"/><text fill="#000000" font-family="sans-serif" font-size="11" lengthAdjust="spacingAndGlyphs" textLength="100" x="236.5" y="593.2104">-summary: String</text><text fill="#000000" font-family="sans-serif" font-size="11" lengthAdjust="spacingAndGlyphs" textLength="127" x="236.5" y="606.0151">-sentiment: Sentiment</text><text fill="#000000" font-family="sans-serif" font-size="11" lengthAdjust="spacingAndGlyphs" textLength="111" x="236.5" y="618.8198">-confidence: double</text><text fill="#000000" font-family="sans-serif" font-size="11" lengthAdjust="spacingAndGlyphs" textLength="140" x="236.5" y="631.6245">-keyTopics: List&lt;String&gt;</text><text fill="#000000" font-family="sans-serif" font-size="11" lengthAdjust="spacingAndGlyphs" textLength="137" x="236.5" y="644.4292">-wordCountEstimate: int</text><line style="stroke: #A80036; stroke-width: 1.5;" x1="231.5" x2="390.5" y1="651.0234" y2="651.0234"/><!--MD5=[123750d28b653c6a0f001854481179bc]
class Sentiment--><rect fill="#FEFECE" filter="url(#f272mfdl0p3a7)" height="86.4141" id="Sentiment" style="stroke: #A80036; stroke-width: 1.5;" width="105" x="258.5" y="755.5"/><ellipse cx="273.5" cy="771.5" fill="#EB937F" rx="11" ry="11" style="stroke: #A80036; stroke-width: 1.0;"/><path d="M277.6094,777.5 L269.8906,777.5 L269.8906,765.1094 L277.6094,765.1094 L277.6094,767.2656 L272.3438,767.2656 L272.3438,769.9375 L277.1094,769.9375 L277.1094,772.0938 L272.3438,772.0938 L272.3438,775.3438 L277.6094,775.3438 L277.6094,777.5 Z "/><text fill="#000000" font-family="sans-serif" font-size="12" font-weight="bold" lengthAdjust="spacingAndGlyphs" textLength="73" x="287.5" y="775.6543">Sentiment</text><line style="stroke: #A80036; stroke-width: 1.5;" x1="259.5" x2="362.5" y1="787.5" y2="787.5"/><text fill="#000000" font-family="sans-serif" font-size="11" lengthAdjust="spacingAndGlyphs" textLength="44" x="264.5" y="801.7104">positive</text><text fill="#000000" font-family="sans-serif" font-size="11" lengthAdjust="spacingAndGlyphs" textLength="48" x="264.5" y="814.5151">negative</text><text fill="#000000" font-family="sans-serif" font-size="11" lengthAdjust="spacingAndGlyphs" textLength="40" x="264.5" y="827.3198">neutral</text><line style="stroke: #A80036; stroke-width: 1.5;" x1="259.5" x2="362.5" y1="833.9141" y2="833.9141"/><!--MD5=[276c5612e8e7531d993b7cca45363ed2]
class ClassifyResponse--><rect fill="#FEFECE" filter="url(#f272mfdl0p3a7)" height="86.4141" id="ClassifyResponse" style="stroke: #A80036; stroke-width: 1.5;" width="157" x="38.5" y="560"/><ellipse cx="53.5" cy="576" fill="#ADD1B2" rx="11" ry="11" style="stroke: #A80036; stroke-width: 1.0;"/><path d="M56.4688,581.6406 Q55.8906,581.9375 55.25,582.0781 Q54.6094,582.2344 53.9063,582.2344 Q51.4063,582.2344 50.0781,580.5938 Q48.7656,578.9375 48.7656,575.8125 Q48.7656,572.6875 50.0781,571.0313 Q51.4063,569.375 53.9063,569.375 Q54.6094,569.375 55.25,569.5313 Q55.9063,569.6875 56.4688,569.9844 L56.4688,572.7031 Q55.8438,572.125 55.25,571.8594 Q54.6563,571.5781 54.0313,571.5781 Q52.6875,571.5781 52,572.6563 Q51.3125,573.7188 51.3125,575.8125 Q51.3125,577.9063 52,578.9844 Q52.6875,580.0469 54.0313,580.0469 Q54.6563,580.0469 55.25,579.7813 Q55.8438,579.5 56.4688,578.9219 L56.4688,581.6406 Z "/><text fill="#000000" font-family="sans-serif" font-size="12" font-weight="bold" lengthAdjust="spacingAndGlyphs" textLength="125" x="67.5" y="580.1543">ClassifyResponse</text><line style="stroke: #A80036; stroke-width: 1.5;" x1="39.5" x2="194.5" y1="592" y2="592"/><text fill="#000000" font-family="sans-serif" font-size="11" lengthAdjust="spacingAndGlyphs" textLength="103" x="44.5" y="606.2104">-reasoning: String</text><text fill="#000000" font-family="sans-serif" font-size="11" lengthAdjust="spacingAndGlyphs" textLength="112" x="44.5" y="619.0151">-category: Category</text><text fill="#000000" font-family="sans-serif" font-size="11" lengthAdjust="spacingAndGlyphs" textLength="111" x="44.5" y="631.8198">-confidence: double</text><line style="stroke: #A80036; stroke-width: 1.5;" x1="39.5" x2="194.5" y1="638.4141" y2="638.4141"/><!--MD5=[a96594a83e2ecdc78cbf17c2ddf01934]
class Category--><rect fill="#FEFECE" filter="url(#f272mfdl0p3a7)" height="124.8281" id="Category" style="stroke: #A80036; stroke-width: 1.5;" width="97" x="68.5" y="736"/><ellipse cx="83.5" cy="752" fill="#EB937F" rx="11" ry="11" style="stroke: #A80036; stroke-width: 1.0;"/><path d="M87.6094,758 L79.8906,758 L79.8906,745.6094 L87.6094,745.6094 L87.6094,747.7656 L82.3438,747.7656 L82.3438,750.4375 L87.1094,750.4375 L87.1094,752.5938 L82.3438,752.5938 L82.3438,755.8438 L87.6094,755.8438 L87.6094,758 Z "/><text fill="#000000" font-family="sans-serif" font-size="12" font-weight="bold" lengthAdjust="spacingAndGlyphs" textLength="65" x="97.5" y="756.1543">Category</text><line style="stroke: #A80036; stroke-width: 1.5;" x1="69.5" x2="164.5" y1="768" y2="768"/><text fill="#000000" font-family="sans-serif" font-size="11" lengthAdjust="spacingAndGlyphs" textLength="61" x="74.5" y="782.2104">technology</text><text fill="#000000" font-family="sans-serif" font-size="11" lengthAdjust="spacingAndGlyphs" textLength="40" x="74.5" y="795.0151">politics</text><text fill="#000000" font-family="sans-serif" font-size="11" lengthAdjust="spacingAndGlyphs" textLength="37" x="74.5" y="807.8198">sports</text><text fill="#000000" font-family="sans-serif" font-size="11" lengthAdjust="spacingAndGlyphs" textLength="52" x="74.5" y="820.6245">business</text><text fill="#000000" font-family="sans-serif" font-size="11" lengthAdjust="spacingAndGlyphs" textLength="35" x="74.5" y="833.4292">health</text><text fill="#000000" font-family="sans-serif" font-size="11" lengthAdjust="spacingAndGlyphs" textLength="30" x="74.5" y="846.2339">other</text><line style="stroke: #A80036; stroke-width: 1.5;" x1="69.5" x2="164.5" y1="852.8281" y2="852.8281"/><!--MD5=[d70279aee16cb60954d73d22597b95b5]
class ErrorResponse--><rect fill="#FEFECE" filter="url(#f272mfdl0p3a7)" height="73.6094" id="ErrorResponse" style="stroke: #A80036; stroke-width: 1.5;" width="137" x="608.5" y="566"/><ellipse cx="623.5" cy="582" fill="#ADD1B2" rx="11" ry="11" style="stroke: #A80036; stroke-width: 1.0;"/><path d="M626.4688,587.6406 Q625.8906,587.9375 625.25,588.0781 Q624.6094,588.2344 623.9063,588.2344 Q621.4063,588.2344 620.0781,586.5938 Q618.7656,584.9375 618.7656,581.8125 Q618.7656,578.6875 620.0781,577.0313 Q621.4063,575.375 623.9063,575.375 Q624.6094,575.375 625.25,575.5313 Q625.9063,575.6875 626.4688,575.9844 L626.4688,578.7031 Q625.8438,578.125 625.25,577.8594 Q624.6563,577.5781 624.0313,577.5781 Q622.6875,577.5781 622,578.6563 Q621.3125,579.7188 621.3125,581.8125 Q621.3125,583.9063 622,584.9844 Q622.6875,586.0469 624.0313,586.0469 Q624.6563,586.0469 625.25,585.7813 Q625.8438,585.5 626.4688,584.9219 L626.4688,587.6406 Z "/><text fill="#000000" font-family="sans-serif" font-size="12" font-weight="bold" lengthAdjust="spacingAndGlyphs" textLength="105" x="637.5" y="586.1543">ErrorResponse</text><line style="stroke: #A80036; stroke-width: 1.5;" x1="609.5" x2="744.5" y1="598" y2="598"/><text fill="#000000" font-family="sans-serif" font-size="11" lengthAdjust="spacingAndGlyphs" textLength="75" x="614.5" y="612.2104">-error: String</text><text fill="#000000" font-family="sans-serif" font-size="11" lengthAdjust="spacingAndGlyphs" textLength="97" x="614.5" y="625.0151">-code: ErrorCode</text><line style="stroke: #A80036; stroke-width: 1.5;" x1="609.5" x2="744.5" y1="631.6094" y2="631.6094"/><!--MD5=[e9923e1a33f8410e6361298b2227207f]
class ErrorCode--><rect fill="#FEFECE" filter="url(#f272mfdl0p3a7)" height="86.4141" id="ErrorCode" style="stroke: #A80036; stroke-width: 1.5;" width="113" x="626.5" y="755.5"/><ellipse cx="646" cy="771.5" fill="#EB937F" rx="11" ry="11" style="stroke: #A80036; stroke-width: 1.0;"/><path d="M650.1094,777.5 L642.3906,777.5 L642.3906,765.1094 L650.1094,765.1094 L650.1094,767.2656 L644.8438,767.2656 L644.8438,769.9375 L649.6094,769.9375 L649.6094,772.0938 L644.8438,772.0938 L644.8438,775.3438 L650.1094,775.3438 L650.1094,777.5 Z "/><text fill="#000000" font-family="sans-serif" font-size="12" font-weight="bold" lengthAdjust="spacingAndGlyphs" textLength="71" x="661" y="775.6543">ErrorCode</text><line style="stroke: #A80036; stroke-width: 1.5;" x1="627.5" x2="738.5" y1="787.5" y2="787.5"/><text fill="#000000" font-family="sans-serif" font-size="11" lengthAdjust="spacingAndGlyphs" textLength="81" x="632.5" y="801.7104">INVALID_INPUT</text><text fill="#000000" font-family="sans-serif" font-size="11" lengthAdjust="spacingAndGlyphs" textLength="101" x="632.5" y="814.5151">LLM_UNAVAILABLE</text><text fill="#000000" font-family="sans-serif" font-size="11" lengthAdjust="spacingAndGlyphs" textLength="79" x="632.5" y="827.3198">PARSE_ERROR</text><line style="stroke: #A80036; stroke-width: 1.5;" x1="627.5" x2="738.5" y1="833.9141" y2="833.9141"/><!--MD5=[5cbcdbbc9d99dd605f2fdaaae8079a0a]
class LlmUnavailableException--><rect fill="#FEFECE" filter="url(#f272mfdl0p3a7)" height="60.8047" id="LlmUnavailableException" style="stroke: #A80036; stroke-width: 1.5;" width="372" x="1573" y="572.5"/><ellipse cx="1667.25" cy="588.5" fill="#ADD1B2" rx="11" ry="11" style="stroke: #A80036; stroke-width: 1.0;"/><path d="M1670.2188,594.1406 Q1669.6406,594.4375 1669,594.5781 Q1668.3594,594.7344 1667.6563,594.7344 Q1665.1563,594.7344 1663.8281,593.0938 Q1662.5156,591.4375 1662.5156,588.3125 Q1662.5156,585.1875 1663.8281,583.5313 Q1665.1563,581.875 1667.6563,581.875 Q1668.3594,581.875 1669,582.0313 Q1669.6563,582.1875 1670.2188,582.4844 L1670.2188,585.2031 Q1669.5938,584.625 1669,584.3594 Q1668.4063,584.0781 1667.7813,584.0781 Q1666.4375,584.0781 1665.75,585.1563 Q1665.0625,586.2188 1665.0625,588.3125 Q1665.0625,590.4063 1665.75,591.4844 Q1666.4375,592.5469 1667.7813,592.5469 Q1668.4063,592.5469 1669,592.2813 Q1669.5938,592 1670.2188,591.4219 L1670.2188,594.1406 Z "/><text fill="#000000" font-family="sans-serif" font-size="12" font-weight="bold" lengthAdjust="spacingAndGlyphs" textLength="175" x="1687.75" y="592.6543">LlmUnavailableException</text><line style="stroke: #A80036; stroke-width: 1.5;" x1="1574" x2="1944" y1="604.5" y2="604.5"/><line style="stroke: #A80036; stroke-width: 1.5;" x1="1574" x2="1944" y1="612.5" y2="612.5"/><text fill="#000000" font-family="sans-serif" font-size="11" lengthAdjust="spacingAndGlyphs" textLength="360" x="1579" y="626.7104">+LlmUnavailableException(message: String, cause: Throwable)</text><!--MD5=[52221cc32b96c3919957b075938e0d1c]
class ParseException--><rect fill="#FEFECE" filter="url(#f272mfdl0p3a7)" height="60.8047" id="ParseException" style="stroke: #A80036; stroke-width: 1.5;" width="391" x="1146.5" y="572.5"/><ellipse cx="1283.25" cy="588.5" fill="#ADD1B2" rx="11" ry="11" style="stroke: #A80036; stroke-width: 1.0;"/><path d="M1286.2188,594.1406 Q1285.6406,594.4375 1285,594.5781 Q1284.3594,594.7344 1283.6563,594.7344 Q1281.1563,594.7344 1279.8281,593.0938 Q1278.5156,591.4375 1278.5156,588.3125 Q1278.5156,585.1875 1279.8281,583.5313 Q1281.1563,581.875 1283.6563,581.875 Q1284.3594,581.875 1285,582.0313 Q1285.6563,582.1875 1286.2188,582.4844 L1286.2188,585.2031 Q1285.5938,584.625 1285,584.3594 Q1284.4063,584.0781 1283.7813,584.0781 Q1282.4375,584.0781 1281.75,585.1563 Q1281.0625,586.2188 1281.0625,588.3125 Q1281.0625,590.4063 1281.75,591.4844 Q1282.4375,592.5469 1283.7813,592.5469 Q1284.4063,592.5469 1285,592.2813 Q1285.5938,592 1286.2188,591.4219 L1286.2188,594.1406 Z "/><text fill="#000000" font-family="sans-serif" font-size="12" font-weight="bold" lengthAdjust="spacingAndGlyphs" textLength="109" x="1303.75" y="592.6543">ParseException</text><line style="stroke: #A80036; stroke-width: 1.5;" x1="1147.5" x2="1536.5" y1="604.5" y2="604.5"/><line style="stroke: #A80036; stroke-width: 1.5;" x1="1147.5" x2="1536.5" y1="612.5" y2="612.5"/><text fill="#000000" font-family="sans-serif" font-size="11" lengthAdjust="spacingAndGlyphs" textLength="379" x="1152.5" y="626.7104">+ParseException(message: String, raw: String, cause: Throwable)</text><!--MD5=[0bf6cc7671acd830f68456d528990499]
class GlobalExceptionHandler--><rect fill="#FEFECE" filter="url(#f272mfdl0p3a7)" height="99.2188" id="GlobalExceptionHandler" style="stroke: #A80036; stroke-width: 1.5;" width="537" x="1073.5" y="296.5"/><ellipse cx="1253.25" cy="312.5" fill="#ADD1B2" rx="11" ry="11" style="stroke: #A80036; stroke-width: 1.0;"/><path d="M1256.2188,318.1406 Q1255.6406,318.4375 1255,318.5781 Q1254.3594,318.7344 1253.6563,318.7344 Q1251.1563,318.7344 1249.8281,317.0938 Q1248.5156,315.4375 1248.5156,312.3125 Q1248.5156,309.1875 1249.8281,307.5313 Q1251.1563,305.875 1253.6563,305.875 Q1254.3594,305.875 1255,306.0313 Q1255.6563,306.1875 1256.2188,306.4844 L1256.2188,309.2031 Q1255.5938,308.625 1255,308.3594 Q1254.4063,308.0781 1253.7813,308.0781 Q1252.4375,308.0781 1251.75,309.1563 Q1251.0625,310.2188 1251.0625,312.3125 Q1251.0625,314.4063 1251.75,315.4844 Q1252.4375,316.5469 1253.7813,316.5469 Q1254.4063,316.5469 1255,316.2813 Q1255.5938,316 1256.2188,315.4219 L1256.2188,318.1406 Z "/><text fill="#000000" font-family="sans-serif" font-size="12" font-weight="bold" lengthAdjust="spacingAndGlyphs" textLength="169" x="1273.75" y="316.6543">GlobalExceptionHandler</text><line style="stroke: #A80036; stroke-width: 1.5;" x1="1074.5" x2="1609.5" y1="328.5" y2="328.5"/><line style="stroke: #A80036; stroke-width: 1.5;" x1="1074.5" x2="1609.5" y1="336.5" y2="336.5"/><text fill="#000000" font-family="sans-serif" font-size="11" lengthAdjust="spacingAndGlyphs" textLength="525" x="1079.5" y="350.7104">+handleValidation(ex: MethodArgumentNotValidException): ResponseEntity&lt;ErrorResponse&gt;</text><text fill="#000000" font-family="sans-serif" font-size="11" lengthAdjust="spacingAndGlyphs" textLength="498" x="1079.5" y="363.5151">+handleLlmUnavailable(ex: LlmUnavailableException): ResponseEntity&lt;ErrorResponse&gt;</text><text fill="#000000" font-family="sans-serif" font-size="11" lengthAdjust="spacingAndGlyphs" textLength="423" x="1079.5" y="376.3198">+handleParseError(ex: ParseException): ResponseEntity&lt;ErrorResponse&gt;</text><text fill="#000000" font-family="sans-serif" font-size="11" lengthAdjust="spacingAndGlyphs" textLength="372" x="1079.5" y="389.1245">+handleGeneric(ex: Exception): ResponseEntity&lt;ErrorResponse&gt;</text><!--MD5=[5392e97adaaab1f1ca976cc794ef5ccc]
class ChatClient--><rect fill="#FEFECE" filter="url(#f272mfdl0p3a7)" height="66.7422" id="ChatClient" style="stroke: #A80036; stroke-width: 1.5;" width="228" x="781" y="569.5"/><ellipse cx="853.75" cy="588.4688" fill="#ADD1B2" rx="11" ry="11" style="stroke: #A80036; stroke-width: 1.0;"/><path d="M856.7188,594.1094 Q856.1406,594.4063 855.5,594.5469 Q854.8594,594.7031 854.1563,594.7031 Q851.6563,594.7031 850.3281,593.0625 Q849.0156,591.4063 849.0156,588.2813 Q849.0156,585.1563 850.3281,583.5 Q851.6563,581.8438 854.1563,581.8438 Q854.8594,581.8438 855.5,582 Q856.1563,582.1563 856.7188,582.4531 L856.7188,585.1719 Q856.0938,584.5938 855.5,584.3281 Q854.9063,584.0469 854.2813,584.0469 Q852.9375,584.0469 852.25,585.125 Q851.5625,586.1875 851.5625,588.2813 Q851.5625,590.375 852.25,591.4531 Q852.9375,592.5156 854.2813,592.5156 Q854.9063,592.5156 855.5,592.25 Q856.0938,591.9688 856.7188,591.3906 L856.7188,594.1094 Z "/><text fill="#000000" font-family="sans-serif" font-size="12" font-style="italic" lengthAdjust="spacingAndGlyphs" textLength="66" x="878.25" y="585.6387">«external»</text><text fill="#000000" font-family="sans-serif" font-size="12" font-weight="bold" lengthAdjust="spacingAndGlyphs" textLength="74" x="874.25" y="599.6074">ChatClient</text><line style="stroke: #A80036; stroke-width: 1.5;" x1="782" x2="1008" y1="607.4375" y2="607.4375"/><line style="stroke: #A80036; stroke-width: 1.5;" x1="782" x2="1008" y1="615.4375" y2="615.4375"/><text fill="#000000" font-family="sans-serif" font-size="11" lengthAdjust="spacingAndGlyphs" textLength="216" x="787" y="629.6479">+call(prompt: Prompt): ChatResponse</text><!--MD5=[5c6c7d52e42032554528404b62c1d271]
class RuntimeException--><rect fill="#FEFECE" filter="url(#f272mfdl0p3a7)" height="48" id="RuntimeException" style="stroke: #A80036; stroke-width: 1.5;" width="158" x="1472" y="774.5"/><ellipse cx="1487" cy="790.5" fill="#ADD1B2" rx="11" ry="11" style="stroke: #A80036; stroke-width: 1.0;"/><path d="M1489.9688,796.1406 Q1489.3906,796.4375 1488.75,796.5781 Q1488.1094,796.7344 1487.4063,796.7344 Q1484.9063,796.7344 1483.5781,795.0938 Q1482.2656,793.4375 1482.2656,790.3125 Q1482.2656,787.1875 1483.5781,785.5313 Q1484.9063,783.875 1487.4063,783.875 Q1488.1094,783.875 1488.75,784.0313 Q1489.4063,784.1875 1489.9688,784.4844 L1489.9688,787.2031 Q1489.3438,786.625 1488.75,786.3594 Q1488.1563,786.0781 1487.5313,786.0781 Q1486.1875,786.0781 1485.5,787.1563 Q1484.8125,788.2188 1484.8125,790.3125 Q1484.8125,792.4063 1485.5,793.4844 Q1486.1875,794.5469 1487.5313,794.5469 Q1488.1563,794.5469 1488.75,794.2813 Q1489.3438,794 1489.9688,793.4219 L1489.9688,796.1406 Z "/><text fill="#000000" font-family="sans-serif" font-size="12" font-weight="bold" lengthAdjust="spacingAndGlyphs" textLength="126" x="1501" y="794.6543">RuntimeException</text><line style="stroke: #A80036; stroke-width: 1.5;" x1="1473" x2="1629" y1="806.5" y2="806.5"/><line style="stroke: #A80036; stroke-width: 1.5;" x1="1473" x2="1629" y1="814.5" y2="814.5"/><!--MD5=[ca1d5d877907d9c8daa7d4c900f822cd]
link TextAnalysisController to TextAnalysisService--><path d="M489.5,145.13 C489.5,223.22 489.5,380 489.5,380 C489.5,380 515.75,380 515.75,380 " fill="none" id="TextAnalysisController-&gt;TextAnalysisService" style="stroke: #A80036; stroke-width: 1.0;"/><polygon fill="#A80036" points="520.75,380,511.75,376,515.75,380,511.75,384,520.75,380" style="stroke: #A80036; stroke-width: 1.0;"/><text fill="#000000" font-family="sans-serif" font-size="13" lengthAdjust="spacingAndGlyphs" textLength="30" x="631" y="190.0669">uses</text><!--MD5=[de755979e0835af4040eea6680d95e41]
link TextAnalysisService to ChatClient--><path d="M895,447.2 C895,447.2 895,564.42 895,564.42 " fill="none" id="TextAnalysisService-&gt;ChatClient" style="stroke: #A80036; stroke-width: 1.0;"/><polygon fill="#A80036" points="895,569.42,899,560.42,895,564.42,891,560.42,895,569.42" style="stroke: #A80036; stroke-width: 1.0;"/><text fill="#000000" font-family="sans-serif" font-size="13" lengthAdjust="spacingAndGlyphs" textLength="30" x="840" y="492.0669">uses</text><!--MD5=[7ae27f8c7621c233bd69bc5e794f8a12]
link TextAnalysisController to AnalyzeRequest--><path d="M458,145.15 C458,145.15 458,567.4 458,567.4 " fill="none" id="TextAnalysisController-&gt;AnalyzeRequest" style="stroke: #A80036; stroke-width: 1.0; stroke-dasharray: 7.0,7.0;"/><polygon fill="#A80036" points="458,572.4,462,563.4,458,567.4,454,563.4,458,572.4" style="stroke: #A80036; stroke-width: 1.0;"/><text fill="#000000" font-family="sans-serif" font-size="13" lengthAdjust="spacingAndGlyphs" textLength="50" x="435" y="350.5669">accepts</text><!--MD5=[c53aca6a522b75e76c47adcac053a723]
link TextAnalysisController to AnalysisResponse--><path d="M311,145.15 C311,145.15 311,541.97 311,541.97 " fill="none" id="TextAnalysisController-&gt;AnalysisResponse" style="stroke: #A80036; stroke-width: 1.0; stroke-dasharray: 7.0,7.0;"/><polygon fill="#A80036" points="311,546.97,315,537.97,311,541.97,307,537.97,311,546.97" style="stroke: #A80036; stroke-width: 1.0;"/><text fill="#000000" font-family="sans-serif" font-size="13" lengthAdjust="spacingAndGlyphs" textLength="46" x="293" y="350.5669">returns</text><!--MD5=[ad32168180a21f790fea3103b9123071]
link TextAnalysisController to ClassifyResponse--><path d="M216.25,145.15 C216.25,266.67 216.25,603 216.25,603 C216.25,603 200.69,603 200.69,603 " fill="none" id="TextAnalysisController-&gt;ClassifyResponse" style="stroke: #A80036; stroke-width: 1.0; stroke-dasharray: 7.0,7.0;"/><polygon fill="#A80036" points="195.69,603,204.69,607,200.69,603,204.69,599,195.69,603" style="stroke: #A80036; stroke-width: 1.0;"/><text fill="#000000" font-family="sans-serif" font-size="13" lengthAdjust="spacingAndGlyphs" textLength="46" x="146" y="350.5669">returns</text><!--MD5=[270934d3d87b53c52c8b791b5af52180]
link TextAnalysisService to AnalyzeRequest--><path d="M556,447.2 C556,447.2 556,567.38 556,567.38 " fill="none" id="TextAnalysisService-&gt;AnalyzeRequest" style="stroke: #A80036; stroke-width: 1.0; stroke-dasharray: 7.0,7.0;"/><polygon fill="#A80036" points="556,572.38,560,563.38,556,567.38,552,563.38,556,572.38" style="stroke: #A80036; stroke-width: 1.0;"/><text fill="#000000" font-family="sans-serif" font-size="13" lengthAdjust="spacingAndGlyphs" textLength="36" x="720" y="492.0669">reads</text><!--MD5=[ff4f054a32ac09bbd81f3d903df2316a]
link TextAnalysisService to AnalysisResponse--><path d="M538.5,447.17 C538.5,501.33 538.5,557 538.5,557 C538.5,557 396.53,557 396.53,557 " fill="none" id="TextAnalysisService-&gt;AnalysisResponse" style="stroke: #A80036; stroke-width: 1.0; stroke-dasharray: 7.0,7.0;"/><polygon fill="#A80036" points="391.53,557,400.53,561,396.53,557,400.53,553,391.53,557" style="stroke: #A80036; stroke-width: 1.0;"/><text fill="#000000" font-family="sans-serif" font-size="13" lengthAdjust="spacingAndGlyphs" textLength="59" x="535" y="492.0669">produces</text><!--MD5=[775f2984da1c27454c61d10aaad8d397]
link TextAnalysisService to ClassifyResponse--><path d="M520.65,313 C336.39,313 117,313 117,313 C117,313 117,554.9 117,554.9 " fill="none" id="TextAnalysisService-&gt;ClassifyResponse" style="stroke: #A80036; stroke-width: 1.0; stroke-dasharray: 7.0,7.0;"/><polygon fill="#A80036" points="117,559.9,121,550.9,117,554.9,113,550.9,117,559.9" style="stroke: #A80036; stroke-width: 1.0;"/><text fill="#000000" font-family="sans-serif" font-size="13" lengthAdjust="spacingAndGlyphs" textLength="59" x="351" y="492.0669">produces</text><!--MD5=[9b05ce65cd567ce25da1ffe4e606efe5]
link AnalysisResponse to Sentiment--><path d="M311,659.02 C311,659.02 311,750.21 311,750.21 " fill="none" id="AnalysisResponse-&gt;Sentiment" style="stroke: #A80036; stroke-width: 1.0;"/><polygon fill="#A80036" points="311,755.21,315,746.21,311,750.21,307,746.21,311,755.21" style="stroke: #A80036; stroke-width: 1.0;"/><text fill="#000000" font-family="sans-serif" font-size="13" lengthAdjust="spacingAndGlyphs" textLength="30" x="312" y="702.0669">uses</text><!--MD5=[a97e1626401b2b221c8875ffd03ef42f]
link ClassifyResponse to Category--><path d="M117,646.39 C117,646.39 117,730.95 117,730.95 " fill="none" id="ClassifyResponse-&gt;Category" style="stroke: #A80036; stroke-width: 1.0;"/><polygon fill="#A80036" points="117,735.95,121,726.95,117,730.95,113,726.95,117,735.95" style="stroke: #A80036; stroke-width: 1.0;"/><text fill="#000000" font-family="sans-serif" font-size="13" lengthAdjust="spacingAndGlyphs" textLength="30" x="118" y="702.0669">uses</text><!--MD5=[ea35923e8ca1c8141ec31639204c4231]
link TextAnalysisService to LlmUnavailableException--><path d="M1017.02,422 C1257.27,422 1585.5,422 1585.5,422 C1585.5,422 1585.5,567.3 1585.5,567.3 " fill="none" id="TextAnalysisService-&gt;LlmUnavailableException" style="stroke: #A80036; stroke-width: 1.0; stroke-dasharray: 7.0,7.0;"/><polygon fill="#A80036" points="1585.5,572.3,1589.5,563.3,1585.5,567.3,1581.5,563.3,1585.5,572.3" style="stroke: #A80036; stroke-width: 1.0;"/><text fill="#000000" font-family="sans-serif" font-size="13" lengthAdjust="spacingAndGlyphs" textLength="42" x="1199" y="492.0669">throws</text><!--MD5=[1a8012168eddcebc25b1856567c124b1]
link TextAnalysisService to ParseException--><path d="M1013,447.2 C1013,519.12 1013,603 1013,603 C1013,603 1141.34,603 1141.34,603 " fill="none" id="TextAnalysisService-&gt;ParseException" style="stroke: #A80036; stroke-width: 1.0; stroke-dasharray: 7.0,7.0;"/><polygon fill="#A80036" points="1146.34,603,1137.34,599,1141.34,603,1137.34,607,1146.34,603" style="stroke: #A80036; stroke-width: 1.0;"/><text fill="#000000" font-family="sans-serif" font-size="13" lengthAdjust="spacingAndGlyphs" textLength="42" x="1013" y="492.0669">throws</text><!--MD5=[9e1ed9971e8d7ffa4c6c6b0d9bba0ebd]
link GlobalExceptionHandler to LlmUnavailableException--><path d="M1598,395.55 C1598,395.55 1598,567.16 1598,567.16 " fill="none" id="GlobalExceptionHandler-&gt;LlmUnavailableException" style="stroke: #A80036; stroke-width: 1.0; stroke-dasharray: 7.0,7.0;"/><polygon fill="#A80036" points="1598,572.16,1602,563.16,1598,567.16,1594,563.16,1598,572.16" style="stroke: #A80036; stroke-width: 1.0;"/><text fill="#000000" font-family="sans-serif" font-size="13" lengthAdjust="spacingAndGlyphs" textLength="50" x="1597" y="492.0669">handles</text><!--MD5=[51eead38ad3f0149235fc290e046e670]
link GlobalExceptionHandler to ParseException--><path d="M1342,395.55 C1342,395.55 1342,567.16 1342,567.16 " fill="none" id="GlobalExceptionHandler-&gt;ParseException" style="stroke: #A80036; stroke-width: 1.0; stroke-dasharray: 7.0,7.0;"/><polygon fill="#A80036" points="1342,572.16,1346,563.16,1342,567.16,1338,563.16,1342,572.16" style="stroke: #A80036; stroke-width: 1.0;"/><text fill="#000000" font-family="sans-serif" font-size="13" lengthAdjust="spacingAndGlyphs" textLength="50" x="1343" y="492.0669">handles</text><!--MD5=[d7dd3d784598f73100c39d2df611899e]
link GlobalExceptionHandler to ErrorResponse--><path d="M1097.83,395.86 C1097.83,439.84 1097.83,497 1097.83,497 C1097.83,497 677,497 677,497 C677,497 677,560.93 677,560.93 " fill="none" id="GlobalExceptionHandler-&gt;ErrorResponse" style="stroke: #A80036; stroke-width: 1.0; stroke-dasharray: 7.0,7.0;"/><polygon fill="#A80036" points="677,565.93,681,556.93,677,560.93,673,556.93,677,565.93" style="stroke: #A80036; stroke-width: 1.0;"/><text fill="#000000" font-family="sans-serif" font-size="13" lengthAdjust="spacingAndGlyphs" textLength="59" x="912" y="492.0669">produces</text><!--MD5=[0e46dead6b18754903429f3c5972c8ce]
link GlobalExceptionHandler to ErrorCode--><path d="M1122.17,395.71 C1122.17,506.7 1122.17,765 1122.17,765 C1122.17,765 744.51,765 744.51,765 " fill="none" id="GlobalExceptionHandler-&gt;ErrorCode" style="stroke: #A80036; stroke-width: 1.0; stroke-dasharray: 7.0,7.0;"/><polygon fill="#A80036" points="739.51,765,748.51,769,744.51,765,748.51,761,739.51,765" style="stroke: #A80036; stroke-width: 1.0;"/><text fill="#000000" font-family="sans-serif" font-size="13" lengthAdjust="spacingAndGlyphs" textLength="30" x="1080" y="607.5669">uses</text><!--MD5=[3f09eda78f7c99815336a97b2112fc12]
link ErrorResponse to ErrorCode--><path d="M683,640.23 C683,640.23 683,750.27 683,750.27 " fill="none" id="ErrorResponse-&gt;ErrorCode" style="stroke: #A80036; stroke-width: 1.0;"/><polygon fill="#A80036" points="683,755.27,687,746.27,683,750.27,679,746.27,683,755.27" style="stroke: #A80036; stroke-width: 1.0;"/><text fill="#000000" font-family="sans-serif" font-size="13" lengthAdjust="spacingAndGlyphs" textLength="30" x="681" y="702.0669">uses</text><!--MD5=[98ca6bfa44ecdefc6a5bf4fa2084c2a8]
link LlmUnavailableException to RuntimeException--><path d="M1601.5,633.55 C1601.5,633.55 1601.5,754.33 1601.5,754.33 " fill="none" id="LlmUnavailableException-&gt;RuntimeException" style="stroke: #A80036; stroke-width: 1.0;"/><polygon fill="none" points="1608.5,754.33,1601.5,774.33,1594.5,754.33,1608.5,754.33" style="stroke: #A80036; stroke-width: 1.0;"/><!--MD5=[12683b31aa232a81654aa52f938076d4]
link ParseException to RuntimeException--><path d="M1504.75,633.55 C1504.75,633.55 1504.75,754.33 1504.75,754.33 " fill="none" id="ParseException-&gt;RuntimeException" style="stroke: #A80036; stroke-width: 1.0;"/><polygon fill="none" points="1511.75,754.33,1504.75,774.33,1497.75,754.33,1511.75,754.33" style="stroke: #A80036; stroke-width: 1.0;"/><!--MD5=[bf30b60ac705bd8a8077a9ff4950b2c6]
@startuml class-diagram

skinparam classAttributeIconSize 0
skinparam classFontStyle bold
skinparam linetype ortho

package "controller" {
  class TextAnalysisController {
    - service: TextAnalysisService
    + analyze(request: AnalyzeRequest): AnalysisResponse
    + classify(request: AnalyzeRequest): ClassifyResponse
  }
}

package "service" {
  class TextAnalysisService {
    - chatClient: ChatClient
    - objectMapper: ObjectMapper
    - systemPrompt: String
    - classifyPrompt: String
    - fallbackModel: String
    + analyze(request: AnalyzeRequest): AnalysisResponse
    + classify(request: AnalyzeRequest): ClassifyResponse
    - attemptAnalyze(request: AnalyzeRequest, modelOverride: String): AnalysisResponse
    - attemptClassify(request: AnalyzeRequest, modelOverride: String): ClassifyResponse
    - parseResponse(raw: String): AnalysisResponse
    - classifyResponse(raw: String): ClassifyResponse
    - logUsage(response: ChatResponse, latencyMs: long, isFallback: boolean): void
  }
}

package "dto" {
  class AnalyzeRequest {
    - text: String
  }

  class AnalysisResponse {
    - summary: String
    - sentiment: Sentiment
    - confidence: double
    - keyTopics: List<String>
    - wordCountEstimate: int
  }

  enum Sentiment {
    positive
    negative
    neutral
  }

  class ClassifyResponse {
    - reasoning: String
    - category: Category
    - confidence: double
  }

  enum Category {
    technology
    politics
    sports
    business
    health
    other
  }

  class ErrorResponse {
    - error: String
    - code: ErrorCode
  }

  enum ErrorCode {
    INVALID_INPUT
    LLM_UNAVAILABLE
    PARSE_ERROR
  }
}

package "exception" {
  class LlmUnavailableException {
    + LlmUnavailableException(message: String, cause: Throwable)
  }

  class ParseException {
    + ParseException(message: String, raw: String, cause: Throwable)
  }
}

package "exception.handler" {
  class GlobalExceptionHandler {
    + handleValidation(ex: MethodArgumentNotValidException): ResponseEntity<ErrorResponse>
    + handleLlmUnavailable(ex: LlmUnavailableException): ResponseEntity<ErrorResponse>
    + handleParseError(ex: ParseException): ResponseEntity<ErrorResponse>
    + handleGeneric(ex: Exception): ResponseEntity<ErrorResponse>
  }
}

TextAnalysisController - -> TextAnalysisService : uses

TextAnalysisService - -> ChatClient : uses

TextAnalysisController ..> AnalyzeRequest : accepts
TextAnalysisController ..> AnalysisResponse : returns
TextAnalysisController ..> ClassifyResponse : returns

TextAnalysisService ..> AnalyzeRequest : reads
TextAnalysisService ..> AnalysisResponse : produces
TextAnalysisService ..> ClassifyResponse : produces

AnalysisResponse - -> Sentiment : uses
ClassifyResponse - -> Category : uses

TextAnalysisService ..> LlmUnavailableException : «throws»
TextAnalysisService ..> ParseException : «throws»

GlobalExceptionHandler ..> LlmUnavailableException : «handles»
GlobalExceptionHandler ..> ParseException : «handles»
GlobalExceptionHandler ..> ErrorResponse : produces
GlobalExceptionHandler ..> ErrorCode : uses

ErrorResponse - -> ErrorCode : uses

LlmUnavailableException - -|> RuntimeException
ParseException - -|> RuntimeException

class ChatClient <<external>> {
  + call(prompt: Prompt): ChatResponse
}

@enduml

PlantUML version 1.2020.02(Sun Mar 01 10:22:07 UTC 2020)
(GPL source distribution)
Java Runtime: OpenJDK Runtime Environment
JVM: OpenJDK 64-Bit Server VM
Java Version: 17.0.19+10
Operating System: Linux
Default Encoding: UTF-8
Language: en
Country: null
--></g></svg>