<?xml version="1.0" encoding="UTF-8" standalone="no"?><svg xmlns="http://www.w3.org/2000/svg" xmlns:xlink="http://www.w3.org/1999/xlink" contentScriptType="application/ecmascript" contentStyleType="text/css" height="2088px" preserveAspectRatio="none" style="width:1410px;height:2088px;" version="1.1" viewBox="0 0 1410 2088" width="1410px" zoomAndPan="magnify"><defs><filter height="300%" id="ff9sf72twlpyw" width="300%" x="-1" y="-1"><feGaussianBlur result="blurOut" stdDeviation="2.0"/><feColorMatrix in="blurOut" result="blurOut2" type="matrix" values="0 0 0 0 0 0 0 0 0 0 0 0 0 0 0 0 0 0 .4 0"/><feOffset dx="4.0" dy="4.0" in="blurOut2" result="blurOut3"/><feBlend in="SourceGraphic" in2="blurOut3" mode="normal"/></filter></defs><g><text fill="#000000" font-family="sans-serif" font-size="18" lengthAdjust="spacingAndGlyphs" textLength="498" x="451.5" y="26.708">Sequence Diagram 3 — LLM Failure, Retry, and Fallback</text><text fill="#000000" font-family="sans-serif" font-size="18" lengthAdjust="spacingAndGlyphs" textLength="400" x="500.5" y="47.6611">(applies to both /api/analyze and /api/classify)</text><rect fill="#FFFFFF" filter="url(#ff9sf72twlpyw)" height="190.6016" style="stroke: #000000; stroke-width: 2.0;" width="554" x="469" y="430.3984"/><rect fill="#FFFFFF" height="115.2031" style="stroke: none; stroke-width: 1.0;" width="554" x="469" y="505.7969"/><rect fill="#FFFFFF" filter="url(#ff9sf72twlpyw)" height="1193.8516" style="stroke: #000000; stroke-width: 2.0;" width="1375" x="13" y="790.6641"/><rect fill="#FFFFFF" filter="url(#ff9sf72twlpyw)" height="527.5938" style="stroke: #000000; stroke-width: 2.0;" width="1329" x="23" y="1043.8594"/><rect fill="#FFFFFF" height="294.5313" style="stroke: none; stroke-width: 1.0;" width="1329" x="23" y="1276.9219"/><rect fill="#FFFFFF" height="406.0625" style="stroke: none; stroke-width: 1.0;" width="1375" x="13" y="1578.4531"/><line style="stroke: #A80036; stroke-width: 1.0; stroke-dasharray: 5.0,5.0;" x1="55" x2="55" y1="142.2031" y2="2001.5156"/><line style="stroke: #A80036; stroke-width: 1.0; stroke-dasharray: 5.0,5.0;" x1="297.5" x2="297.5" y1="142.2031" y2="2001.5156"/><line style="stroke: #A80036; stroke-width: 1.0; stroke-dasharray: 5.0,5.0;" x1="555" x2="555" y1="142.2031" y2="2001.5156"/><line style="stroke: #A80036; stroke-width: 1.0; stroke-dasharray: 5.0,5.0;" x1="787" x2="787" y1="142.2031" y2="2001.5156"/><line style="stroke: #A80036; stroke-width: 1.0; stroke-dasharray: 5.0,5.0;" x1="966" x2="966" y1="142.2031" y2="2001.5156"/><line style="stroke: #A80036; stroke-width: 1.0; stroke-dasharray: 5.0,5.0;" x1="1114" x2="1114" y1="142.2031" y2="2001.5156"/><text fill="#000000" font-family="sans-serif" font-size="14" lengthAdjust="spacingAndGlyphs" textLength="39" x="33" y="138.9014">Client</text><ellipse cx="55.5" cy="68.9063" fill="#FEFECE" filter="url(#ff9sf72twlpyw)" rx="8" ry="8" style="stroke: #A80036; stroke-width: 2.0;"/><path d="M55.5,76.9063 L55.5,103.9063 M42.5,84.9063 L68.5,84.9063 M55.5,103.9063 L42.5,118.9063 M55.5,103.9063 L68.5,118.9063 " fill="none" filter="url(#ff9sf72twlpyw)" style="stroke: #A80036; stroke-width: 2.0;"/><text fill="#000000" font-family="sans-serif" font-size="14" lengthAdjust="spacingAndGlyphs" textLength="39" x="33" y="2013.5107">Client</text><ellipse cx="55.5" cy="2026.8125" fill="#FEFECE" filter="url(#ff9sf72twlpyw)" rx="8" ry="8" style="stroke: #A80036; stroke-width: 2.0;"/><path d="M55.5,2034.8125 L55.5,2061.8125 M42.5,2042.8125 L68.5,2042.8125 M55.5,2061.8125 L42.5,2076.8125 M55.5,2061.8125 L68.5,2076.8125 " fill="none" filter="url(#ff9sf72twlpyw)" style="stroke: #A80036; stroke-width: 2.0;"/><rect fill="#FEFECE" filter="url(#ff9sf72twlpyw)" height="30.2969" style="stroke: #A80036; stroke-width: 1.5;" width="166" x="212.5" y="106.9063"/><text fill="#000000" font-family="sans-serif" font-size="14" lengthAdjust="spacingAndGlyphs" textLength="152" x="219.5" y="126.9014">TextAnalysisController</text><rect fill="#FEFECE" filter="url(#ff9sf72twlpyw)" height="30.2969" style="stroke: #A80036; stroke-width: 1.5;" width="166" x="212.5" y="2000.5156"/><text fill="#000000" font-family="sans-serif" font-size="14" lengthAdjust="spacingAndGlyphs" textLength="152" x="219.5" y="2020.5107">TextAnalysisController</text><rect fill="#FEFECE" filter="url(#ff9sf72twlpyw)" height="30.2969" style="stroke: #A80036; stroke-width: 1.5;" width="149" x="479" y="106.9063"/><text fill="#000000" font-family="sans-serif" font-size="14" lengthAdjust="spacingAndGlyphs" textLength="135" x="486" y="126.9014">TextAnalysisService</text><rect fill="#FEFECE" filter="url(#ff9sf72twlpyw)" height="30.2969" style="stroke: #A80036; stroke-width: 1.5;" width="149" x="479" y="2000.5156"/><text fill="#000000" font-family="sans-serif" font-size="14" lengthAdjust="spacingAndGlyphs" textLength="135" x="486" y="2020.5107">TextAnalysisService</text><rect fill="#FEFECE" filter="url(#ff9sf72twlpyw)" height="46.5938" style="stroke: #A80036; stroke-width: 1.5;" width="85" x="743" y="90.6094"/><text fill="#000000" font-family="sans-serif" font-size="14" lengthAdjust="spacingAndGlyphs" textLength="71" x="750" y="110.6045">ChatClient</text><text fill="#000000" font-family="sans-serif" font-size="14" lengthAdjust="spacingAndGlyphs" textLength="70" x="750.5" y="126.9014">(Spring AI)</text><rect fill="#FEFECE" filter="url(#ff9sf72twlpyw)" height="46.5938" style="stroke: #A80036; stroke-width: 1.5;" width="85" x="743" y="2000.5156"/><text fill="#000000" font-family="sans-serif" font-size="14" lengthAdjust="spacingAndGlyphs" textLength="71" x="750" y="2020.5107">ChatClient</text><text fill="#000000" font-family="sans-serif" font-size="14" lengthAdjust="spacingAndGlyphs" textLength="70" x="750.5" y="2036.8076">(Spring AI)</text><rect fill="#FEFECE" filter="url(#ff9sf72twlpyw)" height="30.2969" style="stroke: #A80036; stroke-width: 1.5;" width="89" x="920" y="106.9063"/><text fill="#000000" font-family="sans-serif" font-size="14" lengthAdjust="spacingAndGlyphs" textLength="75" x="927" y="126.9014">OpenAI API</text><rect fill="#FEFECE" filter="url(#ff9sf72twlpyw)" height="30.2969" style="stroke: #A80036; stroke-width: 1.5;" width="89" x="920" y="2000.5156"/><text fill="#000000" font-family="sans-serif" font-size="14" lengthAdjust="spacingAndGlyphs" textLength="75" x="927" y="2020.5107">OpenAI API</text><rect fill="#FEFECE" filter="url(#ff9sf72twlpyw)" height="30.2969" style="stroke: #A80036; stroke-width: 1.5;" width="178" x="1023" y="106.9063"/><text fill="#000000" font-family="sans-serif" font-size="14" lengthAdjust="spacingAndGlyphs" textLength="164" x="1030" y="126.9014">GlobalExceptionHandler</text><rect fill="#FEFECE" filter="url(#ff9sf72twlpyw)" height="30.2969" style="stroke: #A80036; stroke-width: 1.5;" width="178" x="1023" y="2000.5156"/><text fill="#000000" font-family="sans-serif" font-size="14" lengthAdjust="spacingAndGlyphs" textLength="164" x="1030" y="2020.5107">GlobalExceptionHandler</text><polygon fill="#A80036" points="285.5,184.4688,295.5,188.4688,285.5,192.4688,289.5,188.4688" style="stroke: #A80036; stroke-width: 1.0;"/><line style="stroke: #A80036; stroke-width: 1.0;" x1="55.5" x2="291.5" y1="188.4688" y2="188.4688"/><text fill="#000000" font-family="sans-serif" font-size="13" lengthAdjust="spacingAndGlyphs" textLength="218" x="67.5" y="168.27">POST /api/analyze (or /api/classify)</text><text fill="#000000" font-family="sans-serif" font-size="13" lengthAdjust="spacingAndGlyphs" textLength="89" x="132" y="183.4028">{ "text": "..." }</text><line style="stroke: #A80036; stroke-width: 1.0;" x1="297.5" x2="339.5" y1="217.6016" y2="217.6016"/><line style="stroke: #A80036; stroke-width: 1.0;" x1="339.5" x2="339.5" y1="217.6016" y2="230.6016"/><line style="stroke: #A80036; stroke-width: 1.0;" x1="298.5" x2="339.5" y1="230.6016" y2="230.6016"/><polygon fill="#A80036" points="308.5,226.6016,298.5,230.6016,308.5,234.6016,304.5,230.6016" style="stroke: #A80036; stroke-width: 1.0;"/><text fill="#000000" font-family="sans-serif" font-size="13" lengthAdjust="spacingAndGlyphs" textLength="110" x="304.5" y="212.5356">@Valid — passes</text><polygon fill="#A80036" points="543.5,255.7344,553.5,259.7344,543.5,263.7344,547.5,259.7344" style="stroke: #A80036; stroke-width: 1.0;"/><line style="stroke: #A80036; stroke-width: 1.0;" x1="297.5" x2="549.5" y1="259.7344" y2="259.7344"/><text fill="#000000" font-family="sans-serif" font-size="13" lengthAdjust="spacingAndGlyphs" textLength="234" x="309.5" y="254.6685">analyze(request) or classify(request)</text><path d="M466,272.7344 L466,312.7344 L641,312.7344 L641,282.7344 L631,272.7344 L466,272.7344 " fill="#FBFB77" filter="url(#ff9sf72twlpyw)" style="stroke: #A80036; stroke-width: 1.0;"/><path d="M631,272.7344 L631,282.7344 L641,282.7344 L631,272.7344 " fill="#FBFB77" style="stroke: #A80036; stroke-width: 1.0;"/><text fill="#000000" font-family="sans-serif" font-size="13" lengthAdjust="spacingAndGlyphs" textLength="154" x="472" y="289.8013">Same retry logic applies</text><text fill="#000000" font-family="sans-serif" font-size="13" lengthAdjust="spacingAndGlyphs" textLength="113" x="472" y="304.9341">to both endpoints</text><rect fill="#EEEEEE" filter="url(#ff9sf72twlpyw)" height="3" style="stroke: #EEEEEE; stroke-width: 1.0;" width="1395" x="3" y="342.5664"/><line style="stroke: #000000; stroke-width: 1.0;" x1="3" x2="1398" y1="342.5664" y2="342.5664"/><line style="stroke: #000000; stroke-width: 1.0;" x1="3" x2="1398" y1="345.5664" y2="345.5664"/><rect fill="#EEEEEE" filter="url(#ff9sf72twlpyw)" height="23.1328" style="stroke: #000000; stroke-width: 2.0;" width="94" x="653.5" y="332"/><text fill="#000000" font-family="sans-serif" font-size="13" font-weight="bold" lengthAdjust="spacingAndGlyphs" textLength="75" x="659.5" y="348.0669">Attempt 1</text><polygon fill="#A80036" points="775.5,382.2656,785.5,386.2656,775.5,390.2656,779.5,386.2656" style="stroke: #A80036; stroke-width: 1.0;"/><line style="stroke: #A80036; stroke-width: 1.0;" x1="555.5" x2="781.5" y1="386.2656" y2="386.2656"/><text fill="#000000" font-family="sans-serif" font-size="13" lengthAdjust="spacingAndGlyphs" textLength="78" x="632.5" y="381.1997">call(prompt)</text><polygon fill="#A80036" points="954.5,411.3984,964.5,415.3984,954.5,419.3984,958.5,415.3984" style="stroke: #A80036; stroke-width: 1.0;"/><line style="stroke: #A80036; stroke-width: 1.0;" x1="787.5" x2="960.5" y1="415.3984" y2="415.3984"/><text fill="#000000" font-family="sans-serif" font-size="13" lengthAdjust="spacingAndGlyphs" textLength="94" x="830" y="410.3325">HTTPS request</text><path d="M469,430.3984 L533,430.3984 L533,437.3984 L523,447.3984 L469,447.3984 L469,430.3984 " fill="#EEEEEE" style="stroke: #000000; stroke-width: 1.0;"/><rect fill="none" height="190.6016" style="stroke: #000000; stroke-width: 2.0;" width="554" x="469" y="430.3984"/><text fill="#000000" font-family="sans-serif" font-size="13" font-weight="bold" lengthAdjust="spacingAndGlyphs" textLength="19" x="484" y="443.4653">alt</text><text fill="#000000" font-family="sans-serif" font-size="11" font-weight="bold" lengthAdjust="spacingAndGlyphs" textLength="211" x="548" y="442.6089">[LLM unavailable (timeout / 5xx)]</text><polygon fill="#A80036" points="798.5,447.5313,788.5,451.5313,798.5,455.5313,794.5,451.5313" style="stroke: #A80036; stroke-width: 1.0;"/><line style="stroke: #A80036; stroke-width: 1.0; stroke-dasharray: 2.0,2.0;" x1="792.5" x2="965.5" y1="451.5313" y2="451.5313"/><text fill="#000000" font-family="sans-serif" font-size="13" lengthAdjust="spacingAndGlyphs" textLength="93" x="830.5" y="464.5981">error / timeout</text><polygon fill="#A80036" points="566.5,476.6641,556.5,480.6641,566.5,484.6641,562.5,480.6641" style="stroke: #A80036; stroke-width: 1.0;"/><line style="stroke: #A80036; stroke-width: 1.0; stroke-dasharray: 2.0,2.0;" x1="560.5" x2="786.5" y1="480.6641" y2="480.6641"/><text fill="#000000" font-family="sans-serif" font-size="13" lengthAdjust="spacingAndGlyphs" textLength="62" x="640.5" y="493.731">exception</text><line style="stroke: #000000; stroke-width: 1.0; stroke-dasharray: 2.0,2.0;" x1="469" x2="1023" y1="506.7969" y2="506.7969"/><text fill="#000000" font-family="sans-serif" font-size="11" font-weight="bold" lengthAdjust="spacingAndGlyphs" textLength="192" x="474" y="517.0073">[LLM returns malformed JSON]</text><polygon fill="#A80036" points="798.5,520.6016,788.5,524.6016,798.5,528.6016,794.5,524.6016" style="stroke: #A80036; stroke-width: 1.0;"/><line style="stroke: #A80036; stroke-width: 1.0; stroke-dasharray: 2.0,2.0;" x1="792.5" x2="965.5" y1="524.6016" y2="524.6016"/><text fill="#000000" font-family="sans-serif" font-size="13" lengthAdjust="spacingAndGlyphs" textLength="155" x="799.5" y="537.6685">200 OK (bad JSON body)</text><polygon fill="#A80036" points="566.5,549.7344,556.5,553.7344,566.5,557.7344,562.5,553.7344" style="stroke: #A80036; stroke-width: 1.0;"/><line style="stroke: #A80036; stroke-width: 1.0; stroke-dasharray: 2.0,2.0;" x1="560.5" x2="786.5" y1="553.7344" y2="553.7344"/><text fill="#000000" font-family="sans-serif" font-size="13" lengthAdjust="spacingAndGlyphs" textLength="92" x="625.5" y="566.8013">ChatResponse</text><line style="stroke: #A80036; stroke-width: 1.0;" x1="555.5" x2="597.5" y1="600" y2="600"/><line style="stroke: #A80036; stroke-width: 1.0;" x1="597.5" x2="597.5" y1="600" y2="613"/><line style="stroke: #A80036; stroke-width: 1.0;" x1="556.5" x2="597.5" y1="613" y2="613"/><polygon fill="#A80036" points="566.5,609,556.5,613,566.5,617,562.5,613" style="stroke: #A80036; stroke-width: 1.0;"/><text fill="#000000" font-family="sans-serif" font-size="13" lengthAdjust="spacingAndGlyphs" textLength="154" x="562.5" y="594.9341">parseResponse() — fails</text><path d="M489,633 L489,673 L617,673 L617,643 L607,633 L489,633 " fill="#FBFB77" filter="url(#ff9sf72twlpyw)" style="stroke: #A80036; stroke-width: 1.0;"/><path d="M607,633 L607,643 L617,643 L607,633 " fill="#FBFB77" style="stroke: #A80036; stroke-width: 1.0;"/><text fill="#000000" font-family="sans-serif" font-size="13" lengthAdjust="spacingAndGlyphs" textLength="107" x="495" y="650.0669">Attempt 1 failed.</text><text fill="#000000" font-family="sans-serif" font-size="13" lengthAdjust="spacingAndGlyphs" textLength="91" x="495" y="665.1997">Retrying once.</text><rect fill="#EEEEEE" filter="url(#ff9sf72twlpyw)" height="3" style="stroke: #EEEEEE; stroke-width: 1.0;" width="1395" x="3" y="702.832"/><line style="stroke: #000000; stroke-width: 1.0;" x1="3" x2="1398" y1="702.832" y2="702.832"/><line style="stroke: #000000; stroke-width: 1.0;" x1="3" x2="1398" y1="705.832" y2="705.832"/><rect fill="#EEEEEE" filter="url(#ff9sf72twlpyw)" height="23.1328" style="stroke: #000000; stroke-width: 2.0;" width="146" x="627.5" y="692.2656"/><text fill="#000000" font-family="sans-serif" font-size="13" font-weight="bold" lengthAdjust="spacingAndGlyphs" textLength="127" x="633.5" y="708.3325">Attempt 2 (retry)</text><polygon fill="#A80036" points="775.5,742.5313,785.5,746.5313,775.5,750.5313,779.5,746.5313" style="stroke: #A80036; stroke-width: 1.0;"/><line style="stroke: #A80036; stroke-width: 1.0;" x1="555.5" x2="781.5" y1="746.5313" y2="746.5313"/><text fill="#000000" font-family="sans-serif" font-size="13" lengthAdjust="spacingAndGlyphs" textLength="78" x="632.5" y="741.4653">call(prompt)</text><polygon fill="#A80036" points="954.5,771.6641,964.5,775.6641,954.5,779.6641,958.5,775.6641" style="stroke: #A80036; stroke-width: 1.0;"/><line style="stroke: #A80036; stroke-width: 1.0;" x1="787.5" x2="960.5" y1="775.6641" y2="775.6641"/><text fill="#000000" font-family="sans-serif" font-size="13" lengthAdjust="spacingAndGlyphs" textLength="94" x="830" y="770.5981">HTTPS request</text><path d="M13,790.6641 L77,790.6641 L77,797.6641 L67,807.6641 L13,807.6641 L13,790.6641 " fill="#EEEEEE" style="stroke: #000000; stroke-width: 1.0;"/><rect fill="none" height="1193.8516" style="stroke: #000000; stroke-width: 2.0;" width="1375" x="13" y="790.6641"/><text fill="#000000" font-family="sans-serif" font-size="13" font-weight="bold" lengthAdjust="spacingAndGlyphs" textLength="19" x="28" y="803.731">alt</text><text fill="#000000" font-family="sans-serif" font-size="11" font-weight="bold" lengthAdjust="spacingAndGlyphs" textLength="142" x="92" y="802.8745">[LLM still unavailable]</text><polygon fill="#A80036" points="798.5,807.7969,788.5,811.7969,798.5,815.7969,794.5,811.7969" style="stroke: #A80036; stroke-width: 1.0;"/><line style="stroke: #A80036; stroke-width: 1.0; stroke-dasharray: 2.0,2.0;" x1="792.5" x2="965.5" y1="811.7969" y2="811.7969"/><text fill="#000000" font-family="sans-serif" font-size="13" lengthAdjust="spacingAndGlyphs" textLength="93" x="830.5" y="824.8638">error / timeout</text><polygon fill="#A80036" points="566.5,836.9297,556.5,840.9297,566.5,844.9297,562.5,840.9297" style="stroke: #A80036; stroke-width: 1.0;"/><line style="stroke: #A80036; stroke-width: 1.0; stroke-dasharray: 2.0,2.0;" x1="560.5" x2="786.5" y1="840.9297" y2="840.9297"/><text fill="#000000" font-family="sans-serif" font-size="13" lengthAdjust="spacingAndGlyphs" textLength="62" x="640.5" y="853.9966">exception</text><path d="M460,871.0625 L460,911.0625 L646,911.0625 L646,881.0625 L636,871.0625 L460,871.0625 " fill="#FBFB77" filter="url(#ff9sf72twlpyw)" style="stroke: #A80036; stroke-width: 1.0;"/><path d="M636,871.0625 L636,881.0625 L646,881.0625 L636,871.0625 " fill="#FBFB77" style="stroke: #A80036; stroke-width: 1.0;"/><text fill="#000000" font-family="sans-serif" font-size="13" lengthAdjust="spacingAndGlyphs" textLength="124" x="466" y="888.1294">Primary exhausted.</text><text fill="#000000" font-family="sans-serif" font-size="13" lengthAdjust="spacingAndGlyphs" textLength="165" x="466" y="903.2622">Routing to fallback model.</text><rect fill="#EEEEEE" filter="url(#ff9sf72twlpyw)" height="3" style="stroke: #EEEEEE; stroke-width: 1.0;" width="1395" x="3" y="940.8945"/><line style="stroke: #000000; stroke-width: 1.0;" x1="3" x2="1398" y1="940.8945" y2="940.8945"/><line style="stroke: #000000; stroke-width: 1.0;" x1="3" x2="1398" y1="943.8945" y2="943.8945"/><rect fill="#EEEEEE" filter="url(#ff9sf72twlpyw)" height="23.1328" style="stroke: #000000; stroke-width: 2.0;" width="219" x="591" y="930.3281"/><text fill="#000000" font-family="sans-serif" font-size="13" font-weight="bold" lengthAdjust="spacingAndGlyphs" textLength="200" x="597" y="946.395">Fallback Attempt (Week 3)</text><polygon fill="#A80036" points="775.5,980.5938,785.5,984.5938,775.5,988.5938,779.5,984.5938" style="stroke: #A80036; stroke-width: 1.0;"/><line style="stroke: #A80036; stroke-width: 1.0;" x1="555.5" x2="781.5" y1="984.5938" y2="984.5938"/><text fill="#000000" font-family="sans-serif" font-size="13" lengthAdjust="spacingAndGlyphs" textLength="208" x="567.5" y="979.5278">call(prompt, model: gpt-4o-mini)</text><polygon fill="#A80036" points="954.5,1024.8594,964.5,1028.8594,954.5,1032.8594,958.5,1028.8594" style="stroke: #A80036; stroke-width: 1.0;"/><line style="stroke: #A80036; stroke-width: 1.0;" x1="787.5" x2="960.5" y1="1028.8594" y2="1028.8594"/><text fill="#000000" font-family="sans-serif" font-size="13" lengthAdjust="spacingAndGlyphs" textLength="94" x="830" y="1008.6606">HTTPS request</text><text fill="#000000" font-family="sans-serif" font-size="13" lengthAdjust="spacingAndGlyphs" textLength="132" x="811" y="1023.7935">(model: gpt-4o-mini)</text><path d="M23,1043.8594 L87,1043.8594 L87,1050.8594 L77,1060.8594 L23,1060.8594 L23,1043.8594 " fill="#EEEEEE" style="stroke: #000000; stroke-width: 1.0;"/><rect fill="none" height="527.5938" style="stroke: #000000; stroke-width: 2.0;" width="1329" x="23" y="1043.8594"/><text fill="#000000" font-family="sans-serif" font-size="13" font-weight="bold" lengthAdjust="spacingAndGlyphs" textLength="19" x="38" y="1056.9263">alt</text><text fill="#000000" font-family="sans-serif" font-size="11" font-weight="bold" lengthAdjust="spacingAndGlyphs" textLength="128" x="102" y="1056.0698">[Fallback succeeds]</text><polygon fill="#A80036" points="798.5,1060.9922,788.5,1064.9922,798.5,1068.9922,794.5,1064.9922" style="stroke: #A80036; stroke-width: 1.0;"/><line style="stroke: #A80036; stroke-width: 1.0; stroke-dasharray: 2.0,2.0;" x1="792.5" x2="965.5" y1="1064.9922" y2="1064.9922"/><text fill="#000000" font-family="sans-serif" font-size="13" lengthAdjust="spacingAndGlyphs" textLength="121" x="816.5" y="1078.0591">raw JSON response</text><polygon fill="#A80036" points="566.5,1090.125,556.5,1094.125,566.5,1098.125,562.5,1094.125" style="stroke: #A80036; stroke-width: 1.0;"/><line style="stroke: #A80036; stroke-width: 1.0; stroke-dasharray: 2.0,2.0;" x1="560.5" x2="786.5" y1="1094.125" y2="1094.125"/><text fill="#000000" font-family="sans-serif" font-size="13" lengthAdjust="spacingAndGlyphs" textLength="92" x="625.5" y="1107.1919">ChatResponse</text><line style="stroke: #A80036; stroke-width: 1.0;" x1="555.5" x2="597.5" y1="1140.3906" y2="1140.3906"/><line style="stroke: #A80036; stroke-width: 1.0;" x1="597.5" x2="597.5" y1="1140.3906" y2="1153.3906"/><line style="stroke: #A80036; stroke-width: 1.0;" x1="556.5" x2="597.5" y1="1153.3906" y2="1153.3906"/><polygon fill="#A80036" points="566.5,1149.3906,556.5,1153.3906,566.5,1157.3906,562.5,1153.3906" style="stroke: #A80036; stroke-width: 1.0;"/><text fill="#000000" font-family="sans-serif" font-size="13" lengthAdjust="spacingAndGlyphs" textLength="189" x="562.5" y="1135.3247">parseResponse() — succeeds</text><line style="stroke: #A80036; stroke-width: 1.0;" x1="555.5" x2="597.5" y1="1182.5234" y2="1182.5234"/><line style="stroke: #A80036; stroke-width: 1.0;" x1="597.5" x2="597.5" y1="1182.5234" y2="1195.5234"/><line style="stroke: #A80036; stroke-width: 1.0;" x1="556.5" x2="597.5" y1="1195.5234" y2="1195.5234"/><polygon fill="#A80036" points="566.5,1191.5234,556.5,1195.5234,566.5,1199.5234,562.5,1195.5234" style="stroke: #A80036; stroke-width: 1.0;"/><text fill="#000000" font-family="sans-serif" font-size="13" lengthAdjust="spacingAndGlyphs" textLength="198" x="562.5" y="1177.4575">logUsage(provider: fallback, ...)</text><polygon fill="#A80036" points="308.5,1203.5234,298.5,1207.5234,308.5,1211.5234,304.5,1207.5234" style="stroke: #A80036; stroke-width: 1.0;"/><line style="stroke: #A80036; stroke-width: 1.0; stroke-dasharray: 2.0,2.0;" x1="302.5" x2="554.5" y1="1207.5234" y2="1207.5234"/><text fill="#000000" font-family="sans-serif" font-size="13" lengthAdjust="spacingAndGlyphs" textLength="36" x="408.5" y="1220.5903">result</text><polygon fill="#A80036" points="66.5,1232.6563,56.5,1236.6563,66.5,1240.6563,62.5,1236.6563" style="stroke: #A80036; stroke-width: 1.0;"/><line style="stroke: #A80036; stroke-width: 1.0; stroke-dasharray: 2.0,2.0;" x1="60.5" x2="296.5" y1="1236.6563" y2="1236.6563"/><text fill="#000000" font-family="sans-serif" font-size="13" lengthAdjust="spacingAndGlyphs" textLength="46" x="153.5" y="1249.7231">200 OK</text><text fill="#000000" font-family="sans-serif" font-size="13" lengthAdjust="spacingAndGlyphs" textLength="192" x="80.5" y="1264.856">(fallback transparent to client)</text><line style="stroke: #000000; stroke-width: 1.0; stroke-dasharray: 2.0,2.0;" x1="23" x2="1352" y1="1277.9219" y2="1277.9219"/><text fill="#000000" font-family="sans-serif" font-size="11" font-weight="bold" lengthAdjust="spacingAndGlyphs" textLength="127" x="28" y="1288.1323">[Fallback also fails]</text><polygon fill="#A80036" points="798.5,1291.7266,788.5,1295.7266,798.5,1299.7266,794.5,1295.7266" style="stroke: #A80036; stroke-width: 1.0;"/><line style="stroke: #A80036; stroke-width: 1.0; stroke-dasharray: 2.0,2.0;" x1="792.5" x2="965.5" y1="1295.7266" y2="1295.7266"/><text fill="#000000" font-family="sans-serif" font-size="13" lengthAdjust="spacingAndGlyphs" textLength="93" x="830.5" y="1308.7935">error / timeout</text><polygon fill="#A80036" points="566.5,1320.8594,556.5,1324.8594,566.5,1328.8594,562.5,1324.8594" style="stroke: #A80036; stroke-width: 1.0;"/><line style="stroke: #A80036; stroke-width: 1.0; stroke-dasharray: 2.0,2.0;" x1="560.5" x2="786.5" y1="1324.8594" y2="1324.8594"/><text fill="#000000" font-family="sans-serif" font-size="13" lengthAdjust="spacingAndGlyphs" textLength="62" x="640.5" y="1337.9263">exception</text><polygon fill="#A80036" points="1102,1367.125,1112,1371.125,1102,1375.125,1106,1371.125" style="stroke: #A80036; stroke-width: 1.0;"/><line style="stroke: #A80036; stroke-width: 1.0;" x1="555.5" x2="1108" y1="1371.125" y2="1371.125"/><text fill="#000000" font-family="sans-serif" font-size="13" lengthAdjust="spacingAndGlyphs" textLength="205" x="732.25" y="1366.0591">throws LlmUnavailableException</text><line style="stroke: #A80036; stroke-width: 1.0;" x1="1114" x2="1156" y1="1460.7891" y2="1460.7891"/><line style="stroke: #A80036; stroke-width: 1.0;" x1="1156" x2="1156" y1="1460.7891" y2="1473.7891"/><line style="stroke: #A80036; stroke-width: 1.0;" x1="1115" x2="1156" y1="1473.7891" y2="1473.7891"/><polygon fill="#A80036" points="1125,1469.7891,1115,1473.7891,1125,1477.7891,1121,1473.7891" style="stroke: #A80036; stroke-width: 1.0;"/><text fill="#000000" font-family="sans-serif" font-size="13" lengthAdjust="spacingAndGlyphs" textLength="165" x="1121" y="1395.1919">handleLlmUnavailable(ex)</text><text fill="#000000" font-family="sans-serif" font-size="13" lengthAdjust="spacingAndGlyphs" textLength="113" x="1121" y="1410.3247">→ ErrorResponse(</text><text fill="#000000" font-family="sans-serif" font-size="13" lengthAdjust="spacingAndGlyphs" textLength="203" x="1137" y="1425.4575">error: "LLM service unavailable",</text><text fill="#000000" font-family="sans-serif" font-size="13" lengthAdjust="spacingAndGlyphs" textLength="161" x="1137" y="1440.5903">code: LLM_UNAVAILABLE</text><text fill="#000000" font-family="sans-serif" font-size="13" lengthAdjust="spacingAndGlyphs" textLength="5" x="1129" y="1455.7231">)</text><polygon fill="#A80036" points="66.5,1481.7891,56.5,1485.7891,66.5,1489.7891,62.5,1485.7891" style="stroke: #A80036; stroke-width: 1.0;"/><line style="stroke: #A80036; stroke-width: 1.0; stroke-dasharray: 2.0,2.0;" x1="60.5" x2="1113" y1="1485.7891" y2="1485.7891"/><text fill="#000000" font-family="sans-serif" font-size="13" lengthAdjust="spacingAndGlyphs" textLength="112" x="528.75" y="1498.856">502 Bad Gateway</text><text fill="#000000" font-family="sans-serif" font-size="13" lengthAdjust="spacingAndGlyphs" textLength="8" x="580.75" y="1513.9888">{</text><text fill="#000000" font-family="sans-serif" font-size="13" lengthAdjust="spacingAndGlyphs" textLength="213" x="482.25" y="1529.1216">"error": "LLM service unavailable",</text><text fill="#000000" font-family="sans-serif" font-size="13" lengthAdjust="spacingAndGlyphs" textLength="181" x="498.25" y="1544.2544">"code": "LLM_UNAVAILABLE"</text><text fill="#000000" font-family="sans-serif" font-size="13" lengthAdjust="spacingAndGlyphs" textLength="8" x="580.75" y="1559.3872">}</text><line style="stroke: #000000; stroke-width: 1.0; stroke-dasharray: 2.0,2.0;" x1="13" x2="1388" y1="1579.4531" y2="1579.4531"/><text fill="#000000" font-family="sans-serif" font-size="11" font-weight="bold" lengthAdjust="spacingAndGlyphs" textLength="232" x="18" y="1589.6636">[LLM returns malformed JSON again]</text><polygon fill="#A80036" points="798.5,1593.2578,788.5,1597.2578,798.5,1601.2578,794.5,1597.2578" style="stroke: #A80036; stroke-width: 1.0;"/><line style="stroke: #A80036; stroke-width: 1.0; stroke-dasharray: 2.0,2.0;" x1="792.5" x2="965.5" y1="1597.2578" y2="1597.2578"/><text fill="#000000" font-family="sans-serif" font-size="13" lengthAdjust="spacingAndGlyphs" textLength="155" x="799.5" y="1610.3247">200 OK (bad JSON body)</text><polygon fill="#A80036" points="566.5,1622.3906,556.5,1626.3906,566.5,1630.3906,562.5,1626.3906" style="stroke: #A80036; stroke-width: 1.0;"/><line style="stroke: #A80036; stroke-width: 1.0; stroke-dasharray: 2.0,2.0;" x1="560.5" x2="786.5" y1="1626.3906" y2="1626.3906"/><text fill="#000000" font-family="sans-serif" font-size="13" lengthAdjust="spacingAndGlyphs" textLength="92" x="625.5" y="1639.4575">ChatResponse</text><line style="stroke: #A80036; stroke-width: 1.0;" x1="555.5" x2="597.5" y1="1672.6563" y2="1672.6563"/><line style="stroke: #A80036; stroke-width: 1.0;" x1="597.5" x2="597.5" y1="1672.6563" y2="1685.6563"/><line style="stroke: #A80036; stroke-width: 1.0;" x1="556.5" x2="597.5" y1="1685.6563" y2="1685.6563"/><polygon fill="#A80036" points="566.5,1681.6563,556.5,1685.6563,566.5,1689.6563,562.5,1685.6563" style="stroke: #A80036; stroke-width: 1.0;"/><text fill="#000000" font-family="sans-serif" font-size="13" lengthAdjust="spacingAndGlyphs" textLength="193" x="562.5" y="1667.5903">parseResponse() — fails again</text><path d="M457,1698.6563 L457,1753.6563 L649,1753.6563 L649,1708.6563 L639,1698.6563 L457,1698.6563 " fill="#FBFB77" filter="url(#ff9sf72twlpyw)" style="stroke: #A80036; stroke-width: 1.0;"/><path d="M639,1698.6563 L639,1708.6563 L649,1708.6563 L639,1698.6563 " fill="#FBFB77" style="stroke: #A80036; stroke-width: 1.0;"/><text fill="#000000" font-family="sans-serif" font-size="13" lengthAdjust="spacingAndGlyphs" textLength="164" x="463" y="1715.7231">ParseException does NOT</text><text fill="#000000" font-family="sans-serif" font-size="13" lengthAdjust="spacingAndGlyphs" textLength="162" x="463" y="1730.856">trigger fallback — prompt</text><text fill="#000000" font-family="sans-serif" font-size="13" lengthAdjust="spacingAndGlyphs" textLength="171" x="463" y="1745.9888">failure, not provider failure.</text><polygon fill="#A80036" points="1102,1780.1875,1112,1784.1875,1102,1788.1875,1106,1784.1875" style="stroke: #A80036; stroke-width: 1.0;"/><line style="stroke: #A80036; stroke-width: 1.0;" x1="555.5" x2="1108" y1="1784.1875" y2="1784.1875"/><text fill="#000000" font-family="sans-serif" font-size="13" lengthAdjust="spacingAndGlyphs" textLength="144" x="762.75" y="1779.1216">throws ParseException</text><line style="stroke: #A80036; stroke-width: 1.0;" x1="1114" x2="1156" y1="1873.8516" y2="1873.8516"/><line style="stroke: #A80036; stroke-width: 1.0;" x1="1156" x2="1156" y1="1873.8516" y2="1886.8516"/><line style="stroke: #A80036; stroke-width: 1.0;" x1="1115" x2="1156" y1="1886.8516" y2="1886.8516"/><polygon fill="#A80036" points="1125,1882.8516,1115,1886.8516,1125,1890.8516,1121,1886.8516" style="stroke: #A80036; stroke-width: 1.0;"/><text fill="#000000" font-family="sans-serif" font-size="13" lengthAdjust="spacingAndGlyphs" textLength="135" x="1121" y="1808.2544">handleParseError(ex)</text><text fill="#000000" font-family="sans-serif" font-size="13" lengthAdjust="spacingAndGlyphs" textLength="113" x="1121" y="1823.3872">→ ErrorResponse(</text><text fill="#000000" font-family="sans-serif" font-size="13" lengthAdjust="spacingAndGlyphs" textLength="239" x="1137" y="1838.52">error: "Failed to parse LLM response",</text><text fill="#000000" font-family="sans-serif" font-size="13" lengthAdjust="spacingAndGlyphs" textLength="130" x="1137" y="1853.6528">code: PARSE_ERROR</text><text fill="#000000" font-family="sans-serif" font-size="13" lengthAdjust="spacingAndGlyphs" textLength="5" x="1129" y="1868.7856">)</text><polygon fill="#A80036" points="66.5,1894.8516,56.5,1898.8516,66.5,1902.8516,62.5,1898.8516" style="stroke: #A80036; stroke-width: 1.0;"/><line style="stroke: #A80036; stroke-width: 1.0; stroke-dasharray: 2.0,2.0;" x1="60.5" x2="1113" y1="1898.8516" y2="1898.8516"/><text fill="#000000" font-family="sans-serif" font-size="13" lengthAdjust="spacingAndGlyphs" textLength="157" x="506.25" y="1911.9185">500 Internal Server Error</text><text fill="#000000" font-family="sans-serif" font-size="13" lengthAdjust="spacingAndGlyphs" textLength="8" x="580.75" y="1927.0513">{</text><text fill="#000000" font-family="sans-serif" font-size="13" lengthAdjust="spacingAndGlyphs" textLength="249" x="464.25" y="1942.1841">"error": "Failed to parse LLM response",</text><text fill="#000000" font-family="sans-serif" font-size="13" lengthAdjust="spacingAndGlyphs" textLength="150" x="513.75" y="1957.3169">"code": "PARSE_ERROR"</text><text fill="#000000" font-family="sans-serif" font-size="13" lengthAdjust="spacingAndGlyphs" textLength="8" x="580.75" y="1972.4497">}</text><!--MD5=[39826c1aa75dbd254625c3ca10a08bb3]
@startuml sequence-llm-failure

title Sequence Diagram 3 — LLM Failure, Retry, and Fallback\n(applies to both /api/analyze and /api/classify)

skinparam sequenceMessageAlign center
skinparam responseMessageBelowArrow true

actor       Client
participant "TextAnalysisController" as Controller
participant "TextAnalysisService"    as Service
participant "ChatClient\n(Spring AI)" as ChatClient
participant "OpenAI API"             as OpenAI
participant "GlobalExceptionHandler" as Handler

Client -> Controller : POST /api/analyze (or /api/classify)\n{ "text": "..." }

Controller -> Controller : @Valid — passes

Controller -> Service : analyze(request) or classify(request)

note over Service : Same retry logic applies\nto both endpoints

== Attempt 1 ==

Service -> ChatClient : call(prompt)
ChatClient -> OpenAI : HTTPS request

alt LLM unavailable (timeout / 5xx)

  OpenAI - -> ChatClient : error / timeout
  ChatClient - -> Service : exception

else LLM returns malformed JSON

  OpenAI - -> ChatClient : 200 OK (bad JSON body)
  ChatClient - -> Service : ChatResponse
  Service -> Service : parseResponse() — fails

end

note over Service : Attempt 1 failed.\nRetrying once.

== Attempt 2 (retry) ==

Service -> ChatClient : call(prompt)
ChatClient -> OpenAI : HTTPS request

alt LLM still unavailable

  OpenAI - -> ChatClient : error / timeout
  ChatClient - -> Service : exception
  note over Service : Primary exhausted.\nRouting to fallback model.

  == Fallback Attempt (Week 3) ==

  Service -> ChatClient : call(prompt, model: gpt-4o-mini)
  ChatClient -> OpenAI : HTTPS request\n(model: gpt-4o-mini)

  alt Fallback succeeds

    OpenAI - -> ChatClient : raw JSON response
    ChatClient - -> Service : ChatResponse
    Service -> Service : parseResponse() — succeeds
    Service -> Service : logUsage(provider: fallback, ...)
    Service - -> Controller : result
    Controller - -> Client : 200 OK\n(fallback transparent to client)

  else Fallback also fails

    OpenAI - -> ChatClient : error / timeout
    ChatClient - -> Service : exception
    Service -> Handler : throws LlmUnavailableException
    Handler -> Handler : handleLlmUnavailable(ex)\n→ ErrorResponse(\n    error: "LLM service unavailable",\n    code: LLM_UNAVAILABLE\n  )
    Handler - -> Client : 502 Bad Gateway\n{\n  "error": "LLM service unavailable",\n  "code": "LLM_UNAVAILABLE"\n}

  end

else LLM returns malformed JSON again

  OpenAI - -> ChatClient : 200 OK (bad JSON body)
  ChatClient - -> Service : ChatResponse
  Service -> Service : parseResponse() — fails again
  note over Service : ParseException does NOT\ntrigger fallback — prompt\nfailure, not provider failure.
  Service -> Handler : throws ParseException
  Handler -> Handler : handleParseError(ex)\n→ ErrorResponse(\n    error: "Failed to parse LLM response",\n    code: PARSE_ERROR\n  )
  Handler - -> Client : 500 Internal Server Error\n{\n  "error": "Failed to parse LLM response",\n  "code": "PARSE_ERROR"\n}

end

@enduml

PlantUML version 1.2020.02(Sun Mar 01 10:22:07 UTC 2020)
(GPL source distribution)
Java Runtime: OpenJDK Runtime Environment
JVM: OpenJDK 64-Bit Server VM
Java Version: 17.0.19+10
Operating System: Linux
Default Encoding: UTF-8
Language: en
Country: null
--></g></svg>