<?xml version="1.0" encoding="UTF-8" standalone="no"?><svg xmlns="http://www.w3.org/2000/svg" xmlns:xlink="http://www.w3.org/1999/xlink" contentScriptType="application/ecmascript" contentStyleType="text/css" height="2165px" preserveAspectRatio="none" style="width:1190px;height:2165px;" version="1.1" viewBox="0 0 1190 2165" width="1190px" zoomAndPan="magnify"><defs><filter height="300%" id="fryujnu2wmtyc" width="300%" x="-1" y="-1"><feGaussianBlur result="blurOut" stdDeviation="2.0"/><feColorMatrix in="blurOut" result="blurOut2" type="matrix" values="0 0 0 0 0 0 0 0 0 0 0 0 0 0 0 0 0 0 .4 0"/><feOffset dx="4.0" dy="4.0" in="blurOut2" result="blurOut3"/><feBlend in="SourceGraphic" in2="blurOut3" mode="normal"/></filter></defs><g><text fill="#000000" font-family="sans-serif" font-size="18" lengthAdjust="spacingAndGlyphs" textLength="316" x="432.5" y="26.708">Sequence Diagram 1 — Happy Path</text><line style="stroke: #A80036; stroke-width: 1.0; stroke-dasharray: 5.0,5.0;" x1="30" x2="30" y1="121.25" y2="2077.7422"/><line style="stroke: #A80036; stroke-width: 1.0; stroke-dasharray: 5.0,5.0;" x1="368.5" x2="368.5" y1="121.25" y2="2077.7422"/><line style="stroke: #A80036; stroke-width: 1.0; stroke-dasharray: 5.0,5.0;" x1="562" x2="562" y1="121.25" y2="2077.7422"/><line style="stroke: #A80036; stroke-width: 1.0; stroke-dasharray: 5.0,5.0;" x1="865" x2="865" y1="121.25" y2="2077.7422"/><line style="stroke: #A80036; stroke-width: 1.0; stroke-dasharray: 5.0,5.0;" x1="1126" x2="1126" y1="121.25" y2="2077.7422"/><text fill="#000000" font-family="sans-serif" font-size="14" lengthAdjust="spacingAndGlyphs" textLength="39" x="8" y="117.9482">Client</text><ellipse cx="30.5" cy="47.9531" fill="#FEFECE" filter="url(#fryujnu2wmtyc)" rx="8" ry="8" style="stroke: #A80036; stroke-width: 2.0;"/><path d="M30.5,55.9531 L30.5,82.9531 M17.5,63.9531 L43.5,63.9531 M30.5,82.9531 L17.5,97.9531 M30.5,82.9531 L43.5,97.9531 " fill="none" filter="url(#fryujnu2wmtyc)" style="stroke: #A80036; stroke-width: 2.0;"/><text fill="#000000" font-family="sans-serif" font-size="14" lengthAdjust="spacingAndGlyphs" textLength="39" x="8" y="2089.7373">Client</text><ellipse cx="30.5" cy="2103.0391" fill="#FEFECE" filter="url(#fryujnu2wmtyc)" rx="8" ry="8" style="stroke: #A80036; stroke-width: 2.0;"/><path d="M30.5,2111.0391 L30.5,2138.0391 M17.5,2119.0391 L43.5,2119.0391 M30.5,2138.0391 L17.5,2153.0391 M30.5,2138.0391 L43.5,2153.0391 " fill="none" filter="url(#fryujnu2wmtyc)" style="stroke: #A80036; stroke-width: 2.0;"/><rect fill="#FEFECE" filter="url(#fryujnu2wmtyc)" height="30.2969" style="stroke: #A80036; stroke-width: 1.5;" width="166" x="283.5" y="85.9531"/><text fill="#000000" font-family="sans-serif" font-size="14" lengthAdjust="spacingAndGlyphs" textLength="152" x="290.5" y="105.9482">TextAnalysisController</text><rect fill="#FEFECE" filter="url(#fryujnu2wmtyc)" height="30.2969" style="stroke: #A80036; stroke-width: 1.5;" width="166" x="283.5" y="2076.7422"/><text fill="#000000" font-family="sans-serif" font-size="14" lengthAdjust="spacingAndGlyphs" textLength="152" x="290.5" y="2096.7373">TextAnalysisController</text><rect fill="#FEFECE" filter="url(#fryujnu2wmtyc)" height="30.2969" style="stroke: #A80036; stroke-width: 1.5;" width="149" x="486" y="85.9531"/><text fill="#000000" font-family="sans-serif" font-size="14" lengthAdjust="spacingAndGlyphs" textLength="135" x="493" y="105.9482">TextAnalysisService</text><rect fill="#FEFECE" filter="url(#fryujnu2wmtyc)" height="30.2969" style="stroke: #A80036; stroke-width: 1.5;" width="149" x="486" y="2076.7422"/><text fill="#000000" font-family="sans-serif" font-size="14" lengthAdjust="spacingAndGlyphs" textLength="135" x="493" y="2096.7373">TextAnalysisService</text><rect fill="#FEFECE" filter="url(#fryujnu2wmtyc)" height="46.5938" style="stroke: #A80036; stroke-width: 1.5;" width="85" x="821" y="69.6563"/><text fill="#000000" font-family="sans-serif" font-size="14" lengthAdjust="spacingAndGlyphs" textLength="71" x="828" y="89.6514">ChatClient</text><text fill="#000000" font-family="sans-serif" font-size="14" lengthAdjust="spacingAndGlyphs" textLength="70" x="828.5" y="105.9482">(Spring AI)</text><rect fill="#FEFECE" filter="url(#fryujnu2wmtyc)" height="46.5938" style="stroke: #A80036; stroke-width: 1.5;" width="85" x="821" y="2076.7422"/><text fill="#000000" font-family="sans-serif" font-size="14" lengthAdjust="spacingAndGlyphs" textLength="71" x="828" y="2096.7373">ChatClient</text><text fill="#000000" font-family="sans-serif" font-size="14" lengthAdjust="spacingAndGlyphs" textLength="70" x="828.5" y="2113.0342">(Spring AI)</text><rect fill="#FEFECE" filter="url(#fryujnu2wmtyc)" height="30.2969" style="stroke: #A80036; stroke-width: 1.5;" width="89" x="1080" y="85.9531"/><text fill="#000000" font-family="sans-serif" font-size="14" lengthAdjust="spacingAndGlyphs" textLength="75" x="1087" y="105.9482">OpenAI API</text><rect fill="#FEFECE" filter="url(#fryujnu2wmtyc)" height="30.2969" style="stroke: #A80036; stroke-width: 1.5;" width="89" x="1080" y="2076.7422"/><text fill="#000000" font-family="sans-serif" font-size="14" lengthAdjust="spacingAndGlyphs" textLength="75" x="1087" y="2096.7373">OpenAI API</text><rect fill="#EEEEEE" filter="url(#fryujnu2wmtyc)" height="3" style="stroke: #EEEEEE; stroke-width: 1.0;" width="1175" x="3" y="151.8164"/><line style="stroke: #000000; stroke-width: 1.0;" x1="3" x2="1178" y1="151.8164" y2="151.8164"/><line style="stroke: #000000; stroke-width: 1.0;" x1="3" x2="1178" y1="154.8164" y2="154.8164"/><rect fill="#EEEEEE" filter="url(#fryujnu2wmtyc)" height="23.1328" style="stroke: #000000; stroke-width: 2.0;" width="229" x="476" y="141.25"/><text fill="#000000" font-family="sans-serif" font-size="13" font-weight="bold" lengthAdjust="spacingAndGlyphs" textLength="210" x="482" y="157.3169">Week 1 — POST /api/analyze</text><polygon fill="#A80036" points="356.5,206.6484,366.5,210.6484,356.5,214.6484,360.5,210.6484" style="stroke: #A80036; stroke-width: 1.0;"/><line style="stroke: #A80036; stroke-width: 1.0;" x1="30.5" x2="362.5" y1="210.6484" y2="210.6484"/><text fill="#000000" font-family="sans-serif" font-size="13" lengthAdjust="spacingAndGlyphs" textLength="114" x="142.5" y="190.4497">POST /api/analyze</text><text fill="#000000" font-family="sans-serif" font-size="13" lengthAdjust="spacingAndGlyphs" textLength="89" x="155" y="205.5825">{ "text": "..." }</text><line style="stroke: #A80036; stroke-width: 1.0;" x1="368.5" x2="410.5" y1="254.9141" y2="254.9141"/><line style="stroke: #A80036; stroke-width: 1.0;" x1="410.5" x2="410.5" y1="254.9141" y2="267.9141"/><line style="stroke: #A80036; stroke-width: 1.0;" x1="369.5" x2="410.5" y1="267.9141" y2="267.9141"/><polygon fill="#A80036" points="379.5,263.9141,369.5,267.9141,379.5,271.9141,375.5,267.9141" style="stroke: #A80036; stroke-width: 1.0;"/><text fill="#000000" font-family="sans-serif" font-size="13" lengthAdjust="spacingAndGlyphs" textLength="168" x="375.5" y="234.7153">@Valid — validate request</text><text fill="#000000" font-family="sans-serif" font-size="13" lengthAdjust="spacingAndGlyphs" textLength="180" x="375.5" y="249.8481">(not blank, max 5000 chars)</text><polygon fill="#A80036" points="550.5,293.0469,560.5,297.0469,550.5,301.0469,554.5,297.0469" style="stroke: #A80036; stroke-width: 1.0;"/><line style="stroke: #A80036; stroke-width: 1.0;" x1="368.5" x2="556.5" y1="297.0469" y2="297.0469"/><text fill="#000000" font-family="sans-serif" font-size="13" lengthAdjust="spacingAndGlyphs" textLength="108" x="411.5" y="291.981">analyze(request)</text><line style="stroke: #A80036; stroke-width: 1.0;" x1="562.5" x2="604.5" y1="341.3125" y2="341.3125"/><line style="stroke: #A80036; stroke-width: 1.0;" x1="604.5" x2="604.5" y1="341.3125" y2="354.3125"/><line style="stroke: #A80036; stroke-width: 1.0;" x1="563.5" x2="604.5" y1="354.3125" y2="354.3125"/><polygon fill="#A80036" points="573.5,350.3125,563.5,354.3125,573.5,358.3125,569.5,354.3125" style="stroke: #A80036; stroke-width: 1.0;"/><text fill="#000000" font-family="sans-serif" font-size="13" lengthAdjust="spacingAndGlyphs" textLength="66" x="569.5" y="321.1138">wrap input</text><text fill="#000000" font-family="sans-serif" font-size="13" lengthAdjust="spacingAndGlyphs" textLength="181" x="569.5" y="336.2466">"&lt;text&gt;" + text + "&lt;/text&gt;"</text><polygon fill="#A80036" points="853.5,379.4453,863.5,383.4453,853.5,387.4453,857.5,383.4453" style="stroke: #A80036; stroke-width: 1.0;"/><line style="stroke: #A80036; stroke-width: 1.0;" x1="562.5" x2="859.5" y1="383.4453" y2="383.4453"/><text fill="#000000" font-family="sans-serif" font-size="13" lengthAdjust="spacingAndGlyphs" textLength="279" x="574.5" y="378.3794">call(analyze-system.st, &lt;text&gt;text&lt;/text&gt;)</text><polygon fill="#A80036" points="1114.5,423.7109,1124.5,427.7109,1114.5,431.7109,1118.5,427.7109" style="stroke: #A80036; stroke-width: 1.0;"/><line style="stroke: #A80036; stroke-width: 1.0;" x1="865.5" x2="1120.5" y1="427.7109" y2="427.7109"/><text fill="#000000" font-family="sans-serif" font-size="13" lengthAdjust="spacingAndGlyphs" textLength="94" x="949" y="407.5122">HTTPS request</text><text fill="#000000" font-family="sans-serif" font-size="13" lengthAdjust="spacingAndGlyphs" textLength="205" x="893.5" y="422.645">(model: gpt-4o, temperature: 0)</text><polygon fill="#A80036" points="876.5,435.7109,866.5,439.7109,876.5,443.7109,872.5,439.7109" style="stroke: #A80036; stroke-width: 1.0;"/><line style="stroke: #A80036; stroke-width: 1.0; stroke-dasharray: 2.0,2.0;" x1="870.5" x2="1125.5" y1="439.7109" y2="439.7109"/><text fill="#000000" font-family="sans-serif" font-size="13" lengthAdjust="spacingAndGlyphs" textLength="121" x="935.5" y="452.7778">raw JSON response</text><polygon fill="#A80036" points="573.5,464.8438,563.5,468.8438,573.5,472.8438,569.5,468.8438" style="stroke: #A80036; stroke-width: 1.0;"/><line style="stroke: #A80036; stroke-width: 1.0; stroke-dasharray: 2.0,2.0;" x1="567.5" x2="864.5" y1="468.8438" y2="468.8438"/><text fill="#000000" font-family="sans-serif" font-size="13" lengthAdjust="spacingAndGlyphs" textLength="92" x="668" y="481.9106">ChatResponse</text><line style="stroke: #A80036; stroke-width: 1.0;" x1="562.5" x2="604.5" y1="530.2422" y2="530.2422"/><line style="stroke: #A80036; stroke-width: 1.0;" x1="604.5" x2="604.5" y1="530.2422" y2="543.2422"/><line style="stroke: #A80036; stroke-width: 1.0;" x1="563.5" x2="604.5" y1="543.2422" y2="543.2422"/><polygon fill="#A80036" points="573.5,539.2422,563.5,543.2422,573.5,547.2422,569.5,543.2422" style="stroke: #A80036; stroke-width: 1.0;"/><text fill="#000000" font-family="sans-serif" font-size="13" lengthAdjust="spacingAndGlyphs" textLength="166" x="569.5" y="510.0435">parseResponse(raw JSON)</text><text fill="#000000" font-family="sans-serif" font-size="13" lengthAdjust="spacingAndGlyphs" textLength="129" x="569.5" y="525.1763">→ AnalysisResponse</text><line style="stroke: #A80036; stroke-width: 1.0;" x1="562.5" x2="604.5" y1="617.7734" y2="617.7734"/><line style="stroke: #A80036; stroke-width: 1.0;" x1="604.5" x2="604.5" y1="617.7734" y2="630.7734"/><line style="stroke: #A80036; stroke-width: 1.0;" x1="563.5" x2="604.5" y1="630.7734" y2="630.7734"/><polygon fill="#A80036" points="573.5,626.7734,563.5,630.7734,573.5,634.7734,569.5,630.7734" style="stroke: #A80036; stroke-width: 1.0;"/><text fill="#000000" font-family="sans-serif" font-size="13" lengthAdjust="spacingAndGlyphs" textLength="65" x="569.5" y="567.3091">logUsage(</text><text fill="#000000" font-family="sans-serif" font-size="13" lengthAdjust="spacingAndGlyphs" textLength="176" x="577.5" y="582.4419">inputTokens, outputTokens,</text><text fill="#000000" font-family="sans-serif" font-size="13" lengthAdjust="spacingAndGlyphs" textLength="112" x="577.5" y="597.5747">model, latencyMs</text><text fill="#000000" font-family="sans-serif" font-size="13" lengthAdjust="spacingAndGlyphs" textLength="5" x="569.5" y="612.7075">)</text><polygon fill="#A80036" points="379.5,638.7734,369.5,642.7734,379.5,646.7734,375.5,642.7734" style="stroke: #A80036; stroke-width: 1.0;"/><line style="stroke: #A80036; stroke-width: 1.0; stroke-dasharray: 2.0,2.0;" x1="373.5" x2="561.5" y1="642.7734" y2="642.7734"/><text fill="#000000" font-family="sans-serif" font-size="13" lengthAdjust="spacingAndGlyphs" textLength="114" x="408.5" y="655.8403">AnalysisResponse</text><polygon fill="#A80036" points="41.5,667.9063,31.5,671.9063,41.5,675.9063,37.5,671.9063" style="stroke: #A80036; stroke-width: 1.0;"/><line style="stroke: #A80036; stroke-width: 1.0; stroke-dasharray: 2.0,2.0;" x1="35.5" x2="367.5" y1="671.9063" y2="671.9063"/><text fill="#000000" font-family="sans-serif" font-size="13" lengthAdjust="spacingAndGlyphs" textLength="46" x="176.5" y="684.9731">200 OK</text><text fill="#000000" font-family="sans-serif" font-size="13" lengthAdjust="spacingAndGlyphs" textLength="8" x="195.5" y="700.106">{</text><text fill="#000000" font-family="sans-serif" font-size="13" lengthAdjust="spacingAndGlyphs" textLength="105" x="151" y="715.2388">"summary": "...",</text><text fill="#000000" font-family="sans-serif" font-size="13" lengthAdjust="spacingAndGlyphs" textLength="146" x="130.5" y="730.3716">"sentiment": "positive",</text><text fill="#000000" font-family="sans-serif" font-size="13" lengthAdjust="spacingAndGlyphs" textLength="119" x="144" y="745.5044">"confidence": 0.91,</text><text fill="#000000" font-family="sans-serif" font-size="13" lengthAdjust="spacingAndGlyphs" textLength="111" x="148" y="760.6372">"key_topics": [...],</text><text fill="#000000" font-family="sans-serif" font-size="13" lengthAdjust="spacingAndGlyphs" textLength="179" x="114" y="775.77">"word_count_estimate": 142</text><text fill="#000000" font-family="sans-serif" font-size="13" lengthAdjust="spacingAndGlyphs" textLength="8" x="195.5" y="790.9028">}</text><rect fill="#EEEEEE" filter="url(#fryujnu2wmtyc)" height="3" style="stroke: #EEEEEE; stroke-width: 1.0;" width="1175" x="3" y="823.5352"/><line style="stroke: #000000; stroke-width: 1.0;" x1="3" x2="1178" y1="823.5352" y2="823.5352"/><line style="stroke: #000000; stroke-width: 1.0;" x1="3" x2="1178" y1="826.5352" y2="826.5352"/><rect fill="#EEEEEE" filter="url(#fryujnu2wmtyc)" height="23.1328" style="stroke: #000000; stroke-width: 2.0;" width="228" x="476.5" y="812.9688"/><text fill="#000000" font-family="sans-serif" font-size="13" font-weight="bold" lengthAdjust="spacingAndGlyphs" textLength="209" x="482.5" y="829.0356">Week 2 — POST /api/classify</text><polygon fill="#A80036" points="356.5,878.3672,366.5,882.3672,356.5,886.3672,360.5,882.3672" style="stroke: #A80036; stroke-width: 1.0;"/><line style="stroke: #A80036; stroke-width: 1.0;" x1="30.5" x2="362.5" y1="882.3672" y2="882.3672"/><text fill="#000000" font-family="sans-serif" font-size="13" lengthAdjust="spacingAndGlyphs" textLength="111" x="144" y="862.1685">POST /api/classify</text><text fill="#000000" font-family="sans-serif" font-size="13" lengthAdjust="spacingAndGlyphs" textLength="89" x="155" y="877.3013">{ "text": "..." }</text><line style="stroke: #A80036; stroke-width: 1.0;" x1="368.5" x2="410.5" y1="926.6328" y2="926.6328"/><line style="stroke: #A80036; stroke-width: 1.0;" x1="410.5" x2="410.5" y1="926.6328" y2="939.6328"/><line style="stroke: #A80036; stroke-width: 1.0;" x1="369.5" x2="410.5" y1="939.6328" y2="939.6328"/><polygon fill="#A80036" points="379.5,935.6328,369.5,939.6328,379.5,943.6328,375.5,939.6328" style="stroke: #A80036; stroke-width: 1.0;"/><text fill="#000000" font-family="sans-serif" font-size="13" lengthAdjust="spacingAndGlyphs" textLength="168" x="375.5" y="906.4341">@Valid — validate request</text><text fill="#000000" font-family="sans-serif" font-size="13" lengthAdjust="spacingAndGlyphs" textLength="180" x="375.5" y="921.5669">(not blank, max 5000 chars)</text><polygon fill="#A80036" points="550.5,964.7656,560.5,968.7656,550.5,972.7656,554.5,968.7656" style="stroke: #A80036; stroke-width: 1.0;"/><line style="stroke: #A80036; stroke-width: 1.0;" x1="368.5" x2="556.5" y1="968.7656" y2="968.7656"/><text fill="#000000" font-family="sans-serif" font-size="13" lengthAdjust="spacingAndGlyphs" textLength="105" x="413" y="963.6997">classify(request)</text><polygon fill="#A80036" points="853.5,993.8984,863.5,997.8984,853.5,1001.8984,857.5,997.8984" style="stroke: #A80036; stroke-width: 1.0;"/><line style="stroke: #A80036; stroke-width: 1.0;" x1="562.5" x2="859.5" y1="997.8984" y2="997.8984"/><text fill="#000000" font-family="sans-serif" font-size="13" lengthAdjust="spacingAndGlyphs" textLength="178" x="625" y="992.8325">call(classify-system.st, text)</text><polygon fill="#A80036" points="1114.5,1038.1641,1124.5,1042.1641,1114.5,1046.1641,1118.5,1042.1641" style="stroke: #A80036; stroke-width: 1.0;"/><line style="stroke: #A80036; stroke-width: 1.0;" x1="865.5" x2="1120.5" y1="1042.1641" y2="1042.1641"/><text fill="#000000" font-family="sans-serif" font-size="13" lengthAdjust="spacingAndGlyphs" textLength="94" x="949" y="1021.9653">HTTPS request</text><text fill="#000000" font-family="sans-serif" font-size="13" lengthAdjust="spacingAndGlyphs" textLength="205" x="893.5" y="1037.0981">(model: gpt-4o, temperature: 0)</text><polygon fill="#A80036" points="876.5,1050.1641,866.5,1054.1641,876.5,1058.1641,872.5,1054.1641" style="stroke: #A80036; stroke-width: 1.0;"/><line style="stroke: #A80036; stroke-width: 1.0; stroke-dasharray: 2.0,2.0;" x1="870.5" x2="1125.5" y1="1054.1641" y2="1054.1641"/><text fill="#000000" font-family="sans-serif" font-size="13" lengthAdjust="spacingAndGlyphs" textLength="121" x="935.5" y="1067.231">raw JSON response</text><polygon fill="#A80036" points="573.5,1079.2969,563.5,1083.2969,573.5,1087.2969,569.5,1083.2969" style="stroke: #A80036; stroke-width: 1.0;"/><line style="stroke: #A80036; stroke-width: 1.0; stroke-dasharray: 2.0,2.0;" x1="567.5" x2="864.5" y1="1083.2969" y2="1083.2969"/><text fill="#000000" font-family="sans-serif" font-size="13" lengthAdjust="spacingAndGlyphs" textLength="92" x="668" y="1096.3638">ChatResponse</text><line style="stroke: #A80036; stroke-width: 1.0;" x1="562.5" x2="604.5" y1="1144.6953" y2="1144.6953"/><line style="stroke: #A80036; stroke-width: 1.0;" x1="604.5" x2="604.5" y1="1144.6953" y2="1157.6953"/><line style="stroke: #A80036; stroke-width: 1.0;" x1="563.5" x2="604.5" y1="1157.6953" y2="1157.6953"/><polygon fill="#A80036" points="573.5,1153.6953,563.5,1157.6953,573.5,1161.6953,569.5,1157.6953" style="stroke: #A80036; stroke-width: 1.0;"/><text fill="#000000" font-family="sans-serif" font-size="13" lengthAdjust="spacingAndGlyphs" textLength="176" x="569.5" y="1124.4966">classifyResponse(raw JSON)</text><text fill="#000000" font-family="sans-serif" font-size="13" lengthAdjust="spacingAndGlyphs" textLength="125" x="569.5" y="1139.6294">→ ClassifyResponse</text><line style="stroke: #A80036; stroke-width: 1.0;" x1="562.5" x2="604.5" y1="1232.2266" y2="1232.2266"/><line style="stroke: #A80036; stroke-width: 1.0;" x1="604.5" x2="604.5" y1="1232.2266" y2="1245.2266"/><line style="stroke: #A80036; stroke-width: 1.0;" x1="563.5" x2="604.5" y1="1245.2266" y2="1245.2266"/><polygon fill="#A80036" points="573.5,1241.2266,563.5,1245.2266,573.5,1249.2266,569.5,1245.2266" style="stroke: #A80036; stroke-width: 1.0;"/><text fill="#000000" font-family="sans-serif" font-size="13" lengthAdjust="spacingAndGlyphs" textLength="65" x="569.5" y="1181.7622">logUsage(</text><text fill="#000000" font-family="sans-serif" font-size="13" lengthAdjust="spacingAndGlyphs" textLength="176" x="577.5" y="1196.895">inputTokens, outputTokens,</text><text fill="#000000" font-family="sans-serif" font-size="13" lengthAdjust="spacingAndGlyphs" textLength="112" x="577.5" y="1212.0278">model, latencyMs</text><text fill="#000000" font-family="sans-serif" font-size="13" lengthAdjust="spacingAndGlyphs" textLength="5" x="569.5" y="1227.1606">)</text><polygon fill="#A80036" points="379.5,1253.2266,369.5,1257.2266,379.5,1261.2266,375.5,1257.2266" style="stroke: #A80036; stroke-width: 1.0;"/><line style="stroke: #A80036; stroke-width: 1.0; stroke-dasharray: 2.0,2.0;" x1="373.5" x2="561.5" y1="1257.2266" y2="1257.2266"/><text fill="#000000" font-family="sans-serif" font-size="13" lengthAdjust="spacingAndGlyphs" textLength="110" x="410.5" y="1270.2935">ClassifyResponse</text><polygon fill="#A80036" points="41.5,1282.3594,31.5,1286.3594,41.5,1290.3594,37.5,1286.3594" style="stroke: #A80036; stroke-width: 1.0;"/><line style="stroke: #A80036; stroke-width: 1.0; stroke-dasharray: 2.0,2.0;" x1="35.5" x2="367.5" y1="1286.3594" y2="1286.3594"/><text fill="#000000" font-family="sans-serif" font-size="13" lengthAdjust="spacingAndGlyphs" textLength="46" x="176.5" y="1299.4263">200 OK</text><text fill="#000000" font-family="sans-serif" font-size="13" lengthAdjust="spacingAndGlyphs" textLength="8" x="195.5" y="1314.5591">{</text><text fill="#000000" font-family="sans-serif" font-size="13" lengthAdjust="spacingAndGlyphs" textLength="107" x="150" y="1329.6919">"reasoning": "...",</text><text fill="#000000" font-family="sans-serif" font-size="13" lengthAdjust="spacingAndGlyphs" textLength="158" x="124.5" y="1344.8247">"category": "technology",</text><text fill="#000000" font-family="sans-serif" font-size="13" lengthAdjust="spacingAndGlyphs" textLength="115" x="146" y="1359.9575">"confidence": 0.91</text><text fill="#000000" font-family="sans-serif" font-size="13" lengthAdjust="spacingAndGlyphs" textLength="8" x="195.5" y="1375.0903">}</text><rect fill="#EEEEEE" filter="url(#fryujnu2wmtyc)" height="3" style="stroke: #EEEEEE; stroke-width: 1.0;" width="1175" x="3" y="1407.7227"/><line style="stroke: #000000; stroke-width: 1.0;" x1="3" x2="1178" y1="1407.7227" y2="1407.7227"/><line style="stroke: #000000; stroke-width: 1.0;" x1="3" x2="1178" y1="1410.7227" y2="1410.7227"/><rect fill="#EEEEEE" filter="url(#fryujnu2wmtyc)" height="23.1328" style="stroke: #000000; stroke-width: 2.0;" width="373" x="404" y="1397.1563"/><text fill="#000000" font-family="sans-serif" font-size="13" font-weight="bold" lengthAdjust="spacingAndGlyphs" textLength="354" x="410" y="1413.2231">Week 3 — Fallback (primary model unavailable)</text><polygon fill="#A80036" points="356.5,1462.5547,366.5,1466.5547,356.5,1470.5547,360.5,1466.5547" style="stroke: #A80036; stroke-width: 1.0;"/><line style="stroke: #A80036; stroke-width: 1.0;" x1="30.5" x2="362.5" y1="1466.5547" y2="1466.5547"/><text fill="#000000" font-family="sans-serif" font-size="13" lengthAdjust="spacingAndGlyphs" textLength="114" x="142.5" y="1446.356">POST /api/analyze</text><text fill="#000000" font-family="sans-serif" font-size="13" lengthAdjust="spacingAndGlyphs" textLength="89" x="155" y="1461.4888">{ "text": "..." }</text><polygon fill="#A80036" points="550.5,1491.6875,560.5,1495.6875,550.5,1499.6875,554.5,1495.6875" style="stroke: #A80036; stroke-width: 1.0;"/><line style="stroke: #A80036; stroke-width: 1.0;" x1="368.5" x2="556.5" y1="1495.6875" y2="1495.6875"/><text fill="#000000" font-family="sans-serif" font-size="13" lengthAdjust="spacingAndGlyphs" textLength="108" x="411.5" y="1490.6216">analyze(request)</text><line style="stroke: #A80036; stroke-width: 1.0;" x1="562.5" x2="604.5" y1="1555.0859" y2="1555.0859"/><line style="stroke: #A80036; stroke-width: 1.0;" x1="604.5" x2="604.5" y1="1555.0859" y2="1568.0859"/><line style="stroke: #A80036; stroke-width: 1.0;" x1="563.5" x2="604.5" y1="1568.0859" y2="1568.0859"/><polygon fill="#A80036" points="573.5,1564.0859,563.5,1568.0859,573.5,1572.0859,569.5,1568.0859" style="stroke: #A80036; stroke-width: 1.0;"/><text fill="#000000" font-family="sans-serif" font-size="13" lengthAdjust="spacingAndGlyphs" textLength="191" x="569.5" y="1519.7544">attemptAnalyze(request, null)</text><text fill="#000000" font-family="sans-serif" font-size="13" lengthAdjust="spacingAndGlyphs" textLength="179" x="569.5" y="1534.8872">→ primary model exhausted</text><text fill="#000000" font-family="sans-serif" font-size="13" lengthAdjust="spacingAndGlyphs" textLength="220" x="569.5" y="1550.02">→ throws LlmUnavailableException</text><path d="M467,1581.0859 L467,1621.0859 L653,1621.0859 L653,1591.0859 L643,1581.0859 L467,1581.0859 " fill="#FBFB77" filter="url(#fryujnu2wmtyc)" style="stroke: #A80036; stroke-width: 1.0;"/><path d="M643,1581.0859 L643,1591.0859 L653,1591.0859 L643,1581.0859 " fill="#FBFB77" style="stroke: #A80036; stroke-width: 1.0;"/><text fill="#000000" font-family="sans-serif" font-size="13" lengthAdjust="spacingAndGlyphs" textLength="91" x="473" y="1598.1528">Primary failed.</text><text fill="#000000" font-family="sans-serif" font-size="13" lengthAdjust="spacingAndGlyphs" textLength="165" x="473" y="1613.2856">Routing to fallback model.</text><line style="stroke: #A80036; stroke-width: 1.0;" x1="562.5" x2="604.5" y1="1651.4844" y2="1651.4844"/><line style="stroke: #A80036; stroke-width: 1.0;" x1="604.5" x2="604.5" y1="1651.4844" y2="1664.4844"/><line style="stroke: #A80036; stroke-width: 1.0;" x1="563.5" x2="604.5" y1="1664.4844" y2="1664.4844"/><polygon fill="#A80036" points="573.5,1660.4844,563.5,1664.4844,573.5,1668.4844,569.5,1664.4844" style="stroke: #A80036; stroke-width: 1.0;"/><text fill="#000000" font-family="sans-serif" font-size="13" lengthAdjust="spacingAndGlyphs" textLength="253" x="569.5" y="1646.4185">attemptAnalyze(request, "gpt-4o-mini")</text><polygon fill="#A80036" points="853.5,1719.8828,863.5,1723.8828,853.5,1727.8828,857.5,1723.8828" style="stroke: #A80036; stroke-width: 1.0;"/><line style="stroke: #A80036; stroke-width: 1.0;" x1="562.5" x2="859.5" y1="1723.8828" y2="1723.8828"/><text fill="#000000" font-family="sans-serif" font-size="13" lengthAdjust="spacingAndGlyphs" textLength="147" x="640.5" y="1688.5513">call(analyze-system.st,</text><text fill="#000000" font-family="sans-serif" font-size="13" lengthAdjust="spacingAndGlyphs" textLength="127" x="650.5" y="1703.6841">&lt;text&gt;text&lt;/text&gt;,</text><text fill="#000000" font-family="sans-serif" font-size="13" lengthAdjust="spacingAndGlyphs" textLength="127" x="650.5" y="1718.8169">model: gpt-4o-mini)</text><polygon fill="#A80036" points="1114.5,1764.1484,1124.5,1768.1484,1114.5,1772.1484,1118.5,1768.1484" style="stroke: #A80036; stroke-width: 1.0;"/><line style="stroke: #A80036; stroke-width: 1.0;" x1="865.5" x2="1120.5" y1="1768.1484" y2="1768.1484"/><text fill="#000000" font-family="sans-serif" font-size="13" lengthAdjust="spacingAndGlyphs" textLength="94" x="949" y="1747.9497">HTTPS request</text><text fill="#000000" font-family="sans-serif" font-size="13" lengthAdjust="spacingAndGlyphs" textLength="237" x="877.5" y="1763.0825">(model: gpt-4o-mini, temperature: 0)</text><polygon fill="#A80036" points="876.5,1776.1484,866.5,1780.1484,876.5,1784.1484,872.5,1780.1484" style="stroke: #A80036; stroke-width: 1.0;"/><line style="stroke: #A80036; stroke-width: 1.0; stroke-dasharray: 2.0,2.0;" x1="870.5" x2="1125.5" y1="1780.1484" y2="1780.1484"/><text fill="#000000" font-family="sans-serif" font-size="13" lengthAdjust="spacingAndGlyphs" textLength="121" x="935.5" y="1793.2153">raw JSON response</text><polygon fill="#A80036" points="573.5,1805.2813,563.5,1809.2813,573.5,1813.2813,569.5,1809.2813" style="stroke: #A80036; stroke-width: 1.0;"/><line style="stroke: #A80036; stroke-width: 1.0; stroke-dasharray: 2.0,2.0;" x1="567.5" x2="864.5" y1="1809.2813" y2="1809.2813"/><text fill="#000000" font-family="sans-serif" font-size="13" lengthAdjust="spacingAndGlyphs" textLength="92" x="668" y="1822.3481">ChatResponse</text><line style="stroke: #A80036; stroke-width: 1.0;" x1="562.5" x2="604.5" y1="1870.6797" y2="1870.6797"/><line style="stroke: #A80036; stroke-width: 1.0;" x1="604.5" x2="604.5" y1="1870.6797" y2="1883.6797"/><line style="stroke: #A80036; stroke-width: 1.0;" x1="563.5" x2="604.5" y1="1883.6797" y2="1883.6797"/><polygon fill="#A80036" points="573.5,1879.6797,563.5,1883.6797,573.5,1887.6797,569.5,1883.6797" style="stroke: #A80036; stroke-width: 1.0;"/><text fill="#000000" font-family="sans-serif" font-size="13" lengthAdjust="spacingAndGlyphs" textLength="166" x="569.5" y="1850.481">parseResponse(raw JSON)</text><text fill="#000000" font-family="sans-serif" font-size="13" lengthAdjust="spacingAndGlyphs" textLength="129" x="569.5" y="1865.6138">→ AnalysisResponse</text><line style="stroke: #A80036; stroke-width: 1.0;" x1="562.5" x2="604.5" y1="1973.3438" y2="1973.3438"/><line style="stroke: #A80036; stroke-width: 1.0;" x1="604.5" x2="604.5" y1="1973.3438" y2="1986.3438"/><line style="stroke: #A80036; stroke-width: 1.0;" x1="563.5" x2="604.5" y1="1986.3438" y2="1986.3438"/><polygon fill="#A80036" points="573.5,1982.3438,563.5,1986.3438,573.5,1990.3438,569.5,1986.3438" style="stroke: #A80036; stroke-width: 1.0;"/><text fill="#000000" font-family="sans-serif" font-size="13" lengthAdjust="spacingAndGlyphs" textLength="65" x="569.5" y="1907.7466">logUsage(</text><text fill="#000000" font-family="sans-serif" font-size="13" lengthAdjust="spacingAndGlyphs" textLength="176" x="577.5" y="1922.8794">inputTokens, outputTokens,</text><text fill="#000000" font-family="sans-serif" font-size="13" lengthAdjust="spacingAndGlyphs" textLength="126" x="577.5" y="1938.0122">model: gpt-4o-mini,</text><text fill="#000000" font-family="sans-serif" font-size="13" lengthAdjust="spacingAndGlyphs" textLength="180" x="577.5" y="1953.145">latencyMs, provider: fallback</text><text fill="#000000" font-family="sans-serif" font-size="13" lengthAdjust="spacingAndGlyphs" textLength="5" x="569.5" y="1968.2778">)</text><polygon fill="#A80036" points="379.5,1994.3438,369.5,1998.3438,379.5,2002.3438,375.5,1998.3438" style="stroke: #A80036; stroke-width: 1.0;"/><line style="stroke: #A80036; stroke-width: 1.0; stroke-dasharray: 2.0,2.0;" x1="373.5" x2="561.5" y1="1998.3438" y2="1998.3438"/><text fill="#000000" font-family="sans-serif" font-size="13" lengthAdjust="spacingAndGlyphs" textLength="114" x="408.5" y="2011.4106">AnalysisResponse</text><polygon fill="#A80036" points="41.5,2023.4766,31.5,2027.4766,41.5,2031.4766,37.5,2027.4766" style="stroke: #A80036; stroke-width: 1.0;"/><line style="stroke: #A80036; stroke-width: 1.0; stroke-dasharray: 2.0,2.0;" x1="35.5" x2="367.5" y1="2027.4766" y2="2027.4766"/><text fill="#000000" font-family="sans-serif" font-size="13" lengthAdjust="spacingAndGlyphs" textLength="46" x="176.5" y="2040.5435">200 OK</text><text fill="#000000" font-family="sans-serif" font-size="13" lengthAdjust="spacingAndGlyphs" textLength="314" x="42.5" y="2055.6763">(same response shape — fallback is transparent)</text><!--MD5=[3fc6ff4a570d3673b78881f567b9a4cb]
@startuml sequence-happy-path

title Sequence Diagram 1 — Happy Path

skinparam sequenceMessageAlign center
skinparam responseMessageBelowArrow true

actor       Client
participant "TextAnalysisController" as Controller
participant "TextAnalysisService"    as Service
participant "ChatClient\n(Spring AI)" as ChatClient
participant "OpenAI API"             as OpenAI

== Week 1 — POST /api/analyze ==

Client -> Controller : POST /api/analyze\n{ "text": "..." }

Controller -> Controller : @Valid — validate request\n(not blank, max 5000 chars)

Controller -> Service : analyze(request)

Service -> Service : wrap input\n"<text>" + text + "</text>"

Service -> ChatClient : call(analyze-system.st, <text>text</text>)

ChatClient -> OpenAI : HTTPS request\n(model: gpt-4o, temperature: 0)

OpenAI - -> ChatClient : raw JSON response

ChatClient - -> Service : ChatResponse

Service -> Service : parseResponse(raw JSON)\n→ AnalysisResponse

Service -> Service : logUsage(\n  inputTokens, outputTokens,\n  model, latencyMs\n)

Service - -> Controller : AnalysisResponse

Controller - -> Client : 200 OK\n{\n  "summary": "...",\n  "sentiment": "positive",\n  "confidence": 0.91,\n  "key_topics": [...],\n  "word_count_estimate": 142\n}

== Week 2 — POST /api/classify ==

Client -> Controller : POST /api/classify\n{ "text": "..." }

Controller -> Controller : @Valid — validate request\n(not blank, max 5000 chars)

Controller -> Service : classify(request)

Service -> ChatClient : call(classify-system.st, text)

ChatClient -> OpenAI : HTTPS request\n(model: gpt-4o, temperature: 0)

OpenAI - -> ChatClient : raw JSON response

ChatClient - -> Service : ChatResponse

Service -> Service : classifyResponse(raw JSON)\n→ ClassifyResponse

Service -> Service : logUsage(\n  inputTokens, outputTokens,\n  model, latencyMs\n)

Service - -> Controller : ClassifyResponse

Controller - -> Client : 200 OK\n{\n  "reasoning": "...",\n  "category": "technology",\n  "confidence": 0.91\n}

== Week 3 — Fallback (primary model unavailable) ==

Client -> Controller : POST /api/analyze\n{ "text": "..." }

Controller -> Service : analyze(request)

Service -> Service : attemptAnalyze(request, null)\n→ primary model exhausted\n→ throws LlmUnavailableException

note over Service : Primary failed.\nRouting to fallback model.

Service -> Service : attemptAnalyze(request, "gpt-4o-mini")

Service -> ChatClient : call(analyze-system.st,\n<text>text</text>,\nmodel: gpt-4o-mini)

ChatClient -> OpenAI : HTTPS request\n(model: gpt-4o-mini, temperature: 0)

OpenAI - -> ChatClient : raw JSON response

ChatClient - -> Service : ChatResponse

Service -> Service : parseResponse(raw JSON)\n→ AnalysisResponse

Service -> Service : logUsage(\n  inputTokens, outputTokens,\n  model: gpt-4o-mini,\n  latencyMs, provider: fallback\n)

Service - -> Controller : AnalysisResponse

Controller - -> Client : 200 OK\n(same response shape — fallback is transparent)

@enduml

PlantUML version 1.2020.02(Sun Mar 01 10:22:07 UTC 2020)
(GPL source distribution)
Java Runtime: OpenJDK Runtime Environment
JVM: OpenJDK 64-Bit Server VM
Java Version: 17.0.19+10
Operating System: Linux
Default Encoding: UTF-8
Language: en
Country: null
--></g></svg>