<?xml version="1.0" encoding="UTF-8" standalone="no"?><svg xmlns="http://www.w3.org/2000/svg" xmlns:xlink="http://www.w3.org/1999/xlink" contentScriptType="application/ecmascript" contentStyleType="text/css" height="1495px" preserveAspectRatio="none" style="width:1184px;height:1495px;" version="1.1" viewBox="0 0 1184 1495" width="1184px" zoomAndPan="magnify"><defs><filter height="300%" id="f1trl7b6gsomov" width="300%" x="-1" y="-1"><feGaussianBlur result="blurOut" stdDeviation="2.0"/><feColorMatrix in="blurOut" result="blurOut2" type="matrix" values="0 0 0 0 0 0 0 0 0 0 0 0 0 0 0 0 0 0 .4 0"/><feOffset dx="4.0" dy="4.0" in="blurOut2" result="blurOut3"/><feBlend in="SourceGraphic" in2="blurOut3" mode="normal"/></filter></defs><g><text fill="#000000" font-family="sans-serif" font-size="18" lengthAdjust="spacingAndGlyphs" textLength="410" x="382.75" y="26.708">Sequence Diagram 3 — LLM Failure and Retry</text><rect fill="#FFFFFF" filter="url(#f1trl7b6gsomov)" height="190.6016" style="stroke: #000000; stroke-width: 2.0;" width="529" x="268.5" y="397.3125"/><rect fill="#FFFFFF" height="115.2031" style="stroke: none; stroke-width: 1.0;" width="529" x="268.5" y="472.7109"/><rect fill="#FFFFFF" filter="url(#f1trl7b6gsomov)" height="633.5234" style="stroke: #000000; stroke-width: 2.0;" width="1149.5" x="13" y="757.5781"/><rect fill="#FFFFFF" height="336.6641" style="stroke: none; stroke-width: 1.0;" width="1149.5" x="13" y="1054.4375"/><line style="stroke: #A80036; stroke-width: 1.0; stroke-dasharray: 5.0,5.0;" x1="45" x2="45" y1="121.25" y2="1408.1016"/><line style="stroke: #A80036; stroke-width: 1.0; stroke-dasharray: 5.0,5.0;" x1="183.5" x2="183.5" y1="121.25" y2="1408.1016"/><line style="stroke: #A80036; stroke-width: 1.0; stroke-dasharray: 5.0,5.0;" x1="354.5" x2="354.5" y1="121.25" y2="1408.1016"/><line style="stroke: #A80036; stroke-width: 1.0; stroke-dasharray: 5.0,5.0;" x1="561.5" x2="561.5" y1="121.25" y2="1408.1016"/><line style="stroke: #A80036; stroke-width: 1.0; stroke-dasharray: 5.0,5.0;" x1="740.5" x2="740.5" y1="121.25" y2="1408.1016"/><line style="stroke: #A80036; stroke-width: 1.0; stroke-dasharray: 5.0,5.0;" x1="888.5" x2="888.5" y1="121.25" y2="1408.1016"/><text fill="#000000" font-family="sans-serif" font-size="14" lengthAdjust="spacingAndGlyphs" textLength="39" x="23" y="117.9482">Client</text><ellipse cx="45.5" cy="47.9531" fill="#FEFECE" filter="url(#f1trl7b6gsomov)" rx="8" ry="8" style="stroke: #A80036; stroke-width: 2.0;"/><path d="M45.5,55.9531 L45.5,82.9531 M32.5,63.9531 L58.5,63.9531 M45.5,82.9531 L32.5,97.9531 M45.5,82.9531 L58.5,97.9531 " fill="none" filter="url(#f1trl7b6gsomov)" style="stroke: #A80036; stroke-width: 2.0;"/><text fill="#000000" font-family="sans-serif" font-size="14" lengthAdjust="spacingAndGlyphs" textLength="39" x="23" y="1420.0967">Client</text><ellipse cx="45.5" cy="1433.3984" fill="#FEFECE" filter="url(#f1trl7b6gsomov)" rx="8" ry="8" style="stroke: #A80036; stroke-width: 2.0;"/><path d="M45.5,1441.3984 L45.5,1468.3984 M32.5,1449.3984 L58.5,1449.3984 M45.5,1468.3984 L32.5,1483.3984 M45.5,1468.3984 L58.5,1483.3984 " fill="none" filter="url(#f1trl7b6gsomov)" style="stroke: #A80036; stroke-width: 2.0;"/><rect fill="#FEFECE" filter="url(#f1trl7b6gsomov)" height="30.2969" style="stroke: #A80036; stroke-width: 1.5;" width="166" x="98.5" y="85.9531"/><text fill="#000000" font-family="sans-serif" font-size="14" lengthAdjust="spacingAndGlyphs" textLength="152" x="105.5" y="105.9482">TextAnalysisController</text><rect fill="#FEFECE" filter="url(#f1trl7b6gsomov)" height="30.2969" style="stroke: #A80036; stroke-width: 1.5;" width="166" x="98.5" y="1407.1016"/><text fill="#000000" font-family="sans-serif" font-size="14" lengthAdjust="spacingAndGlyphs" textLength="152" x="105.5" y="1427.0967">TextAnalysisController</text><rect fill="#FEFECE" filter="url(#f1trl7b6gsomov)" height="30.2969" style="stroke: #A80036; stroke-width: 1.5;" width="149" x="278.5" y="85.9531"/><text fill="#000000" font-family="sans-serif" font-size="14" lengthAdjust="spacingAndGlyphs" textLength="135" x="285.5" y="105.9482">TextAnalysisService</text><rect fill="#FEFECE" filter="url(#f1trl7b6gsomov)" height="30.2969" style="stroke: #A80036; stroke-width: 1.5;" width="149" x="278.5" y="1407.1016"/><text fill="#000000" font-family="sans-serif" font-size="14" lengthAdjust="spacingAndGlyphs" textLength="135" x="285.5" y="1427.0967">TextAnalysisService</text><rect fill="#FEFECE" filter="url(#f1trl7b6gsomov)" height="46.5938" style="stroke: #A80036; stroke-width: 1.5;" width="85" x="517.5" y="69.6563"/><text fill="#000000" font-family="sans-serif" font-size="14" lengthAdjust="spacingAndGlyphs" textLength="71" x="524.5" y="89.6514">ChatClient</text><text fill="#000000" font-family="sans-serif" font-size="14" lengthAdjust="spacingAndGlyphs" textLength="70" x="525" y="105.9482">(Spring AI)</text><rect fill="#FEFECE" filter="url(#f1trl7b6gsomov)" height="46.5938" style="stroke: #A80036; stroke-width: 1.5;" width="85" x="517.5" y="1407.1016"/><text fill="#000000" font-family="sans-serif" font-size="14" lengthAdjust="spacingAndGlyphs" textLength="71" x="524.5" y="1427.0967">ChatClient</text><text fill="#000000" font-family="sans-serif" font-size="14" lengthAdjust="spacingAndGlyphs" textLength="70" x="525" y="1443.3936">(Spring AI)</text><rect fill="#FEFECE" filter="url(#f1trl7b6gsomov)" height="30.2969" style="stroke: #A80036; stroke-width: 1.5;" width="89" x="694.5" y="85.9531"/><text fill="#000000" font-family="sans-serif" font-size="14" lengthAdjust="spacingAndGlyphs" textLength="75" x="701.5" y="105.9482">OpenAI API</text><rect fill="#FEFECE" filter="url(#f1trl7b6gsomov)" height="30.2969" style="stroke: #A80036; stroke-width: 1.5;" width="89" x="694.5" y="1407.1016"/><text fill="#000000" font-family="sans-serif" font-size="14" lengthAdjust="spacingAndGlyphs" textLength="75" x="701.5" y="1427.0967">OpenAI API</text><rect fill="#FEFECE" filter="url(#f1trl7b6gsomov)" height="30.2969" style="stroke: #A80036; stroke-width: 1.5;" width="178" x="797.5" y="85.9531"/><text fill="#000000" font-family="sans-serif" font-size="14" lengthAdjust="spacingAndGlyphs" textLength="164" x="804.5" y="105.9482">GlobalExceptionHandler</text><rect fill="#FEFECE" filter="url(#f1trl7b6gsomov)" height="30.2969" style="stroke: #A80036; stroke-width: 1.5;" width="178" x="797.5" y="1407.1016"/><text fill="#000000" font-family="sans-serif" font-size="14" lengthAdjust="spacingAndGlyphs" textLength="164" x="804.5" y="1427.0967">GlobalExceptionHandler</text><polygon fill="#A80036" points="171.5,163.5156,181.5,167.5156,171.5,171.5156,175.5,167.5156" style="stroke: #A80036; stroke-width: 1.0;"/><line style="stroke: #A80036; stroke-width: 1.0;" x1="45.5" x2="177.5" y1="167.5156" y2="167.5156"/><text fill="#000000" font-family="sans-serif" font-size="13" lengthAdjust="spacingAndGlyphs" textLength="114" x="57.5" y="147.3169">POST /api/analyze</text><text fill="#000000" font-family="sans-serif" font-size="13" lengthAdjust="spacingAndGlyphs" textLength="89" x="70" y="162.4497">{ "text": "..." }</text><line style="stroke: #A80036; stroke-width: 1.0;" x1="183.5" x2="225.5" y1="196.6484" y2="196.6484"/><line style="stroke: #A80036; stroke-width: 1.0;" x1="225.5" x2="225.5" y1="196.6484" y2="209.6484"/><line style="stroke: #A80036; stroke-width: 1.0;" x1="184.5" x2="225.5" y1="209.6484" y2="209.6484"/><polygon fill="#A80036" points="194.5,205.6484,184.5,209.6484,194.5,213.6484,190.5,209.6484" style="stroke: #A80036; stroke-width: 1.0;"/><text fill="#000000" font-family="sans-serif" font-size="13" lengthAdjust="spacingAndGlyphs" textLength="110" x="190.5" y="191.5825">@Valid — passes</text><polygon fill="#A80036" points="343,234.7813,353,238.7813,343,242.7813,347,238.7813" style="stroke: #A80036; stroke-width: 1.0;"/><line style="stroke: #A80036; stroke-width: 1.0;" x1="183.5" x2="349" y1="238.7813" y2="238.7813"/><text fill="#000000" font-family="sans-serif" font-size="13" lengthAdjust="spacingAndGlyphs" textLength="108" x="215.25" y="233.7153">analyze(request)</text><line style="stroke: #A80036; stroke-width: 1.0;" x1="355" x2="397" y1="267.9141" y2="267.9141"/><line style="stroke: #A80036; stroke-width: 1.0;" x1="397" x2="397" y1="267.9141" y2="280.9141"/><line style="stroke: #A80036; stroke-width: 1.0;" x1="356" x2="397" y1="280.9141" y2="280.9141"/><polygon fill="#A80036" points="366,276.9141,356,280.9141,366,284.9141,362,280.9141" style="stroke: #A80036; stroke-width: 1.0;"/><text fill="#000000" font-family="sans-serif" font-size="13" lengthAdjust="spacingAndGlyphs" textLength="112" x="362" y="262.8481">buildPrompt(text)</text><rect fill="#EEEEEE" filter="url(#f1trl7b6gsomov)" height="3" style="stroke: #EEEEEE; stroke-width: 1.0;" width="1169.5" x="3" y="309.4805"/><line style="stroke: #000000; stroke-width: 1.0;" x1="3" x2="1172.5" y1="309.4805" y2="309.4805"/><line style="stroke: #000000; stroke-width: 1.0;" x1="3" x2="1172.5" y1="312.4805" y2="312.4805"/><rect fill="#EEEEEE" filter="url(#f1trl7b6gsomov)" height="23.1328" style="stroke: #000000; stroke-width: 2.0;" width="94" x="540.75" y="298.9141"/><text fill="#000000" font-family="sans-serif" font-size="13" font-weight="bold" lengthAdjust="spacingAndGlyphs" textLength="75" x="546.75" y="314.981">Attempt 1</text><polygon fill="#A80036" points="550,349.1797,560,353.1797,550,357.1797,554,353.1797" style="stroke: #A80036; stroke-width: 1.0;"/><line style="stroke: #A80036; stroke-width: 1.0;" x1="355" x2="556" y1="353.1797" y2="353.1797"/><text fill="#000000" font-family="sans-serif" font-size="13" lengthAdjust="spacingAndGlyphs" textLength="78" x="419.5" y="348.1138">call(prompt)</text><polygon fill="#A80036" points="729,378.3125,739,382.3125,729,386.3125,733,382.3125" style="stroke: #A80036; stroke-width: 1.0;"/><line style="stroke: #A80036; stroke-width: 1.0;" x1="562" x2="735" y1="382.3125" y2="382.3125"/><text fill="#000000" font-family="sans-serif" font-size="13" lengthAdjust="spacingAndGlyphs" textLength="94" x="604.5" y="377.2466">HTTPS request</text><path d="M268.5,397.3125 L332.5,397.3125 L332.5,404.3125 L322.5,414.3125 L268.5,414.3125 L268.5,397.3125 " fill="#EEEEEE" style="stroke: #000000; stroke-width: 1.0;"/><rect fill="none" height="190.6016" style="stroke: #000000; stroke-width: 2.0;" width="529" x="268.5" y="397.3125"/><text fill="#000000" font-family="sans-serif" font-size="13" font-weight="bold" lengthAdjust="spacingAndGlyphs" textLength="19" x="283.5" y="410.3794">alt</text><text fill="#000000" font-family="sans-serif" font-size="11" font-weight="bold" lengthAdjust="spacingAndGlyphs" textLength="211" x="347.5" y="409.5229">[LLM unavailable (timeout / 5xx)]</text><polygon fill="#A80036" points="573,414.4453,563,418.4453,573,422.4453,569,418.4453" style="stroke: #A80036; stroke-width: 1.0;"/><line style="stroke: #A80036; stroke-width: 1.0; stroke-dasharray: 2.0,2.0;" x1="567" x2="740" y1="418.4453" y2="418.4453"/><text fill="#000000" font-family="sans-serif" font-size="13" lengthAdjust="spacingAndGlyphs" textLength="93" x="605" y="431.5122">error / timeout</text><polygon fill="#A80036" points="366,443.5781,356,447.5781,366,451.5781,362,447.5781" style="stroke: #A80036; stroke-width: 1.0;"/><line style="stroke: #A80036; stroke-width: 1.0; stroke-dasharray: 2.0,2.0;" x1="360" x2="561" y1="447.5781" y2="447.5781"/><text fill="#000000" font-family="sans-serif" font-size="13" lengthAdjust="spacingAndGlyphs" textLength="62" x="427.5" y="460.645">exception</text><line style="stroke: #000000; stroke-width: 1.0; stroke-dasharray: 2.0,2.0;" x1="268.5" x2="797.5" y1="473.7109" y2="473.7109"/><text fill="#000000" font-family="sans-serif" font-size="11" font-weight="bold" lengthAdjust="spacingAndGlyphs" textLength="192" x="273.5" y="483.9214">[LLM returns malformed JSON]</text><polygon fill="#A80036" points="573,487.5156,563,491.5156,573,495.5156,569,491.5156" style="stroke: #A80036; stroke-width: 1.0;"/><line style="stroke: #A80036; stroke-width: 1.0; stroke-dasharray: 2.0,2.0;" x1="567" x2="740" y1="491.5156" y2="491.5156"/><text fill="#000000" font-family="sans-serif" font-size="13" lengthAdjust="spacingAndGlyphs" textLength="155" x="574" y="504.5825">200 OK (bad JSON body)</text><polygon fill="#A80036" points="366,516.6484,356,520.6484,366,524.6484,362,520.6484" style="stroke: #A80036; stroke-width: 1.0;"/><line style="stroke: #A80036; stroke-width: 1.0; stroke-dasharray: 2.0,2.0;" x1="360" x2="561" y1="520.6484" y2="520.6484"/><text fill="#000000" font-family="sans-serif" font-size="13" lengthAdjust="spacingAndGlyphs" textLength="92" x="412.5" y="533.7153">ChatResponse</text><line style="stroke: #A80036; stroke-width: 1.0;" x1="355" x2="397" y1="566.9141" y2="566.9141"/><line style="stroke: #A80036; stroke-width: 1.0;" x1="397" x2="397" y1="566.9141" y2="579.9141"/><line style="stroke: #A80036; stroke-width: 1.0;" x1="356" x2="397" y1="579.9141" y2="579.9141"/><polygon fill="#A80036" points="366,575.9141,356,579.9141,366,583.9141,362,579.9141" style="stroke: #A80036; stroke-width: 1.0;"/><text fill="#000000" font-family="sans-serif" font-size="13" lengthAdjust="spacingAndGlyphs" textLength="154" x="362" y="561.8481">parseResponse() — fails</text><path d="M289,599.9141 L289,639.9141 L417,639.9141 L417,609.9141 L407,599.9141 L289,599.9141 " fill="#FBFB77" filter="url(#f1trl7b6gsomov)" style="stroke: #A80036; stroke-width: 1.0;"/><path d="M407,599.9141 L407,609.9141 L417,609.9141 L407,599.9141 " fill="#FBFB77" style="stroke: #A80036; stroke-width: 1.0;"/><text fill="#000000" font-family="sans-serif" font-size="13" lengthAdjust="spacingAndGlyphs" textLength="107" x="295" y="616.981">Attempt 1 failed.</text><text fill="#000000" font-family="sans-serif" font-size="13" lengthAdjust="spacingAndGlyphs" textLength="91" x="295" y="632.1138">Retrying once.</text><rect fill="#EEEEEE" filter="url(#f1trl7b6gsomov)" height="3" style="stroke: #EEEEEE; stroke-width: 1.0;" width="1169.5" x="3" y="669.7461"/><line style="stroke: #000000; stroke-width: 1.0;" x1="3" x2="1172.5" y1="669.7461" y2="669.7461"/><line style="stroke: #000000; stroke-width: 1.0;" x1="3" x2="1172.5" y1="672.7461" y2="672.7461"/><rect fill="#EEEEEE" filter="url(#f1trl7b6gsomov)" height="23.1328" style="stroke: #000000; stroke-width: 2.0;" width="146" x="514.75" y="659.1797"/><text fill="#000000" font-family="sans-serif" font-size="13" font-weight="bold" lengthAdjust="spacingAndGlyphs" textLength="127" x="520.75" y="675.2466">Attempt 2 (retry)</text><polygon fill="#A80036" points="550,709.4453,560,713.4453,550,717.4453,554,713.4453" style="stroke: #A80036; stroke-width: 1.0;"/><line style="stroke: #A80036; stroke-width: 1.0;" x1="355" x2="556" y1="713.4453" y2="713.4453"/><text fill="#000000" font-family="sans-serif" font-size="13" lengthAdjust="spacingAndGlyphs" textLength="78" x="419.5" y="708.3794">call(prompt)</text><polygon fill="#A80036" points="729,738.5781,739,742.5781,729,746.5781,733,742.5781" style="stroke: #A80036; stroke-width: 1.0;"/><line style="stroke: #A80036; stroke-width: 1.0;" x1="562" x2="735" y1="742.5781" y2="742.5781"/><text fill="#000000" font-family="sans-serif" font-size="13" lengthAdjust="spacingAndGlyphs" textLength="94" x="604.5" y="737.5122">HTTPS request</text><path d="M13,757.5781 L77,757.5781 L77,764.5781 L67,774.5781 L13,774.5781 L13,757.5781 " fill="#EEEEEE" style="stroke: #000000; stroke-width: 1.0;"/><rect fill="none" height="633.5234" style="stroke: #000000; stroke-width: 2.0;" width="1149.5" x="13" y="757.5781"/><text fill="#000000" font-family="sans-serif" font-size="13" font-weight="bold" lengthAdjust="spacingAndGlyphs" textLength="19" x="28" y="770.645">alt</text><text fill="#000000" font-family="sans-serif" font-size="11" font-weight="bold" lengthAdjust="spacingAndGlyphs" textLength="142" x="92" y="769.7886">[LLM still unavailable]</text><polygon fill="#A80036" points="573,774.7109,563,778.7109,573,782.7109,569,778.7109" style="stroke: #A80036; stroke-width: 1.0;"/><line style="stroke: #A80036; stroke-width: 1.0; stroke-dasharray: 2.0,2.0;" x1="567" x2="740" y1="778.7109" y2="778.7109"/><text fill="#000000" font-family="sans-serif" font-size="13" lengthAdjust="spacingAndGlyphs" textLength="93" x="605" y="791.7778">error / timeout</text><polygon fill="#A80036" points="366,803.8438,356,807.8438,366,811.8438,362,807.8438" style="stroke: #A80036; stroke-width: 1.0;"/><line style="stroke: #A80036; stroke-width: 1.0; stroke-dasharray: 2.0,2.0;" x1="360" x2="561" y1="807.8438" y2="807.8438"/><text fill="#000000" font-family="sans-serif" font-size="13" lengthAdjust="spacingAndGlyphs" textLength="62" x="427.5" y="820.9106">exception</text><polygon fill="#A80036" points="876.5,850.1094,886.5,854.1094,876.5,858.1094,880.5,854.1094" style="stroke: #A80036; stroke-width: 1.0;"/><line style="stroke: #A80036; stroke-width: 1.0;" x1="355" x2="882.5" y1="854.1094" y2="854.1094"/><text fill="#000000" font-family="sans-serif" font-size="13" lengthAdjust="spacingAndGlyphs" textLength="205" x="519.25" y="849.0435">throws LlmUnavailableException</text><line style="stroke: #A80036; stroke-width: 1.0;" x1="888.5" x2="930.5" y1="943.7734" y2="943.7734"/><line style="stroke: #A80036; stroke-width: 1.0;" x1="930.5" x2="930.5" y1="943.7734" y2="956.7734"/><line style="stroke: #A80036; stroke-width: 1.0;" x1="889.5" x2="930.5" y1="956.7734" y2="956.7734"/><polygon fill="#A80036" points="899.5,952.7734,889.5,956.7734,899.5,960.7734,895.5,956.7734" style="stroke: #A80036; stroke-width: 1.0;"/><text fill="#000000" font-family="sans-serif" font-size="13" lengthAdjust="spacingAndGlyphs" textLength="165" x="895.5" y="878.1763">handleLlmUnavailable(ex)</text><text fill="#000000" font-family="sans-serif" font-size="13" lengthAdjust="spacingAndGlyphs" textLength="113" x="895.5" y="893.3091">→ ErrorResponse(</text><text fill="#000000" font-family="sans-serif" font-size="13" lengthAdjust="spacingAndGlyphs" textLength="203" x="911.5" y="908.4419">error: "LLM service unavailable",</text><text fill="#000000" font-family="sans-serif" font-size="13" lengthAdjust="spacingAndGlyphs" textLength="161" x="911.5" y="923.5747">code: LLM_UNAVAILABLE</text><text fill="#000000" font-family="sans-serif" font-size="13" lengthAdjust="spacingAndGlyphs" textLength="5" x="903.5" y="938.7075">)</text><polygon fill="#A80036" points="56.5,964.7734,46.5,968.7734,56.5,972.7734,52.5,968.7734" style="stroke: #A80036; stroke-width: 1.0;"/><line style="stroke: #A80036; stroke-width: 1.0; stroke-dasharray: 2.0,2.0;" x1="50.5" x2="887.5" y1="968.7734" y2="968.7734"/><text fill="#000000" font-family="sans-serif" font-size="13" lengthAdjust="spacingAndGlyphs" textLength="112" x="411" y="981.8403">502 Bad Gateway</text><text fill="#000000" font-family="sans-serif" font-size="13" lengthAdjust="spacingAndGlyphs" textLength="8" x="463" y="996.9731">{</text><text fill="#000000" font-family="sans-serif" font-size="13" lengthAdjust="spacingAndGlyphs" textLength="213" x="364.5" y="1012.106">"error": "LLM service unavailable",</text><text fill="#000000" font-family="sans-serif" font-size="13" lengthAdjust="spacingAndGlyphs" textLength="181" x="380.5" y="1027.2388">"code": "LLM_UNAVAILABLE"</text><text fill="#000000" font-family="sans-serif" font-size="13" lengthAdjust="spacingAndGlyphs" textLength="8" x="463" y="1042.3716">}</text><line style="stroke: #000000; stroke-width: 1.0; stroke-dasharray: 2.0,2.0;" x1="13" x2="1162.5" y1="1055.4375" y2="1055.4375"/><text fill="#000000" font-family="sans-serif" font-size="11" font-weight="bold" lengthAdjust="spacingAndGlyphs" textLength="232" x="18" y="1065.6479">[LLM returns malformed JSON again]</text><polygon fill="#A80036" points="573,1069.2422,563,1073.2422,573,1077.2422,569,1073.2422" style="stroke: #A80036; stroke-width: 1.0;"/><line style="stroke: #A80036; stroke-width: 1.0; stroke-dasharray: 2.0,2.0;" x1="567" x2="740" y1="1073.2422" y2="1073.2422"/><text fill="#000000" font-family="sans-serif" font-size="13" lengthAdjust="spacingAndGlyphs" textLength="155" x="574" y="1086.3091">200 OK (bad JSON body)</text><polygon fill="#A80036" points="366,1098.375,356,1102.375,366,1106.375,362,1102.375" style="stroke: #A80036; stroke-width: 1.0;"/><line style="stroke: #A80036; stroke-width: 1.0; stroke-dasharray: 2.0,2.0;" x1="360" x2="561" y1="1102.375" y2="1102.375"/><text fill="#000000" font-family="sans-serif" font-size="13" lengthAdjust="spacingAndGlyphs" textLength="92" x="412.5" y="1115.4419">ChatResponse</text><line style="stroke: #A80036; stroke-width: 1.0;" x1="355" x2="397" y1="1148.6406" y2="1148.6406"/><line style="stroke: #A80036; stroke-width: 1.0;" x1="397" x2="397" y1="1148.6406" y2="1161.6406"/><line style="stroke: #A80036; stroke-width: 1.0;" x1="356" x2="397" y1="1161.6406" y2="1161.6406"/><polygon fill="#A80036" points="366,1157.6406,356,1161.6406,366,1165.6406,362,1161.6406" style="stroke: #A80036; stroke-width: 1.0;"/><text fill="#000000" font-family="sans-serif" font-size="13" lengthAdjust="spacingAndGlyphs" textLength="193" x="362" y="1143.5747">parseResponse() — fails again</text><polygon fill="#A80036" points="876.5,1186.7734,886.5,1190.7734,876.5,1194.7734,880.5,1190.7734" style="stroke: #A80036; stroke-width: 1.0;"/><line style="stroke: #A80036; stroke-width: 1.0;" x1="355" x2="882.5" y1="1190.7734" y2="1190.7734"/><text fill="#000000" font-family="sans-serif" font-size="13" lengthAdjust="spacingAndGlyphs" textLength="144" x="549.75" y="1185.7075">throws ParseException</text><line style="stroke: #A80036; stroke-width: 1.0;" x1="888.5" x2="930.5" y1="1280.4375" y2="1280.4375"/><line style="stroke: #A80036; stroke-width: 1.0;" x1="930.5" x2="930.5" y1="1280.4375" y2="1293.4375"/><line style="stroke: #A80036; stroke-width: 1.0;" x1="889.5" x2="930.5" y1="1293.4375" y2="1293.4375"/><polygon fill="#A80036" points="899.5,1289.4375,889.5,1293.4375,899.5,1297.4375,895.5,1293.4375" style="stroke: #A80036; stroke-width: 1.0;"/><text fill="#000000" font-family="sans-serif" font-size="13" lengthAdjust="spacingAndGlyphs" textLength="135" x="895.5" y="1214.8403">handleParseError(ex)</text><text fill="#000000" font-family="sans-serif" font-size="13" lengthAdjust="spacingAndGlyphs" textLength="113" x="895.5" y="1229.9731">→ ErrorResponse(</text><text fill="#000000" font-family="sans-serif" font-size="13" lengthAdjust="spacingAndGlyphs" textLength="239" x="911.5" y="1245.106">error: "Failed to parse LLM response",</text><text fill="#000000" font-family="sans-serif" font-size="13" lengthAdjust="spacingAndGlyphs" textLength="130" x="911.5" y="1260.2388">code: PARSE_ERROR</text><text fill="#000000" font-family="sans-serif" font-size="13" lengthAdjust="spacingAndGlyphs" textLength="5" x="903.5" y="1275.3716">)</text><polygon fill="#A80036" points="56.5,1301.4375,46.5,1305.4375,56.5,1309.4375,52.5,1305.4375" style="stroke: #A80036; stroke-width: 1.0;"/><line style="stroke: #A80036; stroke-width: 1.0; stroke-dasharray: 2.0,2.0;" x1="50.5" x2="887.5" y1="1305.4375" y2="1305.4375"/><text fill="#000000" font-family="sans-serif" font-size="13" lengthAdjust="spacingAndGlyphs" textLength="157" x="388.5" y="1318.5044">500 Internal Server Error</text><text fill="#000000" font-family="sans-serif" font-size="13" lengthAdjust="spacingAndGlyphs" textLength="8" x="463" y="1333.6372">{</text><text fill="#000000" font-family="sans-serif" font-size="13" lengthAdjust="spacingAndGlyphs" textLength="249" x="346.5" y="1348.77">"error": "Failed to parse LLM response",</text><text fill="#000000" font-family="sans-serif" font-size="13" lengthAdjust="spacingAndGlyphs" textLength="150" x="396" y="1363.9028">"code": "PARSE_ERROR"</text><text fill="#000000" font-family="sans-serif" font-size="13" lengthAdjust="spacingAndGlyphs" textLength="8" x="463" y="1379.0356">}</text><!--MD5=[6f4ea6acbadf48cfc17899829e377e17]
@startuml sequence-llm-failure

title Sequence Diagram 3 — LLM Failure and Retry

skinparam sequenceMessageAlign center
skinparam responseMessageBelowArrow true

actor       Client
participant "TextAnalysisController" as Controller
participant "TextAnalysisService"    as Service
participant "ChatClient\n(Spring AI)" as ChatClient
participant "OpenAI API"             as OpenAI
participant "GlobalExceptionHandler" as Handler

Client -> Controller : POST /api/analyze\n{ "text": "..." }

Controller -> Controller : @Valid — passes

Controller -> Service : analyze(request)

Service -> Service : buildPrompt(text)

== Attempt 1 ==

Service -> ChatClient : call(prompt)
ChatClient -> OpenAI : HTTPS request

alt LLM unavailable (timeout / 5xx)

  OpenAI - -> ChatClient : error / timeout
  ChatClient - -> Service : exception

else LLM returns malformed JSON

  OpenAI - -> ChatClient : 200 OK (bad JSON body)
  ChatClient - -> Service : ChatResponse
  Service -> Service : parseResponse() — fails

end

note over Service : Attempt 1 failed.\nRetrying once.

== Attempt 2 (retry) ==

Service -> ChatClient : call(prompt)
ChatClient -> OpenAI : HTTPS request

alt LLM still unavailable

  OpenAI - -> ChatClient : error / timeout
  ChatClient - -> Service : exception
  Service -> Handler : throws LlmUnavailableException
  Handler -> Handler : handleLlmUnavailable(ex)\n→ ErrorResponse(\n    error: "LLM service unavailable",\n    code: LLM_UNAVAILABLE\n  )
  Handler - -> Client : 502 Bad Gateway\n{\n  "error": "LLM service unavailable",\n  "code": "LLM_UNAVAILABLE"\n}

else LLM returns malformed JSON again

  OpenAI - -> ChatClient : 200 OK (bad JSON body)
  ChatClient - -> Service : ChatResponse
  Service -> Service : parseResponse() — fails again
  Service -> Handler : throws ParseException
  Handler -> Handler : handleParseError(ex)\n→ ErrorResponse(\n    error: "Failed to parse LLM response",\n    code: PARSE_ERROR\n  )
  Handler - -> Client : 500 Internal Server Error\n{\n  "error": "Failed to parse LLM response",\n  "code": "PARSE_ERROR"\n}

end

@enduml

PlantUML version 1.2020.02(Sun Mar 01 10:22:07 UTC 2020)
(GPL source distribution)
Java Runtime: OpenJDK Runtime Environment
JVM: OpenJDK 64-Bit Server VM
Java Version: 17.0.19+10
Operating System: Linux
Default Encoding: UTF-8
Language: en
Country: null
--></g></svg>